<svg width="84" height="14" viewBox="0 0 84 14" fill="none" xmlns="http://www.w3.org/2000/svg">
<rect width="84" height="14" fill="white"/>
<g clip-path="url(#clip0_918_12244)">
<path d="M2.5 1H11.5C12.331 1 13 1.669 13 2.5V11.5C13 12.331 12.331 13 11.5 13H2.5C1.669 13 1 12.331 1 11.5V2.5C1 1.669 1.669 1 2.5 1Z" fill="#1D99F3"/>
<path d="M7.7043 2.51465L6.20994 2.6577V8.81102L7.6885 8.58842V5.96493L9.67596 8.87473L11.2341 8.38173L9.19894 5.58335L11.25 2.94394L9.66016 2.57842L7.68853 5.21771L7.7043 2.51465ZM4.31695 4.01411C4.30008 4.01589 4.28378 4.02332 4.27111 4.03604L3.68461 4.62244C3.65995 4.64718 3.6553 4.68552 3.67348 4.71547L4.36015 5.84641C4.23836 6.05117 4.14075 6.27193 4.07098 6.50481L2.81035 6.76703C2.77527 6.77429 2.75 6.80537 2.75 6.84136V7.67069C2.75 7.70576 2.774 7.73614 2.80779 7.7443L4.03137 8.04338C4.09662 8.3131 4.19773 8.56879 4.33137 8.80379L3.62313 9.88379C3.60337 9.91398 3.60749 9.95373 3.63302 9.97915L4.21932 10.5656C4.24398 10.5901 4.28248 10.595 4.31255 10.5769L5.42237 9.90287C5.64038 10.0287 5.87547 10.1277 6.12395 10.1948L6.38289 11.4398C6.39018 11.4751 6.42137 11.5002 6.45713 11.5002H7.28655C7.32142 11.5002 7.35185 11.4763 7.36017 11.4422L7.66517 10.1946C7.92131 10.1254 8.16356 10.0224 8.38689 9.8909L9.48057 10.608C9.51064 10.6278 9.55041 10.6238 9.57594 10.5983L10.1624 10.0119C10.1873 9.98713 10.1917 9.94878 10.1735 9.91891L9.77421 9.26092L9.64504 9.30177C9.62621 9.30772 9.60568 9.3007 9.5946 9.2843C9.5946 9.2843 9.33994 8.91151 9.01105 8.43014C8.61787 9.19962 7.81797 9.72673 6.89424 9.72673C5.58185 9.72673 4.51787 8.66271 4.51787 7.35026C4.51787 6.38478 5.09374 5.55445 5.92043 5.18249V4.56941C5.76997 4.62205 5.62451 4.68551 5.48636 4.76077C5.48636 4.76077 5.48616 4.76042 5.48577 4.76007L4.36635 4.02588C4.35128 4.01603 4.3338 4.0121 4.31693 4.01383L4.31695 4.01411Z" fill="#FCFCFC"/>
</g>
<rect width="23" height="12" transform="translate(14 1)" fill="#1D99F3"/>
<path d="M17.4403 10V4.18182H18.8466V6.64205H18.9233L20.8466 4.18182H22.5028L20.4403 6.77841L22.5398 10H20.858L19.4091 7.71307L18.8466 8.4233V10H17.4403ZM25.2081 10H23.0575V4.18182H25.2053C25.7981 4.18182 26.3085 4.2983 26.7365 4.53125C27.1664 4.76231 27.4979 5.09564 27.7308 5.53125C27.9638 5.96496 28.0803 6.4839 28.0803 7.08807C28.0803 7.69413 27.9638 8.21496 27.7308 8.65057C27.4998 9.08617 27.1693 9.42045 26.7393 9.65341C26.3094 9.88447 25.799 10 25.2081 10ZM24.4638 8.80114H25.1541C25.4799 8.80114 25.7554 8.74621 25.9808 8.63636C26.2081 8.52462 26.3795 8.34375 26.495 8.09375C26.6125 7.84186 26.6712 7.50663 26.6712 7.08807C26.6712 6.66951 26.6125 6.33617 26.495 6.08807C26.3776 5.83807 26.2043 5.65814 25.9751 5.5483C25.7479 5.43655 25.4676 5.38068 25.1342 5.38068H24.4638V8.80114ZM28.9013 10V4.18182H32.9581V5.32386H30.3075V6.51705H32.7507V7.66193H30.3075V8.85795H32.9581V10H28.9013Z" fill="white"/>
<rect width="45" height="12" transform="translate(38 1)" fill="#898E79"/>
<path d="M43.5909 10H41.4403V4.18182H43.5881C44.1809 4.18182 44.6913 4.2983 45.1193 4.53125C45.5492 4.76231 45.8807 5.09564 46.1136 5.53125C46.3466 5.96496 46.4631 6.4839 46.4631 7.08807C46.4631 7.69413 46.3466 8.21496 46.1136 8.65057C45.8826 9.08617 45.5521 9.42045 45.1222 9.65341C44.6922 9.88447 44.1818 10 43.5909 10ZM42.8466 8.80114H43.5369C43.8627 8.80114 44.1383 8.74621 44.3636 8.63636C44.5909 8.52462 44.7623 8.34375 44.8778 8.09375C44.9953 7.84186 45.054 7.50663 45.054 7.08807C45.054 6.66951 44.9953 6.33617 44.8778 6.08807C44.7604 5.83807 44.5871 5.65814 44.358 5.5483C44.1307 5.43655 43.8504 5.38068 43.517 5.38068H42.8466V8.80114ZM47.2841 10V4.18182H51.3409V5.32386H48.6903V6.51705H51.1335V7.66193H48.6903V8.85795H51.3409V10H47.2841ZM55.3665 5.92614C55.3475 5.7178 55.2633 5.55587 55.1136 5.44034C54.9659 5.32292 54.7547 5.2642 54.4801 5.2642C54.2983 5.2642 54.1468 5.28788 54.0256 5.33523C53.9044 5.38258 53.8134 5.44792 53.7528 5.53125C53.6922 5.61269 53.661 5.70644 53.6591 5.8125C53.6553 5.89962 53.6723 5.97633 53.7102 6.04261C53.75 6.1089 53.8068 6.16761 53.8807 6.21875C53.9564 6.26799 54.0473 6.31155 54.1534 6.34943C54.2595 6.38731 54.3788 6.42045 54.5114 6.44886L55.0114 6.5625C55.2992 6.625 55.553 6.70833 55.7727 6.8125C55.9943 6.91667 56.1799 7.04072 56.3295 7.18466C56.4811 7.3286 56.5956 7.49432 56.6733 7.68182C56.7509 7.86932 56.7907 8.07955 56.7926 8.3125C56.7907 8.67992 56.6979 8.99527 56.5142 9.25852C56.3305 9.52178 56.0663 9.72348 55.7216 9.86364C55.3788 10.0038 54.965 10.0739 54.4801 10.0739C53.9934 10.0739 53.5691 10.0009 53.2074 9.85511C52.8456 9.70928 52.5644 9.48769 52.3636 9.19034C52.1629 8.89299 52.0597 8.51705 52.054 8.0625H53.4006C53.4119 8.25 53.4621 8.40625 53.5511 8.53125C53.6402 8.65625 53.7623 8.75095 53.9176 8.81534C54.0748 8.87973 54.2566 8.91193 54.4631 8.91193C54.6525 8.91193 54.8134 8.88636 54.946 8.83523C55.0805 8.78409 55.1837 8.71307 55.2557 8.62216C55.3277 8.53125 55.3646 8.42708 55.3665 8.30966C55.3646 8.19981 55.3305 8.10606 55.2642 8.02841C55.1979 7.94886 55.0956 7.88068 54.9574 7.82386C54.821 7.76515 54.6468 7.71117 54.4347 7.66193L53.8267 7.51989C53.3229 7.40436 52.9261 7.2178 52.6364 6.96023C52.3466 6.70076 52.2027 6.35038 52.2045 5.90909C52.2027 5.54924 52.2992 5.2339 52.4943 4.96307C52.6894 4.69223 52.9593 4.48106 53.304 4.32955C53.6487 4.17803 54.0417 4.10227 54.483 4.10227C54.9337 4.10227 55.3248 4.17898 55.6562 4.33239C55.9896 4.4839 56.2481 4.69697 56.4318 4.97159C56.6155 5.24621 56.7093 5.56439 56.7131 5.92614H55.3665ZM57.5028 10V4.18182H58.9091V6.64205H58.9858L60.9091 4.18182H62.5653L60.5028 6.77841L62.6023 10H60.9205L59.4716 7.71307L58.9091 8.4233V10H57.5028ZM62.9297 5.32386V4.18182H67.8473V5.32386H66.0831V10H64.6967V5.32386H62.9297ZM73.7599 7.09091C73.7599 7.73106 73.6368 8.27367 73.3906 8.71875C73.1444 9.16383 72.8111 9.50189 72.3906 9.73295C71.9721 9.96402 71.5024 10.0795 70.9815 10.0795C70.4588 10.0795 69.9882 9.96307 69.5696 9.73011C69.151 9.49716 68.8187 9.15909 68.5724 8.71591C68.3281 8.27083 68.206 7.72917 68.206 7.09091C68.206 6.45076 68.3281 5.90814 68.5724 5.46307C68.8187 5.01799 69.151 4.67992 69.5696 4.44886C69.9882 4.2178 70.4588 4.10227 70.9815 4.10227C71.5024 4.10227 71.9721 4.2178 72.3906 4.44886C72.8111 4.67992 73.1444 5.01799 73.3906 5.46307C73.6368 5.90814 73.7599 6.45076 73.7599 7.09091ZM72.3224 7.09091C72.3224 6.71212 72.2685 6.39205 72.1605 6.13068C72.0545 5.86932 71.901 5.6714 71.7003 5.53693C71.5014 5.40246 71.2618 5.33523 70.9815 5.33523C70.7031 5.33523 70.4635 5.40246 70.2628 5.53693C70.062 5.6714 69.9077 5.86932 69.7997 6.13068C69.6937 6.39205 69.6406 6.71212 69.6406 7.09091C69.6406 7.4697 69.6937 7.78977 69.7997 8.05114C69.9077 8.3125 70.062 8.51042 70.2628 8.64489C70.4635 8.77936 70.7031 8.84659 70.9815 8.84659C71.2618 8.84659 71.5014 8.77936 71.7003 8.64489C71.901 8.51042 72.0545 8.3125 72.1605 8.05114C72.2685 7.78977 72.3224 7.4697 72.3224 7.09091ZM74.581 10V4.18182H76.9844C77.42 4.18182 77.7959 4.26705 78.1122 4.4375C78.4304 4.60606 78.6757 4.84186 78.848 5.14489C79.0204 5.44602 79.1065 5.7964 79.1065 6.19602C79.1065 6.59754 79.0185 6.94886 78.8423 7.25C78.6681 7.54924 78.419 7.78125 78.0952 7.94602C77.7713 8.1108 77.3868 8.19318 76.9418 8.19318H75.4588V7.08523H76.6804C76.8925 7.08523 77.0696 7.0483 77.2116 6.97443C77.3556 6.90057 77.4645 6.79735 77.5384 6.66477C77.6122 6.5303 77.6491 6.37405 77.6491 6.19602C77.6491 6.0161 77.6122 5.8608 77.5384 5.73011C77.4645 5.59754 77.3556 5.49527 77.2116 5.4233C77.0677 5.35133 76.8906 5.31534 76.6804 5.31534H75.9872V10H74.581Z" fill="white"/>
<defs>
<clipPath id="clip0_918_12244">
<rect width="12" height="12" fill="white" transform="translate(1 1)"/>
</clipPath>
</defs>
</svg>
