<?xml version="1.0" encoding="UTF-8" standalone="no"?>
<svg xmlns:svg="http://www.w3.org/2000/svg" xmlns="http://www.w3.org/2000/svg" xmlns:xlink="http://www.w3.org/1999/xlink" xmlns:sodipodi="http://sodipodi.sourceforge.net/DTD/sodipodi-0.dtd" xmlns:inkscape="http://www.inkscape.org/namespaces/inkscape" id="svg2" viewBox="0 0 288 224" version="1.1" sodipodi:docname="button.svg" inkscape:version="1.1-dev (d80adc983d, 2020-06-15)">
    <defs id="defs319">
        <linearGradient id="linearGradient1131" inkscape:collect="always">
            <stop id="stop1127" offset="0" style="stop-color:#000000;stop-opacity:0.1" />
            <stop id="stop1129" offset="1" style="stop-color:#ffffff;stop-opacity:0.1" />
        </linearGradient>
        <linearGradient gradientUnits="userSpaceOnUse" y2="144" x2="129" y1="166" x1="129" id="linearGradient1133" xlink:href="#linearGradient1131" inkscape:collect="always" />
    </defs>
    <sodipodi:namedview inkscape:snap-smooth-nodes="true" inkscape:snap-text-baseline="true" pagecolor="#ffffff" bordercolor="#666666" borderopacity="1" objecttolerance="10" gridtolerance="10" guidetolerance="10" inkscape:pageopacity="0" inkscape:pageshadow="2" inkscape:window-width="640" inkscape:window-height="480" id="namedview317" showgrid="false" inkscape:current-layer="svg2">
        <inkscape:grid type="xygrid" id="grid1136" />
    </sodipodi:namedview>
    <style type="text/css" id="current-color-scheme">
        .ColorScheme-Highlight {
            color:#3daee9;
            stop-color:#3daee9;
        }
        .ColorScheme-ButtonText {
            color:#232629;
            stop-color:#232629;
        }
        .ColorScheme-ButtonBackground {
            color:#eff0f1;
            stop-color:#eff0f1;
        }
        .ColorScheme-ButtonHover {
            color:#93cee9;
            stop-color:#93cee9;
        }
        .ColorScheme-ButtonFocus{
            color:#3daee9;
            stop-color:#3daee9;
        }
    </style>
    <g id="shadow-right" transform="translate(176,64)" fill-rule="evenodd">
        <path id="path1565-7-8" d="m 27,-12 h 3 v -22 h -3 z" fill-opacity="0.00392199" opacity="0.00100002" sodipodi:nodetypes="ccccc" />
        <path id="path1559" d="m 29,-34 v 22 h 1 v -22 z" opacity="0.15" />
    </g>
    <g id="toolbutton-focus-bottom" transform="translate(62)" fill-rule="evenodd">
        <path id="rect829-6-5-2-9-8" transform="scale(-1)" d="m-202-170h22v3h-22z" class="ColorScheme-ButtonBackground" fill="currentColor" fill-opacity=".003922" opacity=".001" />
        <path id="rect829-6-2-6-6-9-3" transform="scale(-1)" d="m-202-170h22v1h-22z" class="ColorScheme-ButtonFocus" fill="currentColor" />
        <path id="path1565-4-90-2-7" d="m180 170v1h22v-1z" class="ColorScheme-ButtonFocus" fill="currentColor" opacity=".2" />
    </g>
    <g id="toolbutton-focus-top" transform="matrix(1 0 0 -1 62 310)" fill-rule="evenodd">
        <path id="rect829-6-5-2-9-5-3" transform="scale(-1)" d="m-202-170h22v3h-22z" class="ColorScheme-ButtonBackground" fill="currentColor" fill-opacity=".003922" opacity=".001" />
        <path id="rect829-6-2-6-6-9-2-7" transform="scale(-1)" d="m-202-170h22v1h-22z" class="ColorScheme-ButtonFocus" fill="currentColor" />
        <path id="path1565-4-90-2-0-8" d="m180 170v1h22v-1z" class="ColorScheme-ButtonFocus" fill="currentColor" opacity=".2" />
    </g>
    <g id="toolbutton-focus-right" transform="matrix(0 -1 1 0 98 346)" fill-rule="evenodd">
        <path id="rect829-6-5-2-9-0-4" transform="scale(-1)" d="m-202-170h22v3h-22z" class="ColorScheme-ButtonBackground" fill="currentColor" fill-opacity=".003922" opacity=".001" />
        <path id="rect829-6-2-6-6-9-9-1" transform="scale(-1)" d="m-202-170h22v1h-22z" class="ColorScheme-ButtonFocus" fill="currentColor" />
        <path id="path1565-4-90-2-9-9" d="m180 170v1h22v-1z" class="ColorScheme-ButtonFocus" fill="currentColor" opacity=".2" />
    </g>
    <g id="toolbutton-focus-left" transform="matrix(0 -1 -1 0 408 346)" fill-rule="evenodd">
        <path id="rect829-6-5-2-9-0-1-9" transform="scale(-1)" d="m-202-170h22v3h-22z" class="ColorScheme-ButtonBackground" fill="currentColor" fill-opacity=".003922" opacity=".001" />
        <path id="rect829-6-2-6-6-9-9-0-8" transform="scale(-1)" d="m-202-170h22v1h-22z" class="ColorScheme-ButtonFocus" fill="currentColor" />
        <path id="path1565-4-90-2-9-3-8" d="m180 170v1h22v-1z" class="ColorScheme-ButtonFocus" fill="currentColor" opacity=".2" />
    </g>
    <path id="toolbutton-pressed-top" d="m242 178v3h22v-3z" class="ColorScheme-ButtonHover" fill="currentColor" fill-rule="evenodd" />
    <g id="shadow-bottom" transform="translate(176,64)" fill-rule="evenodd">
        <path id="path1565-7" d="m 4,-11 v 3 h 22 v -3 z" fill-opacity="0.00392199" opacity="0.00100002" sodipodi:nodetypes="ccccc" />
        <path id="path1565" d="m 4,-9 v 1 h 22 v -1 z" opacity="0.15" />
    </g>
    <g id="shadow-bottomleft" transform="translate(176,64)" fill-rule="evenodd">
        <path id="rect1509-7-9-6-1" d="m 0,-11 c 0,1.662 1.338,3 3,3 v -3 z" fill-opacity="0.00392199" opacity="0.00100002" sodipodi:nodetypes="cccc" />
        <path id="path1563" d="M 0.04102,-10.595703 C 0.23928,-9.128502 1.47674,-8 3,-8 V -9 H 2 C 1.0305,-9 0.2269,-9.682695 0.04102,-10.595703 Z" opacity="0.15" sodipodi:nodetypes="cccsc" />
    </g>
    <g id="shadow-bottomright" transform="translate(176,64)" fill-rule="evenodd">
        <path id="rect1509-7-9-6-2" d="m 27,-11 v 3 c 1.662,0 3,-1.338 3,-3 z" fill-opacity="0.00392199" opacity="0.00100002" sodipodi:nodetypes="cccc" />
        <path id="path1561" d="m 29,-11 c 0,1.108 -0.892,2 -2,2 v 1 c 1.662,0 3,-1.338 3,-3 z" opacity="0.15" sodipodi:nodetypes="ccccc" />
    </g>
    <g id="shadow-topright" transform="translate(176,64)" fill-rule="evenodd">
        <path id="rect1509-7-9-6" d="m 27,-35 h 3 c 0,-1.662 -1.338,-3 -3,-3 z" fill-opacity="0.00392199" opacity="0.00100002" sodipodi:nodetypes="cccc" />
        <path id="rect1509-5" d="M 27.4043,-37.958984 C 28.3173,-37.773102 29,-36.9695 29,-36 v 1 h 1 c 0,-1.523257 -1.1285,-2.760718 -2.5957,-2.958984 z" opacity="0.15" sodipodi:nodetypes="csccc" />
    </g>
    <path id="normal-center" d="m180 68h22v22h-22z" class="ColorScheme-ButtonBackground" fill="currentColor" fill-rule="evenodd" />
    <g id="normal-bottomleft" transform="translate(176 64)" fill-rule="evenodd">
        <path id="rect833-7-3" d="m0 28c0 1.108.892 2 2 2v-2z" class="ColorScheme-ButtonBackground" fill="currentColor" />
        <path id="path915" d="m0 28c0 1.108.892 2 2 2v-1c-.554 0-1-.446-1-1z" class="ColorScheme-ButtonText" fill="currentColor" opacity=".3" />
    </g>
    <g id="normal-bottom" transform="translate(176 64)" fill-rule="evenodd">
        <path id="rect829-6" transform="scale(-1)" d="m-26-30h22v2h-22z" class="ColorScheme-ButtonBackground" fill="currentColor" />
        <path id="rect829-6-2" transform="scale(-1)" d="m-26-30h22v1h-22z" class="ColorScheme-ButtonText" fill="currentColor" opacity=".3" />
    </g>
    <g id="normal-topleft" transform="matrix(1 0 0 -1 176 94)" fill-rule="evenodd">
        <path id="rect833-7-3-1" d="m0 28c0 1.108.892 2 2 2v-2z" class="ColorScheme-ButtonBackground" fill="currentColor" />
        <path id="path915-2" d="m0 28c0 1.108.892 2 2 2v-1c-.554 0-1-.446-1-1z" class="ColorScheme-ButtonText" fill="currentColor" opacity=".3" />
    </g>
    <g id="normal-top" transform="matrix(1 0 0 -1 176 94)" fill-rule="evenodd">
        <path id="rect829-6-0" transform="scale(-1)" d="m-26-30h22v2h-22z" class="ColorScheme-ButtonBackground" fill="currentColor" />
        <path id="rect829-6-2-9" transform="scale(-1)" d="m-26-30h22v1h-22z" class="ColorScheme-ButtonText" fill="currentColor" opacity=".3" />
    </g>
    <g id="normal-topright" transform="matrix(0 1 1 0 176 64)" fill-rule="evenodd">
        <path id="rect833-7-3-6" d="m0 28c0 1.108.892 2 2 2v-2z" class="ColorScheme-ButtonBackground" fill="currentColor" />
        <path id="path915-0" d="m0 28c0 1.108.892 2 2 2v-1c-.554 0-1-.446-1-1z" class="ColorScheme-ButtonText" fill="currentColor" opacity=".3" />
    </g>
    <g id="normal-right" transform="matrix(0 1 1 0 176 64)" fill-rule="evenodd">
        <path id="rect829-6-26" transform="scale(-1)" d="m-26-30h22v2h-22z" class="ColorScheme-ButtonBackground" fill="currentColor" />
        <path id="rect829-6-2-1" transform="scale(-1)" d="m-26-30h22v1h-22z" class="ColorScheme-ButtonText" fill="currentColor" opacity=".3" />
    </g>
    <g id="normal-bottomright" transform="matrix(-1 0 0 1 206 64)" fill-rule="evenodd">
        <path id="rect833-7-3-7" d="m0 28c0 1.108.892 2 2 2v-2z" class="ColorScheme-ButtonBackground" fill="currentColor" />
        <path id="path915-9" d="m0 28c0 1.108.892 2 2 2v-1c-.554 0-1-.446-1-1z" class="ColorScheme-ButtonText" fill="currentColor" opacity=".3" />
    </g>
    <g id="normal-left" transform="matrix(0 1 -1 0 206 64)" fill-rule="evenodd">
        <path id="rect829-6-26-0" transform="scale(-1)" d="m-26-30h22v2h-22z" class="ColorScheme-ButtonBackground" fill="currentColor" />
        <path id="rect829-6-2-1-2" transform="scale(-1)" d="m-26-30h22v1h-22z" class="ColorScheme-ButtonText" fill="currentColor" opacity=".3" />
    </g>
    <path style="stroke-width:0.999996" id="normal-hint-top-margin" d="m 190,64 h 2 v 4 h -2 z" fill="#ff00ff" fill-rule="evenodd" />
    <path style="stroke-width:0.999996" id="normal-hint-bottom-margin" d="m 190,90 h 2 v 4 h -2 z" fill="#ff00ff" fill-rule="evenodd" />
    <path style="stroke-width:0.999996" id="normal-hint-left-margin" d="m 176,78 h 4 v 2 h -4 z" fill="#ff00ff" fill-rule="evenodd" />
    <path style="stroke-width:0.999996" id="normal-hint-right-margin" d="m 202,78 h 4 v 2 h -4 z" fill="#ff00ff" fill-rule="evenodd" />
    <path id="mask-normal-center" d="m56 68h22v22h-22z" fill-rule="evenodd" />
    <path id="mask-normal-bottomright" d="m80 92v2c1.108 0 2-.892 2-2z" fill-rule="evenodd" />
    <path id="mask-normal-bottom" d="m56 92v2h22v-2z" fill-rule="evenodd" />
    <path id="mask-normal-bottomleft" d="m52 92c0 1.108.892 2 2 2v-2h-1z" fill-rule="evenodd" />
    <path id="mask-normal-right" d="m80 68v22h2v-22z" fill-rule="evenodd" />
    <path id="mask-normal-left" d="m52 68v22h2v-22z" fill-rule="evenodd" />
    <path id="mask-normal-topright" d="m80 64v2h2c0-1.108-.892-2-2-2z" fill-rule="evenodd" />
    <path id="mask-normal-top" d="m56 64v2h22v-2z" fill-rule="evenodd" />
    <path id="mask-normal-topleft" d="m54 64c-1.108 0-2 .892-2 2h2v-1z" fill-rule="evenodd" />
    <g id="hover-bottomleft" transform="translate(176 102)" fill-rule="evenodd">
        <path id="rect833-7-3-55" d="m0 28c0 1.108.892 2 2 2v-2z" class="ColorScheme-ButtonBackground" fill="currentColor" fill-opacity=".003922" opacity=".001" />
        <path id="path915-4" d="m0 28c0 1.108.892 2 2 2v-1c-.554 0-1-.446-1-1z" class="ColorScheme-ButtonHover" fill="currentColor" />
    </g>
    <g id="hover-bottom" transform="translate(176 102)" fill-rule="evenodd">
        <path id="rect829-6-5" transform="scale(-1)" d="m-26-30h22v2h-22z" class="ColorScheme-ButtonBackground" fill="currentColor" fill-opacity=".003922" opacity=".001" />
        <path id="rect829-6-2-6" transform="scale(-1)" d="m-26-30h22v1h-22z" class="ColorScheme-ButtonHover" fill="currentColor" />
    </g>
    <g id="hover-topleft" transform="matrix(1 0 0 -1 176 132)" fill-rule="evenodd">
        <path id="rect833-7-3-1-3" d="m0 28c0 1.108.892 2 2 2v-2z" class="ColorScheme-ButtonBackground" fill="currentColor" fill-opacity=".003922" opacity=".001" />
        <path id="path915-2-7" d="m0 28c0 1.108.892 2 2 2v-1c-.554 0-1-.446-1-1z" class="ColorScheme-ButtonHover" fill="currentColor" />
    </g>
    <g id="hover-top" transform="matrix(1 0 0 -1 176 132)" fill-rule="evenodd">
        <path id="rect829-6-0-5" transform="scale(-1)" d="m-26-30h22v2h-22z" class="ColorScheme-ButtonBackground" fill="currentColor" fill-opacity=".003922" opacity=".001" />
        <path id="rect829-6-2-9-2" transform="scale(-1)" d="m-26-30h22v1h-22z" class="ColorScheme-ButtonHover" fill="currentColor" />
    </g>
    <g id="hover-topright" transform="matrix(0 1 1 0 176 102)" fill-rule="evenodd">
        <path id="rect833-7-3-6-4" d="m0 28c0 1.108.892 2 2 2v-2z" class="ColorScheme-ButtonBackground" fill="currentColor" fill-opacity=".003922" opacity=".001" />
        <path id="path915-0-7" d="m0 28c0 1.108.892 2 2 2v-1c-.554 0-1-.446-1-1z" class="ColorScheme-ButtonHover" fill="currentColor" />
    </g>
    <g id="hover-right" transform="matrix(0 1 1 0 176 102)" fill-rule="evenodd">
        <path id="rect829-6-26-4" transform="scale(-1)" d="m-26-30h22v2h-22z" class="ColorScheme-ButtonBackground" fill="currentColor" fill-opacity=".003922" opacity=".001" />
        <path id="rect829-6-2-1-3" transform="scale(-1)" d="m-26-30h22v1h-22z" class="ColorScheme-ButtonHover" fill="currentColor" />
    </g>
    <g id="hover-bottomright" transform="matrix(-1 0 0 1 206 102)" fill-rule="evenodd">
        <path id="rect833-7-3-7-7" d="m0 28c0 1.108.892 2 2 2v-2z" class="ColorScheme-ButtonBackground" fill="currentColor" fill-opacity=".003922" opacity=".001" />
        <path id="path915-9-8" d="m0 28c0 1.108.892 2 2 2v-1c-.554 0-1-.446-1-1z" class="ColorScheme-ButtonHover" fill="currentColor" />
    </g>
    <g id="hover-left" transform="matrix(0 1 -1 0 206 102)" fill-rule="evenodd">
        <path id="rect829-6-26-0-8" transform="scale(-1)" d="m-26-30h22v2h-22z" class="ColorScheme-ButtonBackground" fill="currentColor" fill-opacity=".003922" opacity=".001" />
        <path id="rect829-6-2-1-2-8" transform="scale(-1)" d="m-26-30h22v1h-22z" class="ColorScheme-ButtonHover" fill="currentColor" />
    </g>
    <path id="pressed-center" d="m 180,182 h 22 v 22 h -22 z" class="ColorScheme-ButtonHover" fill="currentColor" fill-rule="evenodd" />
    <g id="pressed-bottomleft" transform="translate(176,178)" fill-rule="evenodd">
        <path id="rect833-7-3-55-1" d="m 0,28 c 0,1.108 0.892,2 2,2 v -2 z" class="ColorScheme-ButtonHover" fill="currentColor" />
        <path id="path915-4-7" d="m 0,28 c 0,1.108 0.892,2 2,2 V 29 C 1.446,29 1,28.554 1,28 Z" class="ColorScheme-ButtonText" fill="currentColor" opacity="0.3" />
    </g>
    <g id="pressed-bottom" transform="translate(176,178)" fill-rule="evenodd">
        <path id="rect829-6-5-1" transform="scale(-1)" d="m -26,-30 h 22 v 2 h -22 z" class="ColorScheme-ButtonHover" fill="currentColor" />
        <path id="rect829-6-2-6-1" transform="scale(-1)" d="m -26,-30 h 22 v 1 h -22 z" class="ColorScheme-ButtonText" fill="currentColor" opacity="0.3" />
    </g>
    <g id="pressed-topleft" transform="matrix(1,0,0,-1,176,208)" fill-rule="evenodd">
        <path id="rect833-7-3-1-3-9" d="m 0,28 c 0,1.108 0.892,2 2,2 v -2 z" class="ColorScheme-ButtonHover" fill="currentColor" />
        <path id="path915-2-7-7" d="m 0,28 c 0,1.108 0.892,2 2,2 V 29 C 1.446,29 1,28.554 1,28 Z" class="ColorScheme-ButtonText" fill="currentColor" opacity="0.3" />
    </g>
    <g id="pressed-top" transform="matrix(1,0,0,-1,176,208)" fill-rule="evenodd">
        <path id="rect829-6-0-5-6" transform="scale(-1)" d="m -26,-30 h 22 v 2 h -22 z" class="ColorScheme-ButtonHover" fill="currentColor" />
        <path id="rect829-6-2-9-2-7" transform="scale(-1)" d="m -26,-30 h 22 v 1 h -22 z" class="ColorScheme-ButtonText" fill="currentColor" opacity="0.3" />
    </g>
    <g id="pressed-topright" transform="matrix(0,1,1,0,176,178)" fill-rule="evenodd">
        <path id="rect833-7-3-6-4-6" d="m 0,28 c 0,1.108 0.892,2 2,2 v -2 z" class="ColorScheme-ButtonHover" fill="currentColor" />
        <path id="path915-0-7-5" d="m 0,28 c 0,1.108 0.892,2 2,2 V 29 C 1.446,29 1,28.554 1,28 Z" class="ColorScheme-ButtonText" fill="currentColor" opacity="0.3" />
    </g>
    <g id="pressed-right" transform="matrix(0,1,1,0,176,178)" fill-rule="evenodd">
        <path id="rect829-6-26-4-3" transform="scale(-1)" d="m -26,-30 h 22 v 2 h -22 z" class="ColorScheme-ButtonHover" fill="currentColor" />
        <path id="rect829-6-2-1-3-9" transform="scale(-1)" d="m -26,-30 h 22 v 1 h -22 z" class="ColorScheme-ButtonText" fill="currentColor" opacity="0.3" />
    </g>
    <g id="pressed-bottomright" transform="matrix(-1,0,0,1,206,178)" fill-rule="evenodd">
        <path id="rect833-7-3-7-7-8" d="m 0,28 c 0,1.108 0.892,2 2,2 v -2 z" class="ColorScheme-ButtonHover" fill="currentColor" />
        <path id="path915-9-8-1" d="m 0,28 c 0,1.108 0.892,2 2,2 V 29 C 1.446,29 1,28.554 1,28 Z" class="ColorScheme-ButtonText" fill="currentColor" opacity="0.3" />
    </g>
    <g id="pressed-left" transform="rotate(90,14,192)" fill-rule="evenodd">
        <path id="rect829-6-26-0-8-9" transform="scale(-1)" d="m -26,-30 h 22 v 2 h -22 z" class="ColorScheme-ButtonHover" fill="currentColor" />
        <path id="rect829-6-2-1-2-8-3" transform="scale(-1)" d="m -26,-30 h 22 v 1 h -22 z" class="ColorScheme-ButtonText" fill="currentColor" opacity="0.3" />
    </g>
    <path id="mask-focus-background-center" d="m56 144h22v22h-22z" fill-rule="evenodd" />
    <path id="mask-focus-background-bottomright" d="m80 168v2c1.108 0 2-.892 2-2z" fill-rule="evenodd" />
    <path id="mask-focus-background-bottom" d="m56 168v2h22v-2z" fill-rule="evenodd" />
    <path id="mask-focus-background-bottomleft" d="m52 168c0 1.108.892 2 2 2v-2h-1z" fill-rule="evenodd" />
    <path id="mask-focus-background-right" d="m80 144v22h2v-22z" fill-rule="evenodd" />
    <path id="mask-focus-background-left" d="m52 144v22h2v-22z" fill-rule="evenodd" />
    <path id="mask-focus-background-topright" d="m80 140v2h2c0-1.108-.892-2-2-2z" fill-rule="evenodd" />
    <path id="mask-focus-background-top" d="m56 140v2h22v-2z" fill-rule="evenodd" />
    <path id="mask-focus-background-topleft" d="m54 140c-1.108 0-2 .892-2 2h2v-1z" fill-rule="evenodd" />
    <path id="shadow-center" d="m 180,30 h 22 v 22 h -22 z" fill-opacity="0.00392199" fill-rule="evenodd" opacity="0.00100002" />
    <path sodipodi:nodetypes="ccccc" id="shadow-left" d="m 176,30 v 22 h 3 V 30 Z" fill-opacity="0.00392199" fill-rule="evenodd" opacity="0.00100002" />
    <path sodipodi:nodetypes="ccccc" id="shadow-top" d="m 180,26 v 3 h 22 v -3 z" fill-opacity="0.00392199" fill-rule="evenodd" opacity="0.00100002" />
    <path style="stroke-width:0.999997" id="shadow-hint-top-margin" d="m 190,26 h 2 v 1e-6 h -2 z" fill="#ff00ff" fill-rule="evenodd" />
    <path style="stroke-width:0.999997" id="shadow-hint-bottom-margin" d="m 190,55 h 2 v 1 h -2 z" fill="#ff00ff" fill-rule="evenodd" />
    <path style="stroke-width:0.999997" id="shadow-hint-right-margin" d="m 205,40 h 1 v 2 h -1 z" fill="#ff00ff" fill-rule="evenodd" />
    <path id="shadow-topleft" d="m 179,26 c -1.662,0 -3,1.338 -3,3 h 3 z" fill-opacity="0.00392199" fill-rule="evenodd" opacity="0.00100002" sodipodi:nodetypes="cccc" />
    <text id="text2130" x="36" y="82" font-family="Noto Sans" font-size="10" letter-spacing="0" text-anchor="end" word-spacing="0"><tspan id="tspan2128" x="36" y="82" font-size="10" text-anchor="end">normal</tspan></text>
    <text id="text2130-0" x="36" y="120" font-family="Noto Sans" font-size="10" letter-spacing="0" text-anchor="end" word-spacing="0"><tspan id="tspan2128-4" x="36" y="120" font-size="10" text-anchor="end">hover</tspan></text>
    <text id="text2130-0-2" x="36" y="158" font-family="Noto Sans" font-size="10" letter-spacing="0" text-anchor="end" word-spacing="0"><tspan id="tspan2128-4-9" x="36" y="158" font-size="10" text-anchor="end">focus</tspan></text>
    <text id="text2130-0-2-6" x="36" y="196" font-family="Noto Sans" font-size="10" letter-spacing="0" text-anchor="end" word-spacing="0"><tspan id="tspan2128-4-9-1" x="36" y="196" font-size="10" text-anchor="end">pressed</tspan></text>
    <text id="text2130-0-2-0" x="191" y="8" font-family="Noto Sans" font-size="10" letter-spacing="0" text-anchor="middle" word-spacing="0"><tspan id="tspan2128-4-9-4" x="191" y="8" font-size="10" text-anchor="middle">(default)</tspan></text>
    <text id="text2130-0-2-0-2" x="253" y="8" font-family="Noto Sans" font-size="10" letter-spacing="0" text-anchor="middle" word-spacing="0"><tspan id="tspan2128-4-9-4-2" x="253" y="8" font-size="10" text-anchor="middle">toolbutton</tspan></text>
    <text id="text2130-0-2-0-1" x="36" y="44" font-family="Noto Sans" font-size="10" letter-spacing="0" text-anchor="end" word-spacing="0"><tspan id="tspan2128-4-9-4-7" x="36" y="44" font-size="10" text-anchor="end">shadow</tspan></text>
    <text id="text2130-0-2-0-4" x="67" y="8" font-family="Noto Sans" font-size="10" letter-spacing="0" text-anchor="middle" word-spacing="0"><tspan id="tspan2128-4-9-4-3" x="67" y="8" font-size="10" text-anchor="middle">mask</tspan></text>
    <text id="text2130-0-2-0-4-1" x="129" y="8" font-family="Noto Sans" font-size="10" letter-spacing="0" text-anchor="middle" word-spacing="0"><tspan id="tspan2128-4-9-4-3-4" x="129" y="8" font-size="10" text-anchor="middle">background</tspan></text>
    <g id="toolbutton-hover-bottom" transform="translate(238 140)" fill-rule="evenodd">
        <path id="path1565-7-9" d="m4-11v3h22v-3z" fill-opacity=".003922" opacity=".001" />
        <path id="path1565-4" d="m4-9v1h22v-1z" class="ColorScheme-ButtonHover" fill="currentColor" />
    </g>
    <g id="toolbutton-hover-bottomright" transform="translate(238 140)" fill-rule="evenodd">
        <path id="rect1509-7-9-6-2-2" d="m27-8v-3h3c0 1.662-1.338 3-3 3z" fill-opacity=".003922" opacity=".001" />
        <path id="path1561-6" d="m29-11c0 1.108-.892 2-2 2v1c1.662 0 3-1.338 3-3z" class="ColorScheme-ButtonHover" fill="currentColor" />
    </g>
    <g id="toolbutton-hover-right" transform="translate(238 140)" fill-rule="evenodd">
        <path id="path1565-7-8-1" d="m27-12h3v-22h-3z" fill-opacity=".003922" opacity=".001" />
        <path id="path1559-2" d="m29-34v22h1v-22z" class="ColorScheme-ButtonHover" fill="currentColor" />
    </g>
    <g id="toolbutton-hover-top" transform="matrix(-1 0 0 -1 268 94)" fill-rule="evenodd">
        <path id="path1565-7-9-8" d="m4-11v3h22v-3z" fill-opacity=".003922" opacity=".001" />
        <path id="path1565-4-9" d="m4-9v1h22v-1z" class="ColorScheme-ButtonHover" fill="currentColor" />
    </g>
    <g id="toolbutton-hover-topleft" transform="matrix(-1 0 0 -1 268 94)" fill-rule="evenodd">
        <path id="rect1509-7-9-6-2-2-8" d="m27-8v-3h3c0 1.662-1.338 3-3 3z" fill-opacity=".003922" opacity=".001" />
        <path id="path1561-6-8" d="m29-11c0 1.108-.892 2-2 2v1c1.662 0 3-1.338 3-3z" class="ColorScheme-ButtonHover" fill="currentColor" />
    </g>
    <g id="toolbutton-hover-left" transform="matrix(-1 0 0 -1 268 94)" fill-rule="evenodd">
        <path id="path1565-7-8-1-6" d="m27-12h3v-22h-3z" fill-opacity=".003922" opacity=".001" />
        <path id="path1559-2-8" d="m29-34v22h1v-22z" class="ColorScheme-ButtonHover" fill="currentColor" />
    </g>
    <g id="toolbutton-hover-topright" transform="matrix(1 0 0 -1 238 94)" fill-rule="evenodd">
        <path id="rect1509-7-9-6-2-2-83" d="m27-8v-3h3c0 1.662-1.338 3-3 3z" fill-opacity=".003922" opacity=".001" />
        <path id="path1561-6-3" d="m29-11c0 1.108-.892 2-2 2v1c1.662 0 3-1.338 3-3z" class="ColorScheme-ButtonHover" fill="currentColor" />
    </g>
    <g id="toolbutton-hover-bottomleft" transform="matrix(-1 0 0 1 268 140)" fill-rule="evenodd">
        <path id="rect1509-7-9-6-2-2-0" d="m27-8v-3h3c0 1.662-1.338 3-3 3z" fill-opacity=".003922" opacity=".001" />
        <path id="path1561-6-4" d="m29-11c0 1.108-.892 2-2 2v1c1.662 0 3-1.338 3-3z" class="ColorScheme-ButtonHover" fill="currentColor" />
    </g>
    <path id="toolbutton-hover-center" d="m242 106h22v22h-22z" fill-opacity=".003922" fill-rule="evenodd" opacity=".001" />
    <g id="toolbutton-focus-bottomleft" fill-rule="evenodd">
        <path id="rect2974" d="m237 167c0 2.216 1.784 4 4 4v-1c-1.662 0-3-1.338-3-3z" class="ColorScheme-ButtonFocus" fill="currentColor" opacity=".2" />
        <path id="rect1509-7-9-6-2-2-0-8" d="m241 170v-3h-3c0 1.662 1.338 3 3 3z" fill-opacity=".003922" opacity=".001" />
        <path id="path1561-6-4-7" d="m239 167c0 1.108.892 2 2 2v1c-1.662 0-3-1.338-3-3z" class="ColorScheme-ButtonFocus" fill="currentColor" />
    </g>
    <path id="toolbutton-pressed-topleft" d="m241 178c-1.662 0-3 1.338-3 3h3v-2z" class="ColorScheme-ButtonHover" fill="currentColor" fill-rule="evenodd" />
    <path id="toolbutton-pressed-center" d="m242 182h22v22h-22z" class="ColorScheme-ButtonHover" fill="currentColor" fill-rule="evenodd" />
    <path id="toolbutton-pressed-bottom" d="m264 208v-3h-22v3z" class="ColorScheme-ButtonHover" fill="currentColor" fill-rule="evenodd" />
    <path id="toolbutton-pressed-bottomright" d="m265 208c1.662 0 3-1.338 3-3h-3v2z" class="ColorScheme-ButtonHover" fill="currentColor" fill-rule="evenodd" />
    <path id="toolbutton-pressed-right" d="m268 182h-3v22h3z" class="ColorScheme-ButtonHover" fill="currentColor" fill-rule="evenodd" />
    <path id="toolbutton-pressed-topright" d="m268 181c0-1.662-1.338-3-3-3v3h2z" class="ColorScheme-ButtonHover" fill="currentColor" fill-rule="evenodd" />
    <path id="toolbutton-pressed-left" d="m238 204h3v-22h-3z" class="ColorScheme-ButtonHover" fill="currentColor" fill-rule="evenodd" />
    <path id="toolbutton-pressed-bottomleft" d="m238 205c0 1.662 1.338 3 3 3v-3h-2z" class="ColorScheme-ButtonHover" fill="currentColor" fill-rule="evenodd" />
    <g id="focus-bottom" fill-rule="evenodd">
        <path id="rect829-6-5-2-9" transform="scale(-1)" d="m-202-170h22v2h-22z" class="ColorScheme-ButtonBackground" fill="currentColor" fill-opacity=".003922" opacity=".001" />
        <path id="rect829-6-2-6-6-9" transform="scale(-1)" d="m-202-170h22v1h-22z" class="ColorScheme-ButtonFocus" fill="currentColor" />
        <path id="path1565-4-90-2" d="m180 170v1h22v-1z" class="ColorScheme-ButtonFocus" fill="currentColor" opacity=".2" />
    </g>
    <g id="focus-bottomleft" fill-rule="evenodd">
        <path id="rect833-7-3-55-6-7" d="m176 168c0 1.108.892 2 2 2v-2z" class="ColorScheme-ButtonBackground" fill="currentColor" fill-opacity=".003922" opacity=".001" />
        <path id="path915-4-8-2" d="m176 168c0 1.108.892 2 2 2v-1c-.554 0-1-.446-1-1z" class="ColorScheme-ButtonFocus" fill="currentColor" />
        <path id="path1561-6-4-7-2" d="m176 168c0 1.108.892 2 2 2v1c-1.662 0-3-1.338-3-3z" class="ColorScheme-ButtonFocus" fill="currentColor" opacity=".2" />
    </g>
    <g id="focus-background-center">
        <path d="m118 144h22v22h-22z" class="ColorScheme-ButtonFocus" fill="currentColor" fill-rule="evenodd" />
        <rect y="144" x="118" height="22" width="22" id="the-thing" style="fill:url(#linearGradient1133);fill-rule:evenodd;fill-opacity:1" />
    </g>
    <g id="focus-background-bottomleft" transform="translate(114 140)" fill-rule="evenodd">
        <path id="rect833-7-3-55-1-3" d="m0 28c0 1.108.892 2 2 2v-2z" class="ColorScheme-ButtonFocus" fill="currentColor" />
        <path id="path915-4-7-1" d="m0 28c0 1.108.892 2 2 2v-1c-.554 0-1-.446-1-1z" class="ColorScheme-ButtonText" fill="currentColor" opacity=".3" />
    </g>
    <g id="focus-background-bottom" transform="translate(114 140)" fill-rule="evenodd">
        <path id="rect829-6-5-1-9" transform="scale(-1)" d="m-26-30h22v2h-22z" class="ColorScheme-ButtonFocus" fill="currentColor" />
        <path id="rect829-6-2-6-1-0" transform="scale(-1)" d="m-26-30h22v1h-22z" class="ColorScheme-ButtonText" fill="currentColor" opacity=".3" />
    </g>
    <g id="focus-background-topleft" transform="matrix(1 0 0 -1 114 170)" fill-rule="evenodd">
        <path id="rect833-7-3-1-3-9-6" d="m0 28c0 1.108.892 2 2 2v-2z" class="ColorScheme-ButtonFocus" fill="currentColor" />
        <path id="path915-2-7-7-7" d="m0 28c0 1.108.892 2 2 2v-1c-.554 0-1-.446-1-1z" class="ColorScheme-ButtonText" fill="currentColor" opacity=".3" />
    </g>
    <g id="focus-background-top" transform="matrix(1 0 0 -1 114 170)" fill-rule="evenodd">
        <path id="rect829-6-0-5-6-4" transform="scale(-1)" d="m-26-30h22v2h-22z" class="ColorScheme-ButtonFocus" fill="currentColor" />
        <path id="rect829-6-2-9-2-7-0" transform="scale(-1)" d="m-26-30h22v1h-22z" class="ColorScheme-ButtonText" fill="currentColor" opacity=".3" />
    </g>
    <g id="focus-background-topright" transform="matrix(0 1 1 0 114 140)" fill-rule="evenodd">
        <path id="rect833-7-3-6-4-6-4" d="m0 28c0 1.108.892 2 2 2v-2z" class="ColorScheme-ButtonFocus" fill="currentColor" />
        <path id="path915-0-7-5-7" d="m0 28c0 1.108.892 2 2 2v-1c-.554 0-1-.446-1-1z" class="ColorScheme-ButtonText" fill="currentColor" opacity=".3" />
    </g>
    <g id="focus-background-right" transform="matrix(0 1 1 0 114 140)" fill-rule="evenodd">
        <path id="rect829-6-26-4-3-8" transform="scale(-1)" d="m-26-30h22v2h-22z" class="ColorScheme-ButtonFocus" fill="currentColor" />
        <path id="rect829-6-2-1-3-9-5" transform="scale(-1)" d="m-26-30h22v1h-22z" class="ColorScheme-ButtonText" fill="currentColor" opacity=".3" />
    </g>
    <g id="focus-background-bottomright" transform="matrix(-1 0 0 1 144 140)" fill-rule="evenodd">
        <path id="rect833-7-3-7-7-8-2" d="m0 28c0 1.108.892 2 2 2v-2z" class="ColorScheme-ButtonFocus" fill="currentColor" />
        <path id="path915-9-8-1-6" d="m0 28c0 1.108.892 2 2 2v-1c-.554 0-1-.446-1-1z" class="ColorScheme-ButtonText" fill="currentColor" opacity=".3" />
    </g>
    <g id="focus-background-left" transform="matrix(0 1 -1 0 144 140)" fill-rule="evenodd">
        <path id="rect829-6-26-0-8-9-6" transform="scale(-1)" d="m-26-30h22v2h-22z" class="ColorScheme-ButtonFocus" fill="currentColor" />
        <path id="rect829-6-2-1-2-8-3-6" transform="scale(-1)" d="m-26-30h22v1h-22z" class="ColorScheme-ButtonText" fill="currentColor" opacity=".3" />
    </g>
    <g id="focus-topleft" transform="matrix(1 0 0 -1 0 310)" fill-rule="evenodd">
        <path id="rect833-7-3-55-6-7-6" d="m176 168c0 1.108.892 2 2 2v-2z" class="ColorScheme-ButtonBackground" fill="currentColor" fill-opacity=".003922" opacity=".001" />
        <path id="path915-4-8-2-0" d="m176 168c0 1.108.892 2 2 2v-1c-.554 0-1-.446-1-1z" class="ColorScheme-ButtonFocus" fill="currentColor" />
        <path id="path1561-6-4-7-2-7" d="m176 168c0 1.108.892 2 2 2v1c-1.662 0-3-1.338-3-3z" class="ColorScheme-ButtonFocus" fill="currentColor" opacity=".2" />
    </g>
    <g id="focus-topright" transform="matrix(-1 0 0 -1 382 310)" fill-rule="evenodd">
        <path id="rect833-7-3-55-6-7-1" d="m176 168c0 1.108.892 2 2 2v-2z" class="ColorScheme-ButtonBackground" fill="currentColor" fill-opacity=".003922" opacity=".001" />
        <path id="path915-4-8-2-01" d="m176 168c0 1.108.892 2 2 2v-1c-.554 0-1-.446-1-1z" class="ColorScheme-ButtonFocus" fill="currentColor" />
        <path id="path1561-6-4-7-2-3" d="m176 168c0 1.108.892 2 2 2v1c-1.662 0-3-1.338-3-3z" class="ColorScheme-ButtonFocus" fill="currentColor" opacity=".2" />
    </g>
    <g id="focus-bottomright" transform="matrix(-1 0 0 1 382 0)" fill-rule="evenodd">
        <path id="rect833-7-3-55-6-7-7" d="m176 168c0 1.108.892 2 2 2v-2z" class="ColorScheme-ButtonBackground" fill="currentColor" fill-opacity=".003922" opacity=".001" />
        <path id="path915-4-8-2-2" d="m176 168c0 1.108.892 2 2 2v-1c-.554 0-1-.446-1-1z" class="ColorScheme-ButtonFocus" fill="currentColor" />
        <path id="path1561-6-4-7-2-6" d="m176 168c0 1.108.892 2 2 2v1c-1.662 0-3-1.338-3-3z" class="ColorScheme-ButtonFocus" fill="currentColor" opacity=".2" />
    </g>
    <g id="focus-top" transform="matrix(1 0 0 -1 0 310)" fill-rule="evenodd">
        <path id="rect829-6-5-2-9-5" transform="scale(-1)" d="m-202-170h22v2h-22z" class="ColorScheme-ButtonBackground" fill="currentColor" fill-opacity=".003922" opacity=".001" />
        <path id="rect829-6-2-6-6-9-2" transform="scale(-1)" d="m-202-170h22v1h-22z" class="ColorScheme-ButtonFocus" fill="currentColor" />
        <path id="path1565-4-90-2-0" d="m180 170v1h22v-1z" class="ColorScheme-ButtonFocus" fill="currentColor" opacity=".2" />
    </g>
    <g id="focus-right" transform="matrix(0 -1 1 0 36 346)" fill-rule="evenodd">
        <path id="rect829-6-5-2-9-0" transform="scale(-1)" d="m-202-170h22v2h-22z" class="ColorScheme-ButtonBackground" fill="currentColor" fill-opacity=".003922" opacity=".001" />
        <path id="rect829-6-2-6-6-9-9" transform="scale(-1)" d="m-202-170h22v1h-22z" class="ColorScheme-ButtonFocus" fill="currentColor" />
        <path id="path1565-4-90-2-9" d="m180 170v1h22v-1z" class="ColorScheme-ButtonFocus" fill="currentColor" opacity=".2" />
    </g>
    <g id="focus-left" transform="matrix(0 -1 -1 0 346 346)" fill-rule="evenodd">
        <path id="rect829-6-5-2-9-0-1" transform="scale(-1)" d="m-202-170h22v2h-22z" class="ColorScheme-ButtonBackground" fill="currentColor" fill-opacity=".003922" opacity=".001" />
        <path id="rect829-6-2-6-6-9-9-0" transform="scale(-1)" d="m-202-170h22v1h-22z" class="ColorScheme-ButtonFocus" fill="currentColor" />
        <path id="path1565-4-90-2-9-3" d="m180 170v1h22v-1z" class="ColorScheme-ButtonFocus" fill="currentColor" opacity=".2" />
    </g>
    <g id="toolbutton-focus-topleft" transform="matrix(1 0 0 -1 0 310)" fill-rule="evenodd">
        <path id="rect2974-6" d="m237 167c0 2.216 1.784 4 4 4v-1c-1.662 0-3-1.338-3-3z" class="ColorScheme-ButtonFocus" fill="currentColor" opacity=".2" />
        <path id="rect1509-7-9-6-2-2-0-8-7" d="m241 170v-3h-3c0 1.662 1.338 3 3 3z" fill-opacity=".003922" opacity=".001" />
        <path id="path1561-6-4-7-6" d="m239 167c0 1.108.892 2 2 2v1c-1.662 0-3-1.338-3-3z" class="ColorScheme-ButtonFocus" fill="currentColor" />
    </g>
    <g id="toolbutton-focus-topright" transform="matrix(-1 0 0 -1 506 310)" fill-rule="evenodd">
        <path id="rect2974-9" d="m237 167c0 2.216 1.784 4 4 4v-1c-1.662 0-3-1.338-3-3z" class="ColorScheme-ButtonFocus" fill="currentColor" opacity=".2" />
        <path id="rect1509-7-9-6-2-2-0-8-75" d="m241 170v-3h-3c0 1.662 1.338 3 3 3z" fill-opacity=".003922" opacity=".001" />
        <path id="path1561-6-4-7-9" d="m239 167c0 1.108.892 2 2 2v1c-1.662 0-3-1.338-3-3z" class="ColorScheme-ButtonFocus" fill="currentColor" />
    </g>
    <g id="toolbutton-focus-bottomright" transform="matrix(-1 0 0 1 506 0)" fill-rule="evenodd">
        <path id="rect2974-8" d="m237 167c0 2.216 1.784 4 4 4v-1c-1.662 0-3-1.338-3-3z" class="ColorScheme-ButtonFocus" fill="currentColor" opacity=".2" />
        <path id="rect1509-7-9-6-2-2-0-8-5" d="m241 170v-3h-3c0 1.662 1.338 3 3 3z" fill-opacity=".003922" opacity=".001" />
        <path id="path1561-6-4-7-3" d="m239 167c0 1.108.892 2 2 2v1c-1.662 0-3-1.338-3-3z" class="ColorScheme-ButtonFocus" fill="currentColor" />
    </g>
    <path id="hover-center" d="m180 106h22v22h-22z" fill-opacity=".003922" fill-rule="evenodd" opacity=".001" />
    <rect id="hover-hint-top-margin" x="190" y="102" width="2" height="0.001" fill="#ff00ff" fill-rule="evenodd" />
    <rect id="hover-hint-bottom-margin" x="190" y="131" width="2" height="0.001" fill="#ff00ff" fill-rule="evenodd" />
    <rect id="hover-hint-right-margin" x="205" y="116" width="0.001" height="2" fill="#ff00ff" fill-rule="evenodd" />
    <path id="focus-hint-top-margin" d="m 190,139 h 2 v 1 h -2 z" fill="#ff00ff" fill-rule="evenodd" />
    <path id="focus-hint-bottom-margin" d="m 190,170 h 2 v 1 h -2 z" fill="#ff00ff" fill-rule="evenodd" />
    <path id="focus-hint-left-margin" d="m 175,154 h 1 v 2 h -1 z" fill="#ff00ff" fill-rule="evenodd" />
    <path id="focus-hint-right-margin" d="m 206,154 h 1 v 2 h -1 z" fill="#ff00ff" fill-rule="evenodd" />
    <path style="stroke-width:0.999996" id="pressed-hint-top-margin" d="m 190,178 h 2 v 4 h -2 z" fill="#ff00ff" fill-rule="evenodd" />
    <path style="stroke-width:0.999996" id="pressed-hint-bottom-margin" d="m 190,204 h 2 v 4 h -2 z" fill="#ff00ff" fill-rule="evenodd" />
    <path style="stroke-width:0.999996" id="pressed-hint-left-margin" d="m 176,192 h 4 v 2 h -4 z" fill="#ff00ff" fill-rule="evenodd" />
    <path style="stroke-width:0.999996" id="pressed-hint-right-margin" d="m 200,192 h 4 v 2 h -4 z" fill="#ff00ff" fill-rule="evenodd" />
    <rect id="toolbutton-hover-hint-top-margin" x="252" y="102" width="2" height="0.001" fill="#ff00ff" fill-rule="evenodd" />
    <rect id="toolbutton-hover-hint-bottom-margin" x="252" y="131" width="2" height="0.001" fill="#ff00ff" fill-rule="evenodd" />
    <rect id="toolbutton-hover-hint-right-margin" x="267" y="116" width="0.001" height="2" fill="#ff00ff" fill-rule="evenodd" />
    <path id="toolbutton-focus-hint-top-margin" d="m 252,139 h 2 v 1 h -2 z" fill="#ff00ff" fill-rule="evenodd" />
    <path id="toolbutton-focus-hint-bottom-margin" d="m 252,170 h 2 v 1 h -2 z" fill="#ff00ff" fill-rule="evenodd" />
    <path id="toolbutton-focus-hint-left-margin" d="m 237,154 h 1 v 2 h -1 z" fill="#ff00ff" fill-rule="evenodd" />
    <path id="toolbutton-focus-hint-right-margin" d="m 268,154 h 1 v 2 h -1 z" fill="#ff00ff" fill-rule="evenodd" />
    <path style="stroke-width:0.999996" id="toolbutton-pressed-hint-top-margin" d="m 252,178 h 2 v 4 h -2 z" fill="#ff00ff" fill-rule="evenodd" />
    <path style="stroke-width:0.999996" id="toolbutton-pressed-hint-bottom-margin" d="m 252,204 h 2 v 4 h -2 z" fill="#ff00ff" fill-rule="evenodd" />
    <path style="stroke-width:0.999996" id="toolbutton-pressed-hint-left-margin" d="m 238,192 h 4 v 2 h -4 z" fill="#ff00ff" fill-rule="evenodd" />
    <path style="stroke-width:0.999996" id="toolbutton-pressed-hint-right-margin" d="m 264,192 h 4 v 2 h -4 z" fill="#ff00ff" fill-rule="evenodd" />
    <path style="stroke-width:0.999996" id="focus-background-hint-top-margin" d="m 128,140 h 2 v 4 h -2 z" fill="#ff00ff" fill-rule="evenodd" />
    <path style="stroke-width:0.999996" id="focus-background-hint-bottom-margin" d="m 128,166 h 2 v 4 h -2 z" fill="#ff00ff" fill-rule="evenodd" />
    <path style="stroke-width:0.999996" id="focus-background-hint-left-margin" d="m 114,154 h 4 v 2 h -4 z" fill="#ff00ff" fill-rule="evenodd" />
    <path style="stroke-width:0.999996" id="focus-background-hint-right-margin" d="m 140,154 h 4 v 2 h -4 z" fill="#ff00ff" fill-rule="evenodd" />
    <path id="rect1134" d="m8e-6 -64h87.999992v24h-87.999992z" fill="#f0f" fill-rule="evenodd" />
    <text id="text2130-0-2-0-4-7" x="44.000008" y="-48" font-family="Noto Sans" font-size="10" letter-spacing="0" text-anchor="middle" word-spacing="0"><tspan id="tspan2128-4-9-4-3-5" x="44.000008" y="-48" font-size="10" text-anchor="middle">margin hint</tspan></text>
    <path id="rect1134-3" d="m8e-6 -88h87.999992v24h-87.999992z" fill="#ff0" fill-rule="evenodd" />
    <text id="text2130-0-2-0-4-7-5" x="44.000008" y="-72" font-family="Noto Sans" font-size="10" letter-spacing="0" text-anchor="middle" word-spacing="0"><tspan id="tspan2128-4-9-4-3-5-6" x="44.000008" y="-72" font-size="10" text-anchor="middle">simulated area</tspan></text>
    <path style="stroke-width:1" id="pressed-hint-compose-over-border" d="m -8,192 h 3.9999999 v 4 H -8 Z" fill="#00ff00" fill-rule="evenodd" />
    <path id="rect1134-36" d="m8e-6 -40h87.999992v24h-87.999992z" fill="#0f0" fill-rule="evenodd" />
    <text id="text2130-0-2-0-4-7-0" x="44.000008" y="-24" font-family="Noto Sans" font-size="10" letter-spacing="0" text-anchor="middle" word-spacing="0"><tspan id="tspan2128-4-9-4-3-5-62" x="44.000008" y="-24" font-size="10" text-anchor="middle">other hint</tspan></text>
    <text style="text-align:start;text-anchor:start" word-spacing="0" text-anchor="middle" letter-spacing="0" font-size="10px" font-family="'Noto Sans'" y="-48" x="96" id="text2130-0-2-0-4-7-3"><tspan style="text-align:start;text-anchor:start" text-anchor="middle" font-size="10px" y="-48" x="96" id="tspan2128-4-9-4-3-5-67">NOTE: Some margin hints have 0.001 width or height because you can't use exactly 0</tspan></text>
    <path opacity="0.00100002" fill-rule="evenodd" fill-opacity="0.00392199" d="m 180,144 h 22 v 22 h -22 z" id="focus-center" />
    <path opacity="0.00100002" fill-rule="evenodd" fill-opacity="0.00392199" d="m 242,144 h 22 v 22 h -22 z" id="toolbutton-focus-center" />
    <rect style="fill:#ff00ff;fill-rule:evenodd;stroke-width:1;fill-opacity:1" id="shadow-hint-left-margin" width="0.001" height="2" x="176" y="40" />
    <rect y="116" x="176" height="2" width="0.001" id="hover-hint-left-margin" style="fill:#ff00ff;fill-opacity:1;fill-rule:evenodd;stroke-width:1" />
    <rect style="fill:#ff00ff;fill-opacity:1;fill-rule:evenodd;stroke-width:1" id="toolbutton-hover-hint-left-margin" width="0.001" height="2" x="238" y="116" />
</svg>
