<?xml version="1.0" encoding="UTF-8" standalone="no"?>
<svg
   id="svg600"
   style=""
   viewBox="0 0 288 224"
   sodipodi:docname="button.svg"
   inkscape:version="1.3.2 (091e20e, 2023-11-25)"
   version="1.1"
   xmlns:inkscape="http://www.inkscape.org/namespaces/inkscape"
   xmlns:sodipodi="http://sodipodi.sourceforge.net/DTD/sodipodi-0.dtd"
   xmlns:xlink="http://www.w3.org/1999/xlink"
   xmlns="http://www.w3.org/2000/svg"
   xmlns:svg="http://www.w3.org/2000/svg">
  <defs
     id="defs354">
    <linearGradient
       inkscape:collect="always"
       id="linearGradient6">
      <stop
         style="stop-color:#000000;stop-opacity:0.25;"
         offset="0.60000002"
         id="stop1" />
      <stop
         style="stop-color:#000000;stop-opacity:0.1000000015;"
         offset="0.74999958"
         id="stop2" />
      <stop
         style="stop-color:#000000;stop-opacity:0.05;"
         offset="0.81574166"
         id="stop4" />
      <stop
         style="stop-color:#000000;stop-opacity:0;"
         offset="1"
         id="stop6" />
    </linearGradient>
    <linearGradient
       id="linearGradient10"
       inkscape:collect="always">
      <stop
         style="stop-color:#000000;stop-opacity:1;"
         offset="0"
         id="stop10" />
      <stop
         style="stop-color:#000000;stop-opacity:0;"
         offset="1"
         id="stop15" />
    </linearGradient>
    <linearGradient
       inkscape:collect="always"
       id="linearGradient19">
      <stop
         style="stop-color:#000000;stop-opacity:0.05;"
         offset="0.71428537"
         id="stop17" />
      <stop
         style="stop-color:#000000;stop-opacity:0;"
         offset="1"
         id="stop19" />
    </linearGradient>
    <linearGradient
       inkscape:collect="always"
       id="linearGradient2888">
      <stop
         style="stop-color:#000000;stop-opacity:0.0500000007;"
         offset="0"
         id="stop2884" />
      <stop
         style="stop-color:#000000;stop-opacity:0;"
         offset="1"
         id="stop2886" />
    </linearGradient>
    <linearGradient
       inkscape:collect="always"
       id="linearGradient20110">
      <stop
         style="stop-color:#000000;stop-opacity:0.200000003;"
         offset="0"
         id="stop20100" />
      <stop
         style="stop-color:#000000;stop-opacity:0.1000000015;"
         offset="0.3333333433"
         id="stop20102" />
      <stop
         style="stop-color:#000000;stop-opacity:0.0470588235;"
         offset="0.5"
         id="stop1754" />
      <stop
         style="stop-color:#000000;stop-opacity:0;"
         offset="1"
         id="stop20108" />
    </linearGradient>
    <linearGradient
       inkscape:collect="always"
       xlink:href="#linearGradient2888"
       id="linearGradient6095"
       x1="28.333332"
       y1="-23"
       x2="30"
       y2="-23"
       gradientUnits="userSpaceOnUse"
       gradientTransform="matrix(0.79999991,0,0,0.78409091,6.3333367,-4.4659083)" />
    <linearGradient
       inkscape:collect="always"
       xlink:href="#linearGradient2888"
       id="linearGradient8469"
       x1="174.99998"
       y1="41"
       x2="173.33333"
       y2="41"
       gradientUnits="userSpaceOnUse"
       gradientTransform="matrix(1.5000009,0,0,0.81818182,-88.500141,7.4545454)" />
    <linearGradient
       inkscape:collect="always"
       xlink:href="#linearGradient20110"
       id="linearGradient11337"
       x1="15"
       y1="-11"
       x2="15"
       y2="-6"
       gradientUnits="userSpaceOnUse"
       gradientTransform="matrix(0.81818182,0,0,1,2.7272727,0)" />
    <radialGradient
       inkscape:collect="always"
       xlink:href="#linearGradient19"
       id="radialGradient13221"
       cx="203.625"
       cy="28.5"
       fx="203.625"
       fy="28.5"
       r="2.25"
       gradientUnits="userSpaceOnUse"
       gradientTransform="matrix(3.1111111,1.3333338e-7,-1.920578e-7,2.2222223,-430.49999,-34.333362)" />
    <radialGradient
       inkscape:collect="always"
       xlink:href="#linearGradient6"
       id="radialGradient3"
       gradientUnits="userSpaceOnUse"
       gradientTransform="matrix(-2.8888811,0,7.3628023e-8,-3.555555,691.14442,253.88886)"
       cx="177.28125"
       cy="56.5"
       fx="177.28125"
       fy="56.5"
       r="2.25" />
    <radialGradient
       inkscape:collect="always"
       xlink:href="#linearGradient19"
       id="radialGradient4"
       gradientUnits="userSpaceOnUse"
       gradientTransform="matrix(-3.1111111,1.3333338e-7,1.920578e-7,2.2222223,812.49999,-34.333362)"
       cx="203.625"
       cy="28.5"
       fx="203.625"
       fy="28.5"
       r="2.25" />
    <linearGradient
       inkscape:collect="always"
       xlink:href="#linearGradient10"
       id="linearGradient15"
       x1="246"
       y1="117"
       x2="260"
       y2="117"
       gradientUnits="userSpaceOnUse" />
    <radialGradient
       inkscape:collect="always"
       xlink:href="#linearGradient6"
       id="radialGradient6"
       gradientUnits="userSpaceOnUse"
       gradientTransform="matrix(2.8888811,0,-7.3628023e-8,-3.555555,-309.14442,253.88886)"
       cx="177.28125"
       cy="56.5"
       fx="177.28125"
       fy="56.5"
       r="2.25" />
  </defs>
  <sodipodi:namedview
     id="namedview352"
     pagecolor="#ffffff"
     bordercolor="#111111"
     borderopacity="1"
     inkscape:pageshadow="0"
     inkscape:pageopacity="0"
     inkscape:pagecheckerboard="1"
     inkscape:blackoutopacity="0.0"
     showgrid="true"
     inkscape:current-layer="layer4"
     inkscape:showpageshadow="2"
     inkscape:deskcolor="#d1d1d1"
     inkscape:zoom="16"
     inkscape:cx="192.6875"
     inkscape:cy="161.25"
     inkscape:window-width="2560"
     inkscape:window-height="1374"
     inkscape:window-x="0"
     inkscape:window-y="0"
     inkscape:window-maximized="1"
     showguides="true">
    <inkscape:grid
       type="xygrid"
       id="grid1173"
       originx="0"
       originy="0"
       spacingy="1"
       spacingx="1"
       units="px"
       visible="true"
       empspacing="5"
       color="#e50000"
       opacity="0.101961"
       empcolor="#e50000"
       empopacity="0.25098039" />
  </sodipodi:namedview>
  <style
     type="text/css"
     id="current-color-scheme">.ColorScheme-Highlight { color:#3daee9;            stop-color:#3daee9; }
.ColorScheme-ButtonText { color:#232629;            stop-color:#232629; }
.ColorScheme-ButtonBackground { color:#eff0f1;            stop-color:#eff0f1; }
.ColorScheme-ButtonHover { color:#3daee9;            stop-color:#3daee9; }
.ColorScheme-ButtonFocus { color:#3daee9;            stop-color:#3daee9; }
</style>
  <linearGradient
     id="a"
     gradientUnits="userSpaceOnUse"
     style="">
    <stop
       id="stop3"
       offset="0"
       style="stop-opacity:.027451" />
    <stop
       id="stop5"
       offset="1"
       style="stop-color:#fff;stop-opacity:.03" />
  </linearGradient>
  <linearGradient
     id="b"
     gradientUnits="userSpaceOnUse"
     style=""
     x1="191"
     x2="191"
     y1="90"
     y2="68"
     gradientTransform="matrix(0.81818182,0,0,0.81818182,34.727273,14.363636)">
    <stop
       id="stop3036"
       offset="0"
       style="stop-opacity:.027451" />
    <stop
       id="stop3042"
       offset=".5"
       style="stop-color:#7f7f7f;stop-opacity:0" />
    <stop
       id="stop3038"
       offset="1"
       style="stop-color:#fff;stop-opacity:.03" />
  </linearGradient>
  <linearGradient
     id="c"
     style=""
     x1="15"
     x2="15"
     xlink:href="#a"
     y1="-4"
     y2="-30" />
  <linearGradient
     id="d"
     gradientTransform="matrix(.09090909 0 0 11 11.63636 -700)"
     style=""
     x1="191.000045776"
     x2="191.000045776"
     xlink:href="#a"
     y1="66"
     y2="64" />
  <linearGradient
     id="e"
     style=""
     x1="15"
     x2="15"
     xlink:href="#a"
     y1="30"
     y2="4.000019" />
  <linearGradient
     id="g"
     gradientTransform="matrix(.09090909 0 0 11 -46.36364 -700)"
     style=""
     x1="191.00005"
     x2="191.00005"
     xlink:href="#a"
     y1="66.181816"
     y2="63.81818" />
  <g
     inkscape:groupmode="layer"
     id="layer7"
     inkscape:label="toolbutton-pressed"
     style="display:inline">
    <g
       id="toolbutton-pressed-top"
       style="fill:currentColor"
       class="ColorScheme-Highlight">
      <path
         id="path448"
         d="m 244,178 h 18 v 5 h -18 z"
         style="fill-opacity:0.33"
         class="ColorScheme-Highlight"
         inkscape:label="fg"
         sodipodi:nodetypes="ccccc" />
      <path
         id="path446"
         d="m 244,178 v 1 h 18 v -1 z"
         class="ColorScheme-Highlight"
         inkscape:label="border"
         sodipodi:nodetypes="ccccc" />
    </g>
    <path
       id="toolbutton-pressed-center"
       d="m 244,184 h 18 v 18 h -18 z"
       style="fill:currentColor;fill-opacity:0.33"
       class="ColorScheme-Highlight"
       sodipodi:nodetypes="ccccc" />
    <g
       id="toolbutton-pressed-topleft"
       style="fill:currentColor"
       class="ColorScheme-Highlight">
      <path
         id="path584"
         d="m 243,178 c -2.76142,0 -5,2.23858 -5,5 h 5 z"
         style="opacity:0.33"
         inkscape:label="fg" />
      <path
         id="path586"
         d="m 243,178 c -2.77,0 -5,2.23 -5,5 h 1 a 4.000102,4.000102 0 0 1 4,-4 z"
         inkscape:label="border" />
    </g>
    <use
       x="0"
       y="0"
       xlink:href="#toolbutton-pressed-topleft"
       id="toolbutton-pressed-bottomleft"
       transform="rotate(-90,253,193)"
       inkscape:label="toolbutton-pressed-bottomleft" />
    <use
       x="0"
       y="0"
       xlink:href="#toolbutton-pressed-topleft"
       id="toolbutton-pressed-topright"
       transform="matrix(-1,0,0,1,506,0)"
       inkscape:label="toolbutton-pressed-topright" />
    <use
       x="0"
       y="0"
       xlink:href="#toolbutton-pressed-topleft"
       id="toolbutton-pressed-bottomright"
       transform="rotate(180,253,193)"
       inkscape:label="toolbutton-pressed-bottomright" />
    <use
       x="0"
       y="0"
       xlink:href="#toolbutton-pressed-top"
       id="toolbutton-pressed-left"
       transform="rotate(-90,253,193)"
       inkscape:label="toolbutton-pressed-left" />
    <use
       x="0"
       y="0"
       xlink:href="#toolbutton-pressed-top"
       id="toolbutton-pressed-bottom"
       transform="matrix(1,0,0,-1,0,386)"
       inkscape:label="toolbutton-pressed-bottom" />
    <use
       x="0"
       y="0"
       xlink:href="#toolbutton-pressed-top"
       id="toolbutton-pressed-right"
       transform="rotate(90,253,193)"
       inkscape:label="toolbutton-pressed-right" />
    <path
       id="toolbutton-pressed-hint-top-margin"
       d="m 252,178 h 2 v 4 h -2 z"
       style="fill:#ff00ff"
       sodipodi:nodetypes="ccccc" />
    <path
       id="toolbutton-pressed-hint-bottom-margin"
       d="m 252,204 h 2 v 4 h -2 z"
       style="fill:#ff00ff"
       sodipodi:nodetypes="ccccc" />
    <path
       id="toolbutton-pressed-hint-left-margin"
       d="m 238,192 h 4 v 2 h -4 z"
       style="fill:#ff00ff"
       sodipodi:nodetypes="ccccc" />
    <path
       id="toolbutton-pressed-hint-right-margin"
       d="m 264,192 h 4 v 2 h -4 z"
       style="fill:#ff00ff"
       sodipodi:nodetypes="ccccc" />
  </g>
  <g
     inkscape:groupmode="layer"
     id="layer8"
     inkscape:label="toolbutton-focus"
     style="display:inline">
    <g
       id="toolbutton-focus-top"
       style="fill:currentColor"
       transform="matrix(1,0,0,-1,62,310)"
       class="ColorScheme-Highlight">
      <path
         id="path100-3-6-5-06-2"
         d="m 200,165 h -18 v 5 h 18 z"
         sodipodi:nodetypes="ccccc"
         style="opacity:0.00100002"
         inkscape:label="hint" />
      <path
         id="path372"
         d="m 182,170 v 2 h 18 v -2 z"
         style="opacity:0.33"
         inkscape:label="outline"
         sodipodi:nodetypes="ccccc" />
      <path
         id="path370"
         d="m 200,170 h -18 v -1 h 18 z"
         inkscape:label="border"
         sodipodi:nodetypes="ccccc" />
    </g>
    <g
       id="toolbutton-focus-topleft"
       style="fill:currentColor"
       transform="matrix(1,0,0,-1,0,310)"
       class="ColorScheme-Highlight">
      <path
         id="path100-3-6-5-0-5-6-1"
         d="m 238,170 h 5 v -5 h -5 z"
         sodipodi:nodetypes="ccccc"
         style="opacity:0.00100002;fill:currentColor;fill-rule:evenodd;stroke-width:0.589255"
         inkscape:label="hint" />
      <path
         id="path410"
         style="display:inline;fill-opacity:0.33"
         d="m 243,172 c -3.86599,0 -7,-3.13401 -7,-7 h 2 a 5,5 0 0 0 5,5 z"
         inkscape:label="outline" />
      <path
         id="path412"
         d="m 243,170 c -2.77,0 -5,-2.23 -5,-5 h 1 a 4,4 0 0 0 4,4 z"
         inkscape:label="border" />
    </g>
    <path
       id="toolbutton-focus-center"
       d="m 244,164 h 18 v -18 h -18 z"
       style="opacity:0.00100002;fill-opacity:0.00392199;fill-rule:evenodd;stroke-width:0.636363"
       sodipodi:nodetypes="ccccc" />
    <use
       x="0"
       y="0"
       xlink:href="#toolbutton-focus-top"
       id="toolbutton-focus-bottom"
       transform="matrix(1,0,0,-1,0,310)"
       inkscape:label="toolbutton-focus-bottom" />
    <use
       x="0"
       y="0"
       xlink:href="#toolbutton-focus-top"
       id="toolbutton-focus-left"
       transform="rotate(-90,253,155)"
       inkscape:label="toolbutton-focus-left" />
    <use
       x="0"
       y="0"
       xlink:href="#toolbutton-focus-top"
       id="toolbutton-focus-right"
       transform="rotate(90,253,155)"
       inkscape:label="toolbutton-focus-right" />
    <use
       x="0"
       y="0"
       xlink:href="#toolbutton-focus-topleft"
       id="toolbutton-focus-bottomleft"
       transform="rotate(-90,253,155)"
       inkscape:label="toolbutton-focus-bottomleft" />
    <use
       x="0"
       y="0"
       xlink:href="#toolbutton-focus-topleft"
       id="toolbutton-focus-topright"
       transform="matrix(-1,0,0,1,506,0)"
       inkscape:label="toolbutton-focus-topright" />
    <use
       x="0"
       y="0"
       xlink:href="#toolbutton-focus-topleft"
       id="toolbutton-focus-bottomright"
       transform="rotate(180,253,155)"
       inkscape:label="toolbutton-focus-bottomright" />
    <path
       id="toolbutton-focus-hint-top-margin"
       d="m 252,138 h 2 v 2 h -2 z"
       style="fill:#ff00ff" />
    <path
       id="toolbutton-focus-hint-bottom-margin"
       d="m 252,170 h 2 v 2 h -2 z"
       style="fill:#ff00ff" />
    <path
       id="toolbutton-focus-hint-left-margin"
       d="m 236,154 h 2 v 2 h -2 z"
       style="fill:#ff00ff" />
    <path
       id="toolbutton-focus-hint-right-margin"
       d="m 268,154 h 2 v 2 h -2 z"
       style="fill:#ff00ff" />
  </g>
  <g
     inkscape:groupmode="layer"
     id="layer9"
     inkscape:label="toolbutton-hover"
     style="display:inline">
    <path
       id="toolbutton-hover-center"
       d="m 244,108 h 18 v 18 h -18 z"
       style="opacity:0.00100002;fill:url(#linearGradient15)"
       sodipodi:nodetypes="ccccc" />
    <g
       id="toolbutton-hover-top"
       style="fill-rule:evenodd"
       transform="rotate(180,134,47)">
      <path
         id="path100-3-6-5-0"
         d="M 24,-13 H 6 v 5 h 18 z"
         sodipodi:nodetypes="ccccc"
         style="opacity:0.00100002;stroke-width:1.11803"
         inkscape:label="hint" />
      <path
         id="path320"
         d="m 6,-9 v 1 h 18 v -1 z"
         style="fill:currentColor"
         class="ColorScheme-Highlight"
         inkscape:label="border"
         sodipodi:nodetypes="ccccc" />
    </g>
    <g
       id="toolbutton-hover-topleft"
       inkscape:label="toolbutton-hover-topleft">
      <path
         id="path100-3-6-5-0-5-6"
         d="m 238,107 h 5 v -5 h -5 z"
         sodipodi:nodetypes="ccccc"
         style="opacity:0.00100002"
         inkscape:label="hint" />
      <path
         id="path326"
         d="m 243,102 c -2.77,0 -5,2.23 -5,5 h 1 a 4.0000424,4.0000424 0 0 1 4,-4 z"
         inkscape:label="border"
         style="fill:currentColor"
         class="ColorScheme-Highlight" />
    </g>
    <use
       x="0"
       y="0"
       xlink:href="#toolbutton-hover-topleft"
       id="toolbutton-hover-bottomleft"
       transform="rotate(-90,253,117)"
       inkscape:label="toolbutton-hover-bottomleft" />
    <use
       x="0"
       y="0"
       xlink:href="#toolbutton-hover-topleft"
       id="toolbutton-hover-topright"
       transform="matrix(-1,0,0,1,506,0)"
       inkscape:label="toolbutton-hover-topright" />
    <use
       x="0"
       y="0"
       xlink:href="#toolbutton-hover-topleft"
       id="toolbutton-hover-bottomright"
       transform="rotate(180,253,117)"
       inkscape:label="toolbutton-hover-bottomright" />
    <use
       x="0"
       y="0"
       xlink:href="#toolbutton-hover-top"
       id="toolbutton-hover-left"
       transform="matrix(0,1,1,0,136,-136)"
       inkscape:label="toolbutton-hover-left" />
    <use
       x="0"
       y="0"
       xlink:href="#toolbutton-hover-top"
       id="toolbutton-hover-right"
       transform="rotate(90,253,117)"
       inkscape:label="toolbutton-hover-right" />
    <use
       x="0"
       y="0"
       xlink:href="#toolbutton-hover-top"
       id="toolbutton-hover-bottom"
       transform="matrix(1,0,0,-1,0,234)"
       inkscape:label="toolbutton-hover-bottom" />
    <path
       id="toolbutton-hover-hint-top-margin"
       d="m 252,102 h 2 v 4 h -2 z"
       style="fill:#ff00ff"
       sodipodi:nodetypes="ccccc" />
    <path
       id="toolbutton-hover-hint-bottom-margin"
       d="m 252,128 h 2 v 4 h -2 z"
       style="fill:#ff00ff"
       sodipodi:nodetypes="ccccc" />
    <path
       id="toolbutton-hover-hint-right-margin"
       d="m 264,116 h 4 v 2 h -4 z"
       style="fill:#ff00ff"
       sodipodi:nodetypes="ccccc" />
    <path
       id="toolbutton-hover-hint-left-margin"
       d="m 238,116 h 4 v 2 h -4 z"
       style="fill:#ff00ff"
       sodipodi:nodetypes="ccccc" />
  </g>
  <g
     inkscape:groupmode="layer"
     id="layer5"
     inkscape:label="button-pressed"
     style="display:inline">
    <g
       id="pressed-top"
       style="fill:currentColor"
       class="ColorScheme-Highlight">
      <path
         id="path100-5"
         d="m 200,176 h -18 v 5 h 18 z"
         style="fill:currentColor;fill-rule:evenodd"
         class="ColorScheme-ButtonBackground"
         sodipodi:nodetypes="ccccc"
         inkscape:label="bg" />
      <path
         id="path448-7"
         d="m 182,176 h 18 v 5 h -18 z"
         style="fill-opacity:0.33"
         inkscape:label="fg" />
      <path
         id="path446-4"
         d="m 182,176 v 1 h 18 v -1 z"
         inkscape:label="border" />
    </g>
    <g
       id="pressed-center">
      <path
         id="path72-3"
         d="m 182,184 h 18 v 18 h -18 z"
         style="fill:currentColor"
         class="ColorScheme-ButtonBackground"
         inkscape:label="bg" />
      <path
         id="pc"
         d="m 182,184 h 18 v 18 h -18 z"
         style="fill:currentColor;fill-opacity:0.33"
         class="ColorScheme-Highlight"
         inkscape:label="fg" />
    </g>
    <g
       id="pressed-topleft"
       style="fill:currentColor"
       class="ColorScheme-Highlight">
      <path
         id="path3528-7"
         d="m 179,176 c -2.76142,0 -5,2.23858 -5,5 h 5 z"
         style="fill:currentColor"
         class="ColorScheme-ButtonBackground"
         sodipodi:nodetypes="cccc"
         inkscape:label="bg" />
      <path
         id="path584-5"
         d="m 179,176 c -2.76142,0 -5,2.23858 -5,5 h 5 z"
         style="opacity:0.33"
         class="ColorScheme-Highlight"
         inkscape:label="fg" />
      <path
         id="path586-5"
         class="ColorScheme-Highlight"
         d="m 179,176 c -2.77,0 -5,2.23 -5,5 h 1 a 4,4 0 0 1 4,-4 z"
         inkscape:label="border" />
    </g>
    <use
       x="0"
       y="0"
       xlink:href="#pressed-topleft"
       id="pressed-bottomleft"
       transform="rotate(-90,191,193)"
       inkscape:label="pressed-bottomleft" />
    <use
       x="0"
       y="0"
       xlink:href="#pressed-topleft"
       id="pressed-topright"
       transform="rotate(90,191,193)"
       inkscape:label="pressed-topright" />
    <use
       x="0"
       y="0"
       xlink:href="#pressed-topleft"
       id="pressed-bottomright"
       transform="rotate(180,191,193)"
       inkscape:label="pressed-bottomright" />
    <use
       x="0"
       y="0"
       xlink:href="#pressed-top"
       id="pressed-left"
       transform="rotate(-90,191,193)"
       inkscape:label="pressed-left" />
    <use
       x="0"
       y="0"
       xlink:href="#pressed-top"
       id="pressed-bottom"
       transform="matrix(1,0,0,-1,0,386)"
       inkscape:label="pressed-bottom" />
    <use
       x="0"
       y="0"
       xlink:href="#pressed-top"
       id="pressed-right"
       transform="rotate(90,191,193)"
       inkscape:label="pressed-right" />
    <path
       id="pressed-hint-top-margin"
       d="m 190,176 h 2 v 6 h -2 z"
       style="fill:#ff00ff;fill-rule:evenodd;stroke-width:1.1547"
       sodipodi:nodetypes="ccccc" />
    <path
       id="pressed-hint-bottom-margin"
       d="m 190,204 h 2 v 6 h -2 z"
       style="fill:#ff00ff;fill-rule:evenodd;stroke-width:1.1547"
       sodipodi:nodetypes="ccccc" />
    <path
       id="pressed-hint-left-margin"
       d="m 174,192 h 6 v 2 h -6 z"
       style="fill:#ff00ff;fill-rule:evenodd;stroke-width:1.1547"
       sodipodi:nodetypes="ccccc" />
    <path
       id="pressed-hint-right-margin"
       d="m 202,192 h 6 v 2 h -6 z"
       style="fill:#ff00ff;fill-rule:evenodd;stroke-width:1.1547"
       sodipodi:nodetypes="ccccc" />
  </g>
  <g
     inkscape:groupmode="layer"
     id="layer4"
     inkscape:label="button-focus">
    <g
       id="focus-top"
       style="color:#3daee9;fill:currentColor;stop-color:#3daee9"
       transform="matrix(1,0,0,-1,0,308)"
       class="ColorScheme-Highlight">
      <path
         id="path100-3-6-5"
         d="m 200,170 h -18 v -5 h 18 z"
         sodipodi:nodetypes="ccccc"
         style="opacity:0.00100002"
         inkscape:label="hint" />
      <path
         id="path372-1"
         d="m 182,170 v 2 h 18 v -2 z"
         style="opacity:0.33"
         inkscape:label="outline" />
      <path
         id="path370-9"
         d="m 200,170 h -18 v -1 h 18 z"
         inkscape:label="border" />
    </g>
    <path
       id="focus-center"
       d="m 182,146 h 18 v 18 h -18 z"
       style="opacity:0.00100002;fill-opacity:0.00392199;fill-rule:evenodd;stroke-width:0.818179" />
    <g
       id="focus-topleft"
       style="color:#3daee9;fill:currentColor;stop-color:#3daee9"
       transform="matrix(1,0,0,-1,-64,308)"
       class="ColorScheme-Highlight">
      <path
         id="path410-7"
         style="fill-opacity:0.33"
         d="m 243,172 c -3.86599,0 -7,-3.13401 -7,-7 h 2 a 5,5 0 0 0 5,5 z"
         inkscape:label="glow" />
      <path
         id="path412-5"
         d="m 243,170 c -2.77,0 -5,-2.23 -5,-5 h 1 a 4,4 0 0 0 4,4 z"
         inkscape:label="border" />
    </g>
    <use
       x="0"
       y="0"
       xlink:href="#focus-top"
       id="focus-bottom"
       transform="matrix(1,0,0,-1,0,310)"
       inkscape:label="focus-bottom" />
    <use
       x="0"
       y="0"
       xlink:href="#focus-top"
       id="focus-right"
       transform="rotate(90,190.5,155.5)"
       inkscape:label="focus-right" />
    <use
       x="0"
       y="0"
       xlink:href="#focus-top"
       id="focus-left"
       transform="rotate(-90,191,155)"
       inkscape:label="focus-left" />
    <use
       x="0"
       y="0"
       xlink:href="#focus-topleft"
       id="focus-bottomleft"
       transform="rotate(-90,191,155)"
       inkscape:label="focus-bottomleft" />
    <use
       x="0"
       y="0"
       xlink:href="#focus-topleft"
       id="focus-topright"
       transform="rotate(90,191,155)"
       inkscape:label="focus-topright" />
    <use
       x="0"
       y="0"
       xlink:href="#focus-topleft"
       id="focus-bottomright"
       transform="rotate(180,191,155)"
       inkscape:label="focus-bottomright" />
    <path
       id="focus-hint-top-margin"
       d="m 190,136 h 2 v 2 h -2 z"
       style="fill:#ff00ff" />
    <path
       id="focus-hint-bottom-margin"
       d="m 190,172 h 2 v 2 h -2 z"
       style="fill:#ff00ff" />
    <path
       id="focus-hint-left-margin"
       d="m 172,154 h 2 v 2 h -2 z"
       style="fill:#ff00ff" />
    <path
       id="focus-hint-right-margin"
       d="m 208,154 h 2 v 2 h -2 z"
       style="fill:#ff00ff" />
  </g>
  <g
     inkscape:groupmode="layer"
     id="layer3"
     inkscape:label="button-hover"
     style="display:inline">
    <g
       id="hover-top"
       style="fill-rule:evenodd"
       transform="matrix(-1,0,0,1,176,130)"
       class="ColorScheme-Highlight">
      <path
         id="path100-3"
         d="m -6,-30 h -18 v 5 h 18 z"
         sodipodi:nodetypes="ccccc"
         style="opacity:0.00100002"
         inkscape:label="hint" />
      <path
         id="path186"
         d="m -24,-30 h 18 v 1 h -18 z"
         style="fill:currentColor"
         inkscape:label="border" />
    </g>
    <path
       id="hover-center"
       d="m 182,108 h 18 v 18 h -18 z"
       style="opacity:0.00100002" />
    <path
       id="hover-hint-top-margin"
       d="m 190,100 h 2 v 0.001 h -2 z"
       style="fill:#ff00ff;fill-rule:evenodd" />
    <path
       id="hover-hint-bottom-margin"
       d="m 190,134 h 2 v 0.001 h -2 z"
       style="fill:#ff00ff;fill-rule:evenodd" />
    <path
       id="hover-hint-right-margin"
       d="m 208,116 h 0.001 v 2 H 208 Z"
       style="fill:#ff00ff;fill-rule:evenodd" />
    <path
       id="hover-hint-left-margin"
       d="m 174,116 h 0.001 v 2 H 174 Z"
       style="fill:#ff00ff;fill-rule:evenodd" />
    <path
       id="hover-topleft"
       style="fill:currentColor"
       class="ColorScheme-Highlight"
       d="m 179,100 a 5,5 0 0 0 -5,5 h 1 a 4,4 0 0 1 4,-4 z" />
    <use
       x="0"
       y="0"
       xlink:href="#hover-topleft"
       id="hover-bottomleft"
       transform="rotate(-90,191,117)"
       inkscape:label="hover-bottomleft" />
    <use
       x="0"
       y="0"
       xlink:href="#hover-topleft"
       id="hover-topright"
       transform="matrix(-1,0,0,1,382,0)"
       inkscape:label="hover-topright" />
    <use
       x="0"
       y="0"
       xlink:href="#hover-topleft"
       id="hover-bottomright"
       transform="rotate(180,191,117)"
       inkscape:label="hover-bottomright" />
    <use
       x="0"
       y="0"
       xlink:href="#hover-top"
       id="hover-left"
       transform="rotate(-90,191,117)"
       inkscape:label="hover-left" />
    <use
       x="0"
       y="0"
       xlink:href="#hover-top"
       id="hover-right"
       transform="rotate(90,191,117)"
       inkscape:label="hover-right" />
    <use
       x="0"
       y="0"
       xlink:href="#hover-top"
       id="hover-bottom"
       transform="matrix(1,0,0,-1,0,234)"
       inkscape:label="hover-bottom" />
  </g>
  <g
     inkscape:groupmode="layer"
     id="layer2"
     inkscape:label="button-normal"
     style="display:inline">
    <g
       id="normal-center">
      <path
         id="path72"
         d="m 182,70 h 18 v 18 h -18 z"
         style="fill:currentColor"
         class="ColorScheme-ButtonBackground"
         inkscape:label="bg" />
    </g>
    <g
       id="normal-topleft"
       style="fill-rule:evenodd"
       transform="matrix(1,0,0,-1,174,92)">
      <path
         id="path3528"
         style="fill:currentColor"
         class="ColorScheme-ButtonBackground"
         inkscape:label="bg"
         d="M 5,30 C 2.2385791,30 0,27.761421 0,25 h 5 z" />
      <path
         id="path3528-2"
         style="opacity:0.2;fill:currentColor"
         class="ColorScheme-ButtonText"
         inkscape:label="border"
         d="M 5,30 C 2.2385819,30 0,27.761418 0,25 h 1 a 4,4 0 0 0 4,4 z" />
    </g>
    <g
       id="normal-top"
       style="fill-rule:evenodd"
       transform="matrix(1,0,0,-1,176,92)">
      <path
         id="path100"
         d="M 24,30 H 6 v -5 h 18 z"
         style="fill:currentColor"
         class="ColorScheme-ButtonBackground"
         sodipodi:nodetypes="ccccc"
         inkscape:label="bg" />
      <path
         id="path102"
         d="M 24,30 H 6 v -1 h 18 z"
         style="opacity:0.2;fill:currentColor"
         class="ColorScheme-ButtonText"
         inkscape:label="border" />
    </g>
    <use
       x="0"
       y="0"
       xlink:href="#normal-topleft"
       id="normal-bottomright"
       transform="matrix(0,-1,-1,0,270,270)"
       inkscape:label="normal-bottomright" />
    <use
       x="0"
       y="0"
       xlink:href="#normal-top"
       id="normal-bottom"
       transform="matrix(1,0,0,-1,0,158)"
       inkscape:label="normal-bottom" />
    <use
       x="0"
       y="0"
       xlink:href="#normal-top"
       id="normal-right"
       transform="rotate(90,191,79)"
       inkscape:label="normal-right" />
    <use
       x="0"
       y="0"
       xlink:href="#normal-top"
       id="normal-left"
       transform="rotate(-90,191,79)"
       inkscape:label="normal-left" />
    <use
       x="0"
       y="0"
       xlink:href="#normal-topleft"
       id="normal-bottomleft"
       transform="rotate(-90,191,79)"
       inkscape:label="normal-bottomleft" />
    <use
       x="0"
       y="0"
       xlink:href="#normal-topleft"
       id="normal-topright"
       transform="matrix(-1,0,0,1,382,0)"
       inkscape:label="normal-topright" />
    <path
       id="normal-hint-top-margin"
       d="m 190,62 h 2 v 6 h -2 z"
       style="fill:#ff00ff"
       sodipodi:nodetypes="ccccc" />
    <path
       id="normal-hint-bottom-margin"
       d="m 190,90 h 2 v 6 h -2 z"
       style="fill:#ff00ff"
       sodipodi:nodetypes="ccccc" />
    <path
       id="normal-hint-right-margin"
       d="m 202,78 h 6 v 2 h -6 z"
       style="fill:#ff00ff"
       sodipodi:nodetypes="ccccc" />
    <path
       id="normal-hint-left-margin"
       d="m 174,78 h 6 v 2 h -6 z"
       style="fill:#ff00ff"
       sodipodi:nodetypes="ccccc" />
  </g>
  <g
     inkscape:groupmode="layer"
     id="layer1"
     inkscape:label="mask-normal"
     style="display:inline">
    <path
       id="mask-normal-center"
       d="m 56,71.044983 h 18 v 18 H 56 Z"
       style="fill-rule:evenodd;stroke-width:0.818182" />
    <path
       id="mask-normal-top"
       d="m 56,65 v 5 h 18 v -5 z"
       style="opacity:1" />
    <path
       id="mask-normal-topleft"
       d="m 55,65.089966 c -2.77,0 -5,2.23 -5,5 h 5 z"
       sodipodi:nodetypes="cccc" />
    <use
       x="0"
       y="0"
       xlink:href="#mask-normal-topleft"
       id="mask-normal-bottomleft"
       transform="rotate(-90,64.955017,80.044983)"
       inkscape:label="mask-normal-bottomleft" />
    <use
       x="0"
       y="0"
       xlink:href="#mask-normal-topleft"
       id="mask-normal-bottomright"
       transform="matrix(0,-1,-1,0,145.08997,145)"
       inkscape:label="mask-normal-bottomright" />
    <use
       x="0"
       y="0"
       xlink:href="#mask-normal-topleft"
       id="mask-normal-topright"
       transform="matrix(-1,0,0,1,130,-0.089966)"
       inkscape:label="mask-normal-topright" />
    <use
       x="0"
       y="0"
       xlink:href="#mask-normal-top"
       id="mask-normal-bottom"
       transform="translate(0,25)"
       inkscape:label="mask-normal-bottom" />
    <use
       x="0"
       y="0"
       xlink:href="#mask-normal-top"
       id="mask-normal-left"
       transform="rotate(-90,65.022491,80.022491)"
       inkscape:label="mask-normal-left" />
    <use
       x="0"
       y="0"
       xlink:href="#mask-normal-top"
       id="mask-normal-right"
       transform="rotate(90,64.977508,80.022491)"
       inkscape:label="mask-normal-right" />
  </g>
  <g
     inkscape:groupmode="layer"
     id="layer10"
     inkscape:label="shadow"
     style="display:inline">
    <rect
       style="fill:#ffff00"
       id="rect28146"
       width="34"
       height="34"
       x="174"
       y="24"
       ry="5"
       rx="5"
       inkscape:label="hint" />
    <path
       id="shadow-bottomright"
       style="fill:url(#radialGradient6)"
       d="m 211,53 v 8 h -8 v -3 c 2.76142,0 5,-2.238576 5,-5 z"
       inkscape:label="shadow-bottomright"
       sodipodi:nodetypes="cccccc" />
    <g
       id="shadow-bottom"
       inkscape:label="shadow-bottom">
      <rect
         style="opacity:0.00100002"
         id="rect4"
         width="18"
         height="5"
         x="182"
         y="53"
         inkscape:label="hint" />
      <path
         id="sb"
         d="m 6,-11 v 5 h 18 v -5 z"
         style="fill:url(#linearGradient11337);fill-rule:evenodd;stroke-width:1.29099"
         sodipodi:nodetypes="ccccc"
         inkscape:label="sb"
         transform="matrix(1,0,0,0.6,176,64.6)" />
    </g>
    <path
       id="shadow-bottomleft"
       style="fill:url(#radialGradient3)"
       d="m 171,53 v 8 h 8 v -3 c -2.76142,0 -5,-2.238576 -5,-5 z"
       inkscape:label="shadow-bottomleft"
       sodipodi:nodetypes="cccccc" />
    <g
       id="shadow-right"
       inkscape:label="shadow-right">
      <rect
         style="opacity:0.00100002;stroke-width:1"
         id="rect4-6-7"
         width="5"
         height="18"
         x="203"
         y="32"
         inkscape:label="hint" />
      <path
         id="sr"
         d="m 29,-13.875 2,10e-7 v -17.25 l -2,-1e-6 z"
         style="fill:url(#linearGradient6095)"
         sodipodi:nodetypes="ccccc"
         inkscape:label="sr"
         transform="matrix(1.5,0,0,1.0434783,164.5,64.478261)" />
    </g>
    <path
       id="shadow-center"
       d="m 182,32 h 18 v 18 h -18 z"
       style="opacity:0.00100002" />
    <g
       id="shadow-left"
       inkscape:label="shadow-left">
      <rect
         style="opacity:0.00100002;stroke-width:1"
         id="rect4-6"
         width="5"
         height="18"
         x="174"
         y="32"
         inkscape:label="hint" />
      <path
         id="sl"
         d="M 170.25,32 V 50 H 174 V 32 Z"
         style="fill:url(#linearGradient8469);stroke-width:1.22475"
         sodipodi:nodetypes="ccccc"
         inkscape:label="sl"
         transform="matrix(0.8,0,0,1,34.8,0)" />
    </g>
    <path
       id="shadow-topright"
       style="fill:url(#radialGradient13221)"
       d="m 208,29 h 3 v -8 h -8 v 3 c 2.76142,0 5,2.238576 5,5 z"
       sodipodi:nodetypes="cccccc" />
    <g
       id="shadow-top"
       inkscape:label="shadow-top">
      <rect
         style="opacity:0.00100002;stroke-width:0.999999"
         id="rect4-5"
         width="18"
         height="5"
         x="182"
         y="24"
         inkscape:label="hint" />
      <path
         id="st"
         d="m 182,21 v 3 h 18 v -3 z"
         style="opacity:0.00100002;stroke-width:0.904534"
         inkscape:label="st" />
    </g>
    <path
       id="shadow-topleft"
       style="fill:url(#radialGradient4)"
       d="m 174,29 h -3 v -8 h 8 v 3 c -2.76142,0 -5,2.238576 -5,5 z"
       sodipodi:nodetypes="cccccc"
       inkscape:label="shadow-topleft" />
    <path
       id="shadow-hint-top-margin"
       d="m 190,21 h 2 v 3 h -2 z"
       style="fill:#ff00ff;stroke-width:1732.05" />
    <path
       id="shadow-hint-bottom-margin"
       d="m 190,58 h 2 v 3 h -2 z"
       style="fill:#ff00ff" />
    <path
       id="shadow-hint-right-margin"
       d="m 208,40 h 3 v 2 h -3 z"
       style="fill:#ff00ff"
       sodipodi:nodetypes="ccccc" />
    <path
       id="shadow-hint-left-margin"
       d="m 171,40 h 3 v 2 h -3 z"
       style="fill:#ff00ff;stroke-width:1.22474"
       sodipodi:nodetypes="ccccc" />
  </g>
  <g
     inkscape:groupmode="layer"
     id="layer11"
     inkscape:label="hint">
    <path
       id="path510"
       d="m 148,-44 h 87.99999 v 24 H 148 Z"
       style="fill:#ff00ff"
       inkscape:label="margin-hint" />
    <path
       id="normal-hint-compose-over-border"
       d="m -12,76 h 3.9999999 v 4 H -12 Z"
       style="fill:#00ff00" />
    <path
       id="path572"
       d="M -64,0 H -8 V 16 H -64 Z"
       style="fill:#00ff00"
       inkscape:label="other-hint" />
    <path
       id="pressed-hint-compose-over-border"
       d="m -12,192 h 3.9999999 v 4 H -12 Z"
       style="fill:#00ff00" />
  </g>
  <g
     inkscape:groupmode="layer"
     id="layer6"
     inkscape:label="text"
     style="display:inline">
    <text
       id="text492"
       style="font-size:10px;font-family:'Noto Sans'"
       x="191"
       y="8"><tspan
         id="tspan490"
         style="font-size:10px;text-anchor:middle"
         x="191"
         y="8">(default)</tspan></text>
    <text
       id="text496"
       style="font-size:10px;font-family:'Noto Sans'"
       x="253"
       y="8"><tspan
         id="tspan494"
         style="font-size:10px;text-anchor:middle"
         x="253"
         y="8">toolbutton</tspan></text>
    <text
       id="text504"
       style="font-size:10px;font-family:'Noto Sans'"
       x="67"
       y="8"><tspan
         id="tspan502"
         style="font-size:10px;text-anchor:middle"
         x="67"
         y="8">mask</tspan></text>
    <text
       id="text508"
       style="font-size:10px;font-family:'Noto Sans'"
       x="129"
       y="8"><tspan
         id="tspan506"
         style="font-size:10px;text-anchor:middle"
         x="129"
         y="8">background</tspan></text>
    <text
       id="text514"
       style="font-size:10px;font-family:'Noto Sans'"
       x="192"
       y="-28"><tspan
         id="tspan512"
         style="font-size:10px;text-anchor:middle"
         x="192"
         y="-28">margin hint</tspan></text>
    <text
       id="text22"
       style="font-size:9.06667px;font-family:'Noto Sans';letter-spacing:0;word-spacing:0;stroke-width:1"
       x="177.39999"
       y="42.133331"><tspan
         id="tspan18"
         style="font-size:9.06667px;stroke-width:1"
         x="177.39999"
         y="42.133331">button</tspan><tspan
         id="tspan20"
         style="font-size:9.06667px;stroke-width:1"
         x="177.39999"
         y="53.466663">area</tspan></text>
    <text
       id="text476"
       style="font-size:10px;font-family:'Noto Sans'"
       x="36"
       y="82"><tspan
         id="tspan474"
         style="font-size:10px;text-anchor:end"
         x="36"
         y="82">normal</tspan></text>
    <text
       id="text480"
       style="font-size:10px;font-family:'Noto Sans'"
       x="36"
       y="120"><tspan
         id="tspan478"
         style="font-size:10px;text-anchor:end"
         x="36"
         y="120">hover</tspan></text>
    <text
       id="text484"
       style="font-size:10px;font-family:'Noto Sans'"
       x="36"
       y="158"><tspan
         id="tspan482"
         style="font-size:10px;text-anchor:end"
         x="36"
         y="158">focus</tspan></text>
    <text
       id="text488"
       style="font-size:10px;font-family:'Noto Sans'"
       x="36"
       y="196"><tspan
         id="tspan486"
         style="font-size:10px;text-anchor:end"
         x="36"
         y="196">pressed</tspan></text>
    <text
       id="text500"
       style="font-size:10px;font-family:'Noto Sans'"
       x="36"
       y="44"><tspan
         id="tspan498"
         style="font-size:10px;text-anchor:end"
         x="36"
         y="44">shadow</tspan></text>
    <text
       id="text562"
       style="font-size:medium;font-family:'Noto Sans';letter-spacing:0;word-spacing:0"
       transform="translate(200,64)"
       x="96"
       xml:space="preserve"
       y="-56"><tspan
         x="96"
         y="-56"
         id="tspan1">NOTE: Some margin hints have 0.001 width or height because you can't use exactly 0! </tspan><tspan
         x="96"
         y="-43.500004"
         id="tspan2">NOTE: shadow, hover and focus (not focus-background) use negative margins! </tspan><tspan
         x="96"
         y="-31.000004"
         id="tspan3">This behavior is implemented in at least the following files (please keep this up to date, fix the problem or find a better place to </tspan><tspan
         x="96"
         y="-18.500004"
         id="tspan4">put this info): </tspan><tspan
         x="96"
         y="-6.0000029"
         id="tspan5">plasma-framework/src/declarativeimports/plasmacomponents3/private/ButtonShadow.qml </tspan><tspan
         x="96"
         y="6.4999971"
         id="tspan6">plasma-framework/src/declarativeimports/plasmacomponents3/private/ButtonHover.qml </tspan><tspan
         x="96"
         y="18.999996"
         id="tspan7">plasma-framework/src/declarativeimports/plasmacomponents3/private/ButtonFocus.qml </tspan><tspan
         x="96"
         y="43.999996"
         id="tspan8">We should add support for a negative margins hint to FrameSvg and document it instead of requiring people to read source </tspan><tspan
         x="96"
         y="56.499996"
         id="tspan9">code in order to know these things. Unfortunately, not sure if we can change the code of ButtonShadow since it would break </tspan><tspan
         x="96"
         y="69"
         id="tspan10">themes that rely on this undocumented behaviour. Maybe in KF6.</tspan></text>
    <text
       id="text570"
       x="96"
       y="-68"><tspan
         id="tspan568" /></text>
    <text
       id="text576"
       style="font-size:10px;font-family:'Noto Sans'"
       x="-36"
       y="12"><tspan
         id="tspan574"
         style="font-size:10px;text-anchor:middle"
         x="-36"
         y="12">other hints</tspan></text>
  </g>
</svg>
