<?xml version="1.0" encoding="UTF-8" standalone="no"?>
<svg xmlns:svg="http://www.w3.org/2000/svg" xmlns="http://www.w3.org/2000/svg" xmlns:sodipodi="http://sodipodi.sourceforge.net/DTD/sodipodi-0.dtd" xmlns:inkscape="http://www.inkscape.org/namespaces/inkscape" inkscape:version="1.1-dev (d80adc983d, 2020-06-15)" sodipodi:docname="button.svg" version="1.1" viewBox="0 0 288 224" id="svg2">
    <defs id="defs319" />
    <sodipodi:namedview inkscape:current-layer="svg2" showgrid="true" id="namedview317" inkscape:window-height="480" inkscape:window-width="640" inkscape:pageshadow="2" inkscape:pageopacity="0" guidetolerance="10" gridtolerance="10" objecttolerance="10" borderopacity="1" bordercolor="#666666" pagecolor="#ffffff" inkscape:snap-text-baseline="true" inkscape:snap-smooth-nodes="true">
        <inkscape:grid id="grid1136" type="xygrid" />
    </sodipodi:namedview>
    <style id="current-color-scheme" type="text/css">
        .ColorScheme-Highlight {
            color:#3daee9;
            stop-color:#3daee9;
        }
        .ColorScheme-ButtonText {
            color:#232629;
            stop-color:#232629;
        }
        .ColorScheme-ButtonBackground {
            color:#eff0f1;
            stop-color:#eff0f1;
        }
        .ColorScheme-ButtonHover {
            color:#93cee9;
            stop-color:#93cee9;
        }
        .ColorScheme-ButtonFocus{
            color:#3daee9;
            stop-color:#3daee9;
        }
    </style>
    <g fill-rule="evenodd" transform="translate(176,64)" id="shadow-right">
        <path sodipodi:nodetypes="ccccc" opacity="0.00100002" fill-opacity="0.00392199" d="m 27,-12 h 3 v -22 h -3 z" id="path1565-7-8" />
        <path opacity="0.15" d="m 29,-34 v 22 h 1 v -22 z" id="path1559" />
    </g>
    <g fill-rule="evenodd" transform="translate(62)" id="toolbutton-focus-bottom">
        <path opacity=".001" fill-opacity=".003922" fill="currentColor" class="ColorScheme-ButtonBackground" d="m-202-170h22v3h-22z" transform="scale(-1)" id="rect829-6-5-2-9-8" />
        <path fill="currentColor" class="ColorScheme-ButtonFocus" d="m-202-170h22v1h-22z" transform="scale(-1)" id="rect829-6-2-6-6-9-3" />
        <path opacity=".2" fill="currentColor" class="ColorScheme-ButtonFocus" d="m180 170v1h22v-1z" id="path1565-4-90-2-7" />
    </g>
    <g fill-rule="evenodd" transform="matrix(1 0 0 -1 62 310)" id="toolbutton-focus-top">
        <path opacity=".001" fill-opacity=".003922" fill="currentColor" class="ColorScheme-ButtonBackground" d="m-202-170h22v3h-22z" transform="scale(-1)" id="rect829-6-5-2-9-5-3" />
        <path fill="currentColor" class="ColorScheme-ButtonFocus" d="m-202-170h22v1h-22z" transform="scale(-1)" id="rect829-6-2-6-6-9-2-7" />
        <path opacity=".2" fill="currentColor" class="ColorScheme-ButtonFocus" d="m180 170v1h22v-1z" id="path1565-4-90-2-0-8" />
    </g>
    <g fill-rule="evenodd" transform="matrix(0 -1 1 0 98 346)" id="toolbutton-focus-right">
        <path opacity=".001" fill-opacity=".003922" fill="currentColor" class="ColorScheme-ButtonBackground" d="m-202-170h22v3h-22z" transform="scale(-1)" id="rect829-6-5-2-9-0-4" />
        <path fill="currentColor" class="ColorScheme-ButtonFocus" d="m-202-170h22v1h-22z" transform="scale(-1)" id="rect829-6-2-6-6-9-9-1" />
        <path opacity=".2" fill="currentColor" class="ColorScheme-ButtonFocus" d="m180 170v1h22v-1z" id="path1565-4-90-2-9-9" />
    </g>
    <g fill-rule="evenodd" transform="matrix(0 -1 -1 0 408 346)" id="toolbutton-focus-left">
        <path opacity=".001" fill-opacity=".003922" fill="currentColor" class="ColorScheme-ButtonBackground" d="m-202-170h22v3h-22z" transform="scale(-1)" id="rect829-6-5-2-9-0-1-9" />
        <path fill="currentColor" class="ColorScheme-ButtonFocus" d="m-202-170h22v1h-22z" transform="scale(-1)" id="rect829-6-2-6-6-9-9-0-8" />
        <path opacity=".2" fill="currentColor" class="ColorScheme-ButtonFocus" d="m180 170v1h22v-1z" id="path1565-4-90-2-9-3-8" />
    </g>
    <path fill-rule="evenodd" fill="currentColor" class="ColorScheme-ButtonFocus" d="m242 178v3h22v-3z" id="toolbutton-pressed-top" />
    <g fill-rule="evenodd" transform="translate(176,64)" id="shadow-bottom">
        <path sodipodi:nodetypes="ccccc" opacity="0.00100002" fill-opacity="0.00392199" d="m 4,-11 v 3 h 22 v -3 z" id="path1565-7" />
        <path opacity="0.15" d="m 4,-9 v 1 h 22 v -1 z" id="path1565" />
    </g>
    <g fill-rule="evenodd" transform="translate(176,64)" id="shadow-bottomleft">
        <path sodipodi:nodetypes="cccc" opacity="0.00100002" fill-opacity="0.00392199" d="m 0,-11 c 0,1.662 1.338,3 3,3 v -3 z" id="rect1509-7-9-6-1" />
        <path sodipodi:nodetypes="cccsc" opacity="0.15" d="M 0.04102,-10.595703 C 0.23928,-9.128502 1.47674,-8 3,-8 V -9 H 2 C 1.0305,-9 0.2269,-9.682695 0.04102,-10.595703 Z" id="path1563" />
    </g>
    <g fill-rule="evenodd" transform="translate(176,64)" id="shadow-bottomright">
        <path sodipodi:nodetypes="cccc" opacity="0.00100002" fill-opacity="0.00392199" d="m 27,-11 v 3 c 1.662,0 3,-1.338 3,-3 z" id="rect1509-7-9-6-2" />
        <path sodipodi:nodetypes="ccccc" opacity="0.15" d="m 29,-11 c 0,1.108 -0.892,2 -2,2 v 1 c 1.662,0 3,-1.338 3,-3 z" id="path1561" />
    </g>
    <g fill-rule="evenodd" transform="translate(176,64)" id="shadow-topright">
        <path sodipodi:nodetypes="cccc" opacity="0.00100002" fill-opacity="0.00392199" d="m 27,-35 h 3 c 0,-1.662 -1.338,-3 -3,-3 z" id="rect1509-7-9-6" />
        <path sodipodi:nodetypes="csccc" opacity="0.15" d="M 27.4043,-37.958984 C 28.3173,-37.773102 29,-36.9695 29,-36 v 1 h 1 c 0,-1.523257 -1.1285,-2.760718 -2.5957,-2.958984 z" id="rect1509-5" />
    </g>
    <path fill-rule="evenodd" fill="currentColor" class="ColorScheme-ButtonBackground" d="m180 68h22v22h-22z" id="normal-center" />
    <g fill-rule="evenodd" transform="translate(176 64)" id="normal-bottomleft">
        <path fill="currentColor" class="ColorScheme-ButtonBackground" d="m0 28c0 1.108.892 2 2 2v-2z" id="rect833-7-3" />
        <path opacity=".3" fill="currentColor" class="ColorScheme-ButtonText" d="m0 28c0 1.108.892 2 2 2v-1c-.554 0-1-.446-1-1z" id="path915" />
    </g>
    <g fill-rule="evenodd" transform="translate(176 64)" id="normal-bottom">
        <path fill="currentColor" class="ColorScheme-ButtonBackground" d="m-26-30h22v2h-22z" transform="scale(-1)" id="rect829-6" />
        <path opacity=".3" fill="currentColor" class="ColorScheme-ButtonText" d="m-26-30h22v1h-22z" transform="scale(-1)" id="rect829-6-2" />
    </g>
    <g fill-rule="evenodd" transform="matrix(1 0 0 -1 176 94)" id="normal-topleft">
        <path fill="currentColor" class="ColorScheme-ButtonBackground" d="m0 28c0 1.108.892 2 2 2v-2z" id="rect833-7-3-1" />
        <path opacity=".3" fill="currentColor" class="ColorScheme-ButtonText" d="m0 28c0 1.108.892 2 2 2v-1c-.554 0-1-.446-1-1z" id="path915-2" />
    </g>
    <g fill-rule="evenodd" transform="matrix(1 0 0 -1 176 94)" id="normal-top">
        <path fill="currentColor" class="ColorScheme-ButtonBackground" d="m-26-30h22v2h-22z" transform="scale(-1)" id="rect829-6-0" />
        <path opacity=".3" fill="currentColor" class="ColorScheme-ButtonText" d="m-26-30h22v1h-22z" transform="scale(-1)" id="rect829-6-2-9" />
    </g>
    <g fill-rule="evenodd" transform="matrix(0 1 1 0 176 64)" id="normal-topright">
        <path fill="currentColor" class="ColorScheme-ButtonBackground" d="m0 28c0 1.108.892 2 2 2v-2z" id="rect833-7-3-6" />
        <path opacity=".3" fill="currentColor" class="ColorScheme-ButtonText" d="m0 28c0 1.108.892 2 2 2v-1c-.554 0-1-.446-1-1z" id="path915-0" />
    </g>
    <g fill-rule="evenodd" transform="matrix(0 1 1 0 176 64)" id="normal-right">
        <path fill="currentColor" class="ColorScheme-ButtonBackground" d="m-26-30h22v2h-22z" transform="scale(-1)" id="rect829-6-26" />
        <path opacity=".3" fill="currentColor" class="ColorScheme-ButtonText" d="m-26-30h22v1h-22z" transform="scale(-1)" id="rect829-6-2-1" />
    </g>
    <g fill-rule="evenodd" transform="matrix(-1 0 0 1 206 64)" id="normal-bottomright">
        <path fill="currentColor" class="ColorScheme-ButtonBackground" d="m0 28c0 1.108.892 2 2 2v-2z" id="rect833-7-3-7" />
        <path opacity=".3" fill="currentColor" class="ColorScheme-ButtonText" d="m0 28c0 1.108.892 2 2 2v-1c-.554 0-1-.446-1-1z" id="path915-9" />
    </g>
    <g fill-rule="evenodd" transform="matrix(0 1 -1 0 206 64)" id="normal-left">
        <path fill="currentColor" class="ColorScheme-ButtonBackground" d="m-26-30h22v2h-22z" transform="scale(-1)" id="rect829-6-26-0" />
        <path opacity=".3" fill="currentColor" class="ColorScheme-ButtonText" d="m-26-30h22v1h-22z" transform="scale(-1)" id="rect829-6-2-1-2" />
    </g>
    <path fill-rule="evenodd" fill="#ff00ff" d="m 190,64 h 2 v 4 h -2 z" id="normal-hint-top-margin" style="stroke-width:0.999996" />
    <path fill-rule="evenodd" fill="#ff00ff" d="m 190,90 h 2 v 4 h -2 z" id="normal-hint-bottom-margin" style="stroke-width:0.999996" />
    <path fill-rule="evenodd" fill="#ff00ff" d="m 176,78 h 4 v 2 h -4 z" id="normal-hint-left-margin" style="stroke-width:0.999996" />
    <path fill-rule="evenodd" fill="#ff00ff" d="m 202,78 h 4 v 2 h -4 z" id="normal-hint-right-margin" style="stroke-width:0.999996" />
    <path fill-rule="evenodd" d="m56 68h22v22h-22z" id="mask-normal-center" />
    <path fill-rule="evenodd" d="m80 92v2c1.108 0 2-.892 2-2z" id="mask-normal-bottomright" />
    <path fill-rule="evenodd" d="m56 92v2h22v-2z" id="mask-normal-bottom" />
    <path fill-rule="evenodd" d="m52 92c0 1.108.892 2 2 2v-2h-1z" id="mask-normal-bottomleft" />
    <path fill-rule="evenodd" d="m80 68v22h2v-22z" id="mask-normal-right" />
    <path fill-rule="evenodd" d="m52 68v22h2v-22z" id="mask-normal-left" />
    <path fill-rule="evenodd" d="m80 64v2h2c0-1.108-.892-2-2-2z" id="mask-normal-topright" />
    <path fill-rule="evenodd" d="m56 64v2h22v-2z" id="mask-normal-top" />
    <path fill-rule="evenodd" d="m54 64c-1.108 0-2 .892-2 2h2v-1z" id="mask-normal-topleft" />
    <g fill-rule="evenodd" transform="translate(176 102)" id="hover-bottomleft">
        <path opacity=".001" fill-opacity=".003922" fill="currentColor" class="ColorScheme-ButtonBackground" d="m0 28c0 1.108.892 2 2 2v-2z" id="rect833-7-3-55" />
        <path fill="currentColor" class="ColorScheme-ButtonHover" d="m0 28c0 1.108.892 2 2 2v-1c-.554 0-1-.446-1-1z" id="path915-4" />
    </g>
    <g fill-rule="evenodd" transform="translate(176 102)" id="hover-bottom">
        <path opacity=".001" fill-opacity=".003922" fill="currentColor" class="ColorScheme-ButtonBackground" d="m-26-30h22v2h-22z" transform="scale(-1)" id="rect829-6-5" />
        <path fill="currentColor" class="ColorScheme-ButtonHover" d="m-26-30h22v1h-22z" transform="scale(-1)" id="rect829-6-2-6" />
    </g>
    <g fill-rule="evenodd" transform="matrix(1 0 0 -1 176 132)" id="hover-topleft">
        <path opacity=".001" fill-opacity=".003922" fill="currentColor" class="ColorScheme-ButtonBackground" d="m0 28c0 1.108.892 2 2 2v-2z" id="rect833-7-3-1-3" />
        <path fill="currentColor" class="ColorScheme-ButtonHover" d="m0 28c0 1.108.892 2 2 2v-1c-.554 0-1-.446-1-1z" id="path915-2-7" />
    </g>
    <g fill-rule="evenodd" transform="matrix(1 0 0 -1 176 132)" id="hover-top">
        <path opacity=".001" fill-opacity=".003922" fill="currentColor" class="ColorScheme-ButtonBackground" d="m-26-30h22v2h-22z" transform="scale(-1)" id="rect829-6-0-5" />
        <path fill="currentColor" class="ColorScheme-ButtonHover" d="m-26-30h22v1h-22z" transform="scale(-1)" id="rect829-6-2-9-2" />
    </g>
    <g fill-rule="evenodd" transform="matrix(0 1 1 0 176 102)" id="hover-topright">
        <path opacity=".001" fill-opacity=".003922" fill="currentColor" class="ColorScheme-ButtonBackground" d="m0 28c0 1.108.892 2 2 2v-2z" id="rect833-7-3-6-4" />
        <path fill="currentColor" class="ColorScheme-ButtonHover" d="m0 28c0 1.108.892 2 2 2v-1c-.554 0-1-.446-1-1z" id="path915-0-7" />
    </g>
    <g fill-rule="evenodd" transform="matrix(0 1 1 0 176 102)" id="hover-right">
        <path opacity=".001" fill-opacity=".003922" fill="currentColor" class="ColorScheme-ButtonBackground" d="m-26-30h22v2h-22z" transform="scale(-1)" id="rect829-6-26-4" />
        <path fill="currentColor" class="ColorScheme-ButtonHover" d="m-26-30h22v1h-22z" transform="scale(-1)" id="rect829-6-2-1-3" />
    </g>
    <g fill-rule="evenodd" transform="matrix(-1 0 0 1 206 102)" id="hover-bottomright">
        <path opacity=".001" fill-opacity=".003922" fill="currentColor" class="ColorScheme-ButtonBackground" d="m0 28c0 1.108.892 2 2 2v-2z" id="rect833-7-3-7-7" />
        <path fill="currentColor" class="ColorScheme-ButtonHover" d="m0 28c0 1.108.892 2 2 2v-1c-.554 0-1-.446-1-1z" id="path915-9-8" />
    </g>
    <g fill-rule="evenodd" transform="matrix(0 1 -1 0 206 102)" id="hover-left">
        <path opacity=".001" fill-opacity=".003922" fill="currentColor" class="ColorScheme-ButtonBackground" d="m-26-30h22v2h-22z" transform="scale(-1)" id="rect829-6-26-0-8" />
        <path fill="currentColor" class="ColorScheme-ButtonHover" d="m-26-30h22v1h-22z" transform="scale(-1)" id="rect829-6-2-1-2-8" />
    </g>
    <path fill-rule="evenodd" fill="currentColor" class="ColorScheme-ButtonFocus" d="m 180,182 h 22 v 22 h -22 z" id="pressed-center" />
    <g fill-rule="evenodd" transform="translate(176,178)" id="pressed-bottomleft">
        <path fill="currentColor" class="ColorScheme-ButtonFocus" d="m 0,28 c 0,1.108 0.892,2 2,2 v -2 z" id="rect833-7-3-55-1" />
        <path opacity="0.3" fill="currentColor" class="ColorScheme-ButtonText" d="m 0,28 c 0,1.108 0.892,2 2,2 V 29 C 1.446,29 1,28.554 1,28 Z" id="path915-4-7" />
    </g>
    <g fill-rule="evenodd" transform="translate(176,178)" id="pressed-bottom">
        <path fill="currentColor" class="ColorScheme-ButtonFocus" d="m -26,-30 h 22 v 2 h -22 z" transform="scale(-1)" id="rect829-6-5-1" />
        <path opacity="0.3" fill="currentColor" class="ColorScheme-ButtonText" d="m -26,-30 h 22 v 1 h -22 z" transform="scale(-1)" id="rect829-6-2-6-1" />
    </g>
    <g fill-rule="evenodd" transform="matrix(1,0,0,-1,176,208)" id="pressed-topleft">
        <path fill="currentColor" class="ColorScheme-ButtonFocus" d="m 0,28 c 0,1.108 0.892,2 2,2 v -2 z" id="rect833-7-3-1-3-9" />
        <path opacity="0.3" fill="currentColor" class="ColorScheme-ButtonText" d="m 0,28 c 0,1.108 0.892,2 2,2 V 29 C 1.446,29 1,28.554 1,28 Z" id="path915-2-7-7" />
    </g>
    <g fill-rule="evenodd" transform="matrix(1,0,0,-1,176,208)" id="pressed-top">
        <path fill="currentColor" class="ColorScheme-ButtonFocus" d="m -26,-30 h 22 v 2 h -22 z" transform="scale(-1)" id="rect829-6-0-5-6" />
        <path opacity="0.3" fill="currentColor" class="ColorScheme-ButtonText" d="m -26,-30 h 22 v 1 h -22 z" transform="scale(-1)" id="rect829-6-2-9-2-7" />
    </g>
    <g fill-rule="evenodd" transform="matrix(0,1,1,0,176,178)" id="pressed-topright">
        <path fill="currentColor" class="ColorScheme-ButtonFocus" d="m 0,28 c 0,1.108 0.892,2 2,2 v -2 z" id="rect833-7-3-6-4-6" />
        <path opacity="0.3" fill="currentColor" class="ColorScheme-ButtonText" d="m 0,28 c 0,1.108 0.892,2 2,2 V 29 C 1.446,29 1,28.554 1,28 Z" id="path915-0-7-5" />
    </g>
    <g fill-rule="evenodd" transform="matrix(0,1,1,0,176,178)" id="pressed-right">
        <path fill="currentColor" class="ColorScheme-ButtonFocus" d="m -26,-30 h 22 v 2 h -22 z" transform="scale(-1)" id="rect829-6-26-4-3" />
        <path opacity="0.3" fill="currentColor" class="ColorScheme-ButtonText" d="m -26,-30 h 22 v 1 h -22 z" transform="scale(-1)" id="rect829-6-2-1-3-9" />
    </g>
    <g fill-rule="evenodd" transform="matrix(-1,0,0,1,206,178)" id="pressed-bottomright">
        <path fill="currentColor" class="ColorScheme-ButtonFocus" d="m 0,28 c 0,1.108 0.892,2 2,2 v -2 z" id="rect833-7-3-7-7-8" />
        <path opacity="0.3" fill="currentColor" class="ColorScheme-ButtonText" d="m 0,28 c 0,1.108 0.892,2 2,2 V 29 C 1.446,29 1,28.554 1,28 Z" id="path915-9-8-1" />
    </g>
    <g fill-rule="evenodd" transform="rotate(90,14,192)" id="pressed-left">
        <path fill="currentColor" class="ColorScheme-ButtonFocus" d="m -26,-30 h 22 v 2 h -22 z" transform="scale(-1)" id="rect829-6-26-0-8-9" />
        <path opacity="0.3" fill="currentColor" class="ColorScheme-ButtonText" d="m -26,-30 h 22 v 1 h -22 z" transform="scale(-1)" id="rect829-6-2-1-2-8-3" />
    </g>
    <path fill-rule="evenodd" d="m56 144h22v22h-22z" id="mask-focus-background-center" />
    <path fill-rule="evenodd" d="m80 168v2c1.108 0 2-.892 2-2z" id="mask-focus-background-bottomright" />
    <path fill-rule="evenodd" d="m56 168v2h22v-2z" id="mask-focus-background-bottom" />
    <path fill-rule="evenodd" d="m52 168c0 1.108.892 2 2 2v-2h-1z" id="mask-focus-background-bottomleft" />
    <path fill-rule="evenodd" d="m80 144v22h2v-22z" id="mask-focus-background-right" />
    <path fill-rule="evenodd" d="m52 144v22h2v-22z" id="mask-focus-background-left" />
    <path fill-rule="evenodd" d="m80 140v2h2c0-1.108-.892-2-2-2z" id="mask-focus-background-topright" />
    <path fill-rule="evenodd" d="m56 140v2h22v-2z" id="mask-focus-background-top" />
    <path fill-rule="evenodd" d="m54 140c-1.108 0-2 .892-2 2h2v-1z" id="mask-focus-background-topleft" />
    <path opacity="0.00100002" fill-rule="evenodd" fill-opacity="0.00392199" d="m 180,30 h 22 v 22 h -22 z" id="shadow-center" />
    <path opacity="0.00100002" fill-rule="evenodd" fill-opacity="0.00392199" d="m 176,30 v 22 h 3 V 30 Z" id="shadow-left" sodipodi:nodetypes="ccccc" />
    <path opacity="0.00100002" fill-rule="evenodd" fill-opacity="0.00392199" d="m 180,26 v 3 h 22 v -3 z" id="shadow-top" sodipodi:nodetypes="ccccc" />
    <path fill-rule="evenodd" fill="#ff00ff" d="m 190,26 h 2 v 1e-6 h -2 z" id="shadow-hint-top-margin" style="stroke-width:0.999997" />
    <path fill-rule="evenodd" fill="#ff00ff" d="m 190,55 h 2 v 1 h -2 z" id="shadow-hint-bottom-margin" style="stroke-width:0.999997" />
    <path fill-rule="evenodd" fill="#ff00ff" d="m 205,40 h 1 v 2 h -1 z" id="shadow-hint-right-margin" style="stroke-width:0.999997" />
    <path sodipodi:nodetypes="cccc" opacity="0.00100002" fill-rule="evenodd" fill-opacity="0.00392199" d="m 179,26 c -1.662,0 -3,1.338 -3,3 h 3 z" id="shadow-topleft" />
    <text word-spacing="0" text-anchor="end" letter-spacing="0" font-size="10" font-family="Noto Sans" y="82" x="36" id="text2130"><tspan text-anchor="end" font-size="10" y="82" x="36" id="tspan2128">normal</tspan></text>
    <text word-spacing="0" text-anchor="end" letter-spacing="0" font-size="10" font-family="Noto Sans" y="120" x="36" id="text2130-0"><tspan text-anchor="end" font-size="10" y="120" x="36" id="tspan2128-4">hover</tspan></text>
    <text word-spacing="0" text-anchor="end" letter-spacing="0" font-size="10" font-family="Noto Sans" y="158" x="36" id="text2130-0-2"><tspan text-anchor="end" font-size="10" y="158" x="36" id="tspan2128-4-9">focus</tspan></text>
    <text word-spacing="0" text-anchor="end" letter-spacing="0" font-size="10" font-family="Noto Sans" y="196" x="36" id="text2130-0-2-6"><tspan text-anchor="end" font-size="10" y="196" x="36" id="tspan2128-4-9-1">pressed</tspan></text>
    <text word-spacing="0" text-anchor="middle" letter-spacing="0" font-size="10" font-family="Noto Sans" y="8" x="191" id="text2130-0-2-0"><tspan text-anchor="middle" font-size="10" y="8" x="191" id="tspan2128-4-9-4">(default)</tspan></text>
    <text word-spacing="0" text-anchor="middle" letter-spacing="0" font-size="10" font-family="Noto Sans" y="8" x="253" id="text2130-0-2-0-2"><tspan text-anchor="middle" font-size="10" y="8" x="253" id="tspan2128-4-9-4-2">toolbutton</tspan></text>
    <text word-spacing="0" text-anchor="end" letter-spacing="0" font-size="10" font-family="Noto Sans" y="44" x="36" id="text2130-0-2-0-1"><tspan text-anchor="end" font-size="10" y="44" x="36" id="tspan2128-4-9-4-7">shadow</tspan></text>
    <text word-spacing="0" text-anchor="middle" letter-spacing="0" font-size="10" font-family="Noto Sans" y="8" x="67" id="text2130-0-2-0-4"><tspan text-anchor="middle" font-size="10" y="8" x="67" id="tspan2128-4-9-4-3">mask</tspan></text>
    <text word-spacing="0" text-anchor="middle" letter-spacing="0" font-size="10" font-family="Noto Sans" y="8" x="129" id="text2130-0-2-0-4-1"><tspan text-anchor="middle" font-size="10" y="8" x="129" id="tspan2128-4-9-4-3-4">background</tspan></text>
    <g fill-rule="evenodd" transform="translate(238 140)" id="toolbutton-hover-bottom">
        <path opacity=".001" fill-opacity=".003922" d="m4-11v3h22v-3z" id="path1565-7-9" />
        <path fill="currentColor" class="ColorScheme-ButtonHover" d="m4-9v1h22v-1z" id="path1565-4" />
    </g>
    <g fill-rule="evenodd" transform="translate(238 140)" id="toolbutton-hover-bottomright">
        <path opacity=".001" fill-opacity=".003922" d="m27-8v-3h3c0 1.662-1.338 3-3 3z" id="rect1509-7-9-6-2-2" />
        <path fill="currentColor" class="ColorScheme-ButtonHover" d="m29-11c0 1.108-.892 2-2 2v1c1.662 0 3-1.338 3-3z" id="path1561-6" />
    </g>
    <g fill-rule="evenodd" transform="translate(238 140)" id="toolbutton-hover-right">
        <path opacity=".001" fill-opacity=".003922" d="m27-12h3v-22h-3z" id="path1565-7-8-1" />
        <path fill="currentColor" class="ColorScheme-ButtonHover" d="m29-34v22h1v-22z" id="path1559-2" />
    </g>
    <g fill-rule="evenodd" transform="matrix(-1 0 0 -1 268 94)" id="toolbutton-hover-top">
        <path opacity=".001" fill-opacity=".003922" d="m4-11v3h22v-3z" id="path1565-7-9-8" />
        <path fill="currentColor" class="ColorScheme-ButtonHover" d="m4-9v1h22v-1z" id="path1565-4-9" />
    </g>
    <g fill-rule="evenodd" transform="matrix(-1 0 0 -1 268 94)" id="toolbutton-hover-topleft">
        <path opacity=".001" fill-opacity=".003922" d="m27-8v-3h3c0 1.662-1.338 3-3 3z" id="rect1509-7-9-6-2-2-8" />
        <path fill="currentColor" class="ColorScheme-ButtonHover" d="m29-11c0 1.108-.892 2-2 2v1c1.662 0 3-1.338 3-3z" id="path1561-6-8" />
    </g>
    <g fill-rule="evenodd" transform="matrix(-1 0 0 -1 268 94)" id="toolbutton-hover-left">
        <path opacity=".001" fill-opacity=".003922" d="m27-12h3v-22h-3z" id="path1565-7-8-1-6" />
        <path fill="currentColor" class="ColorScheme-ButtonHover" d="m29-34v22h1v-22z" id="path1559-2-8" />
    </g>
    <g fill-rule="evenodd" transform="matrix(1 0 0 -1 238 94)" id="toolbutton-hover-topright">
        <path opacity=".001" fill-opacity=".003922" d="m27-8v-3h3c0 1.662-1.338 3-3 3z" id="rect1509-7-9-6-2-2-83" />
        <path fill="currentColor" class="ColorScheme-ButtonHover" d="m29-11c0 1.108-.892 2-2 2v1c1.662 0 3-1.338 3-3z" id="path1561-6-3" />
    </g>
    <g fill-rule="evenodd" transform="matrix(-1 0 0 1 268 140)" id="toolbutton-hover-bottomleft">
        <path opacity=".001" fill-opacity=".003922" d="m27-8v-3h3c0 1.662-1.338 3-3 3z" id="rect1509-7-9-6-2-2-0" />
        <path fill="currentColor" class="ColorScheme-ButtonHover" d="m29-11c0 1.108-.892 2-2 2v1c1.662 0 3-1.338 3-3z" id="path1561-6-4" />
    </g>
    <path opacity=".001" fill-rule="evenodd" fill-opacity=".003922" d="m242 106h22v22h-22z" id="toolbutton-hover-center" />
    <g fill-rule="evenodd" id="toolbutton-focus-bottomleft">
        <path opacity=".2" fill="currentColor" class="ColorScheme-ButtonFocus" d="m237 167c0 2.216 1.784 4 4 4v-1c-1.662 0-3-1.338-3-3z" id="rect2974" />
        <path opacity=".001" fill-opacity=".003922" d="m241 170v-3h-3c0 1.662 1.338 3 3 3z" id="rect1509-7-9-6-2-2-0-8" />
        <path fill="currentColor" class="ColorScheme-ButtonFocus" d="m239 167c0 1.108.892 2 2 2v1c-1.662 0-3-1.338-3-3z" id="path1561-6-4-7" />
    </g>
    <path fill-rule="evenodd" fill="currentColor" class="ColorScheme-ButtonFocus" d="m241 178c-1.662 0-3 1.338-3 3h3v-2z" id="toolbutton-pressed-topleft" />
    <path fill-rule="evenodd" fill="currentColor" class="ColorScheme-ButtonFocus" d="m242 182h22v22h-22z" id="toolbutton-pressed-center" />
    <path fill-rule="evenodd" fill="currentColor" class="ColorScheme-ButtonFocus" d="m264 208v-3h-22v3z" id="toolbutton-pressed-bottom" />
    <path fill-rule="evenodd" fill="currentColor" class="ColorScheme-ButtonFocus" d="m265 208c1.662 0 3-1.338 3-3h-3v2z" id="toolbutton-pressed-bottomright" />
    <path fill-rule="evenodd" fill="currentColor" class="ColorScheme-ButtonFocus" d="m268 182h-3v22h3z" id="toolbutton-pressed-right" />
    <path fill-rule="evenodd" fill="currentColor" class="ColorScheme-ButtonFocus" d="m268 181c0-1.662-1.338-3-3-3v3h2z" id="toolbutton-pressed-topright" />
    <path fill-rule="evenodd" fill="currentColor" class="ColorScheme-ButtonFocus" d="m238 204h3v-22h-3z" id="toolbutton-pressed-left" />
    <path fill-rule="evenodd" fill="currentColor" class="ColorScheme-ButtonFocus" d="m238 205c0 1.662 1.338 3 3 3v-3h-2z" id="toolbutton-pressed-bottomleft" />
    <g fill-rule="evenodd" id="focus-bottom">
        <path opacity=".001" fill-opacity=".003922" fill="currentColor" class="ColorScheme-ButtonBackground" d="m-202-170h22v2h-22z" transform="scale(-1)" id="rect829-6-5-2-9" />
        <path fill="currentColor" class="ColorScheme-ButtonFocus" d="m-202-170h22v1h-22z" transform="scale(-1)" id="rect829-6-2-6-6-9" />
        <path opacity=".2" fill="currentColor" class="ColorScheme-ButtonFocus" d="m180 170v1h22v-1z" id="path1565-4-90-2" />
    </g>
    <g fill-rule="evenodd" id="focus-bottomleft">
        <path opacity=".001" fill-opacity=".003922" fill="currentColor" class="ColorScheme-ButtonBackground" d="m176 168c0 1.108.892 2 2 2v-2z" id="rect833-7-3-55-6-7" />
        <path fill="currentColor" class="ColorScheme-ButtonFocus" d="m176 168c0 1.108.892 2 2 2v-1c-.554 0-1-.446-1-1z" id="path915-4-8-2" />
        <path opacity=".2" fill="currentColor" class="ColorScheme-ButtonFocus" d="m176 168c0 1.108.892 2 2 2v1c-1.662 0-3-1.338-3-3z" id="path1561-6-4-7-2" />
    </g>
    <path fill-rule="evenodd" fill="currentColor" class="ColorScheme-ButtonFocus" d="m118 144h22v22h-22z" id="focus-background-center" />
    <g fill-rule="evenodd" transform="translate(114 140)" id="focus-background-bottomleft">
        <path fill="currentColor" class="ColorScheme-ButtonFocus" d="m0 28c0 1.108.892 2 2 2v-2z" id="rect833-7-3-55-1-3" />
        <path opacity=".3" fill="currentColor" class="ColorScheme-ButtonText" d="m0 28c0 1.108.892 2 2 2v-1c-.554 0-1-.446-1-1z" id="path915-4-7-1" />
    </g>
    <g fill-rule="evenodd" transform="translate(114 140)" id="focus-background-bottom">
        <path fill="currentColor" class="ColorScheme-ButtonFocus" d="m-26-30h22v2h-22z" transform="scale(-1)" id="rect829-6-5-1-9" />
        <path opacity=".3" fill="currentColor" class="ColorScheme-ButtonText" d="m-26-30h22v1h-22z" transform="scale(-1)" id="rect829-6-2-6-1-0" />
    </g>
    <g fill-rule="evenodd" transform="matrix(1 0 0 -1 114 170)" id="focus-background-topleft">
        <path fill="currentColor" class="ColorScheme-ButtonFocus" d="m0 28c0 1.108.892 2 2 2v-2z" id="rect833-7-3-1-3-9-6" />
        <path opacity=".3" fill="currentColor" class="ColorScheme-ButtonText" d="m0 28c0 1.108.892 2 2 2v-1c-.554 0-1-.446-1-1z" id="path915-2-7-7-7" />
    </g>
    <g fill-rule="evenodd" transform="matrix(1 0 0 -1 114 170)" id="focus-background-top">
        <path fill="currentColor" class="ColorScheme-ButtonFocus" d="m-26-30h22v2h-22z" transform="scale(-1)" id="rect829-6-0-5-6-4" />
        <path opacity=".3" fill="currentColor" class="ColorScheme-ButtonText" d="m-26-30h22v1h-22z" transform="scale(-1)" id="rect829-6-2-9-2-7-0" />
    </g>
    <g fill-rule="evenodd" transform="matrix(0 1 1 0 114 140)" id="focus-background-topright">
        <path fill="currentColor" class="ColorScheme-ButtonFocus" d="m0 28c0 1.108.892 2 2 2v-2z" id="rect833-7-3-6-4-6-4" />
        <path opacity=".3" fill="currentColor" class="ColorScheme-ButtonText" d="m0 28c0 1.108.892 2 2 2v-1c-.554 0-1-.446-1-1z" id="path915-0-7-5-7" />
    </g>
    <g fill-rule="evenodd" transform="matrix(0 1 1 0 114 140)" id="focus-background-right">
        <path fill="currentColor" class="ColorScheme-ButtonFocus" d="m-26-30h22v2h-22z" transform="scale(-1)" id="rect829-6-26-4-3-8" />
        <path opacity=".3" fill="currentColor" class="ColorScheme-ButtonText" d="m-26-30h22v1h-22z" transform="scale(-1)" id="rect829-6-2-1-3-9-5" />
    </g>
    <g fill-rule="evenodd" transform="matrix(-1 0 0 1 144 140)" id="focus-background-bottomright">
        <path fill="currentColor" class="ColorScheme-ButtonFocus" d="m0 28c0 1.108.892 2 2 2v-2z" id="rect833-7-3-7-7-8-2" />
        <path opacity=".3" fill="currentColor" class="ColorScheme-ButtonText" d="m0 28c0 1.108.892 2 2 2v-1c-.554 0-1-.446-1-1z" id="path915-9-8-1-6" />
    </g>
    <g fill-rule="evenodd" transform="matrix(0 1 -1 0 144 140)" id="focus-background-left">
        <path fill="currentColor" class="ColorScheme-ButtonFocus" d="m-26-30h22v2h-22z" transform="scale(-1)" id="rect829-6-26-0-8-9-6" />
        <path opacity=".3" fill="currentColor" class="ColorScheme-ButtonText" d="m-26-30h22v1h-22z" transform="scale(-1)" id="rect829-6-2-1-2-8-3-6" />
    </g>
    <g fill-rule="evenodd" transform="matrix(1 0 0 -1 0 310)" id="focus-topleft">
        <path opacity=".001" fill-opacity=".003922" fill="currentColor" class="ColorScheme-ButtonBackground" d="m176 168c0 1.108.892 2 2 2v-2z" id="rect833-7-3-55-6-7-6" />
        <path fill="currentColor" class="ColorScheme-ButtonFocus" d="m176 168c0 1.108.892 2 2 2v-1c-.554 0-1-.446-1-1z" id="path915-4-8-2-0" />
        <path opacity=".2" fill="currentColor" class="ColorScheme-ButtonFocus" d="m176 168c0 1.108.892 2 2 2v1c-1.662 0-3-1.338-3-3z" id="path1561-6-4-7-2-7" />
    </g>
    <g fill-rule="evenodd" transform="matrix(-1 0 0 -1 382 310)" id="focus-topright">
        <path opacity=".001" fill-opacity=".003922" fill="currentColor" class="ColorScheme-ButtonBackground" d="m176 168c0 1.108.892 2 2 2v-2z" id="rect833-7-3-55-6-7-1" />
        <path fill="currentColor" class="ColorScheme-ButtonFocus" d="m176 168c0 1.108.892 2 2 2v-1c-.554 0-1-.446-1-1z" id="path915-4-8-2-01" />
        <path opacity=".2" fill="currentColor" class="ColorScheme-ButtonFocus" d="m176 168c0 1.108.892 2 2 2v1c-1.662 0-3-1.338-3-3z" id="path1561-6-4-7-2-3" />
    </g>
    <g fill-rule="evenodd" transform="matrix(-1 0 0 1 382 0)" id="focus-bottomright">
        <path opacity=".001" fill-opacity=".003922" fill="currentColor" class="ColorScheme-ButtonBackground" d="m176 168c0 1.108.892 2 2 2v-2z" id="rect833-7-3-55-6-7-7" />
        <path fill="currentColor" class="ColorScheme-ButtonFocus" d="m176 168c0 1.108.892 2 2 2v-1c-.554 0-1-.446-1-1z" id="path915-4-8-2-2" />
        <path opacity=".2" fill="currentColor" class="ColorScheme-ButtonFocus" d="m176 168c0 1.108.892 2 2 2v1c-1.662 0-3-1.338-3-3z" id="path1561-6-4-7-2-6" />
    </g>
    <g fill-rule="evenodd" transform="matrix(1 0 0 -1 0 310)" id="focus-top">
        <path opacity=".001" fill-opacity=".003922" fill="currentColor" class="ColorScheme-ButtonBackground" d="m-202-170h22v2h-22z" transform="scale(-1)" id="rect829-6-5-2-9-5" />
        <path fill="currentColor" class="ColorScheme-ButtonFocus" d="m-202-170h22v1h-22z" transform="scale(-1)" id="rect829-6-2-6-6-9-2" />
        <path opacity=".2" fill="currentColor" class="ColorScheme-ButtonFocus" d="m180 170v1h22v-1z" id="path1565-4-90-2-0" />
    </g>
    <g fill-rule="evenodd" transform="matrix(0 -1 1 0 36 346)" id="focus-right">
        <path opacity=".001" fill-opacity=".003922" fill="currentColor" class="ColorScheme-ButtonBackground" d="m-202-170h22v2h-22z" transform="scale(-1)" id="rect829-6-5-2-9-0" />
        <path fill="currentColor" class="ColorScheme-ButtonFocus" d="m-202-170h22v1h-22z" transform="scale(-1)" id="rect829-6-2-6-6-9-9" />
        <path opacity=".2" fill="currentColor" class="ColorScheme-ButtonFocus" d="m180 170v1h22v-1z" id="path1565-4-90-2-9" />
    </g>
    <g fill-rule="evenodd" transform="matrix(0 -1 -1 0 346 346)" id="focus-left">
        <path opacity=".001" fill-opacity=".003922" fill="currentColor" class="ColorScheme-ButtonBackground" d="m-202-170h22v2h-22z" transform="scale(-1)" id="rect829-6-5-2-9-0-1" />
        <path fill="currentColor" class="ColorScheme-ButtonFocus" d="m-202-170h22v1h-22z" transform="scale(-1)" id="rect829-6-2-6-6-9-9-0" />
        <path opacity=".2" fill="currentColor" class="ColorScheme-ButtonFocus" d="m180 170v1h22v-1z" id="path1565-4-90-2-9-3" />
    </g>
    <g fill-rule="evenodd" transform="matrix(1 0 0 -1 0 310)" id="toolbutton-focus-topleft">
        <path opacity=".2" fill="currentColor" class="ColorScheme-ButtonFocus" d="m237 167c0 2.216 1.784 4 4 4v-1c-1.662 0-3-1.338-3-3z" id="rect2974-6" />
        <path opacity=".001" fill-opacity=".003922" d="m241 170v-3h-3c0 1.662 1.338 3 3 3z" id="rect1509-7-9-6-2-2-0-8-7" />
        <path fill="currentColor" class="ColorScheme-ButtonFocus" d="m239 167c0 1.108.892 2 2 2v1c-1.662 0-3-1.338-3-3z" id="path1561-6-4-7-6" />
    </g>
    <g fill-rule="evenodd" transform="matrix(-1 0 0 -1 506 310)" id="toolbutton-focus-topright">
        <path opacity=".2" fill="currentColor" class="ColorScheme-ButtonFocus" d="m237 167c0 2.216 1.784 4 4 4v-1c-1.662 0-3-1.338-3-3z" id="rect2974-9" />
        <path opacity=".001" fill-opacity=".003922" d="m241 170v-3h-3c0 1.662 1.338 3 3 3z" id="rect1509-7-9-6-2-2-0-8-75" />
        <path fill="currentColor" class="ColorScheme-ButtonFocus" d="m239 167c0 1.108.892 2 2 2v1c-1.662 0-3-1.338-3-3z" id="path1561-6-4-7-9" />
    </g>
    <g fill-rule="evenodd" transform="matrix(-1 0 0 1 506 0)" id="toolbutton-focus-bottomright">
        <path opacity=".2" fill="currentColor" class="ColorScheme-ButtonFocus" d="m237 167c0 2.216 1.784 4 4 4v-1c-1.662 0-3-1.338-3-3z" id="rect2974-8" />
        <path opacity=".001" fill-opacity=".003922" d="m241 170v-3h-3c0 1.662 1.338 3 3 3z" id="rect1509-7-9-6-2-2-0-8-5" />
        <path fill="currentColor" class="ColorScheme-ButtonFocus" d="m239 167c0 1.108.892 2 2 2v1c-1.662 0-3-1.338-3-3z" id="path1561-6-4-7-3" />
    </g>
    <path opacity=".001" fill-rule="evenodd" fill-opacity=".003922" d="m180 106h22v22h-22z" id="hover-center" />
    <rect fill-rule="evenodd" fill="#ff00ff" height="0.001" width="2" y="102" x="190" id="hover-hint-top-margin" />
    <rect fill-rule="evenodd" fill="#ff00ff" height="0.001" width="2" y="131" x="190" id="hover-hint-bottom-margin" />
    <rect fill-rule="evenodd" fill="#ff00ff" height="2" width="0.001" y="116" x="205" id="hover-hint-right-margin" />
    <path fill-rule="evenodd" fill="#ff00ff" d="m 190,139 h 2 v 1 h -2 z" id="focus-hint-top-margin" />
    <path fill-rule="evenodd" fill="#ff00ff" d="m 190,170 h 2 v 1 h -2 z" id="focus-hint-bottom-margin" />
    <path fill-rule="evenodd" fill="#ff00ff" d="m 175,154 h 1 v 2 h -1 z" id="focus-hint-left-margin" />
    <path fill-rule="evenodd" fill="#ff00ff" d="m 206,154 h 1 v 2 h -1 z" id="focus-hint-right-margin" />
    <path fill-rule="evenodd" fill="#ff00ff" d="m 190,178 h 2 v 4 h -2 z" id="pressed-hint-top-margin" style="stroke-width:0.999996" />
    <path fill-rule="evenodd" fill="#ff00ff" d="m 190,204 h 2 v 4 h -2 z" id="pressed-hint-bottom-margin" style="stroke-width:0.999996" />
    <path fill-rule="evenodd" fill="#ff00ff" d="m 176,192 h 4 v 2 h -4 z" id="pressed-hint-left-margin" style="stroke-width:0.999996" />
    <path fill-rule="evenodd" fill="#ff00ff" d="m 200,192 h 4 v 2 h -4 z" id="pressed-hint-right-margin" style="stroke-width:0.999996" />
    <rect fill-rule="evenodd" fill="#ff00ff" height="0.001" width="2" y="102" x="252" id="toolbutton-hover-hint-top-margin" />
    <rect fill-rule="evenodd" fill="#ff00ff" height="0.001" width="2" y="131" x="252" id="toolbutton-hover-hint-bottom-margin" />
    <rect fill-rule="evenodd" fill="#ff00ff" height="2" width="0.001" y="116" x="267" id="toolbutton-hover-hint-right-margin" />
    <path fill-rule="evenodd" fill="#ff00ff" d="m 252,139 h 2 v 1 h -2 z" id="toolbutton-focus-hint-top-margin" />
    <path fill-rule="evenodd" fill="#ff00ff" d="m 252,170 h 2 v 1 h -2 z" id="toolbutton-focus-hint-bottom-margin" />
    <path fill-rule="evenodd" fill="#ff00ff" d="m 237,154 h 1 v 2 h -1 z" id="toolbutton-focus-hint-left-margin" />
    <path fill-rule="evenodd" fill="#ff00ff" d="m 268,154 h 1 v 2 h -1 z" id="toolbutton-focus-hint-right-margin" />
    <path fill-rule="evenodd" fill="#ff00ff" d="m 252,178 h 2 v 4 h -2 z" id="toolbutton-pressed-hint-top-margin" style="stroke-width:0.999996" />
    <path fill-rule="evenodd" fill="#ff00ff" d="m 252,204 h 2 v 4 h -2 z" id="toolbutton-pressed-hint-bottom-margin" style="stroke-width:0.999996" />
    <path fill-rule="evenodd" fill="#ff00ff" d="m 238,192 h 4 v 2 h -4 z" id="toolbutton-pressed-hint-left-margin" style="stroke-width:0.999996" />
    <path fill-rule="evenodd" fill="#ff00ff" d="m 264,192 h 4 v 2 h -4 z" id="toolbutton-pressed-hint-right-margin" style="stroke-width:0.999996" />
    <path fill-rule="evenodd" fill="#ff00ff" d="m 128,140 h 2 v 4 h -2 z" id="focus-background-hint-top-margin" style="stroke-width:0.999996" />
    <path fill-rule="evenodd" fill="#ff00ff" d="m 128,166 h 2 v 4 h -2 z" id="focus-background-hint-bottom-margin" style="stroke-width:0.999996" />
    <path fill-rule="evenodd" fill="#ff00ff" d="m 114,154 h 4 v 2 h -4 z" id="focus-background-hint-left-margin" style="stroke-width:0.999996" />
    <path fill-rule="evenodd" fill="#ff00ff" d="m 140,154 h 4 v 2 h -4 z" id="focus-background-hint-right-margin" style="stroke-width:0.999996" />
    <path fill-rule="evenodd" fill="#f0f" d="m8e-6 -64h87.999992v24h-87.999992z" id="rect1134" />
    <text word-spacing="0" text-anchor="middle" letter-spacing="0" font-size="10" font-family="Noto Sans" y="-48" x="44.000008" id="text2130-0-2-0-4-7"><tspan text-anchor="middle" font-size="10" y="-48" x="44.000008" id="tspan2128-4-9-4-3-5">margin hint</tspan></text>
    <path fill-rule="evenodd" fill="#ff0" d="m8e-6 -88h87.999992v24h-87.999992z" id="rect1134-3" />
    <text word-spacing="0" text-anchor="middle" letter-spacing="0" font-size="10" font-family="Noto Sans" y="-72" x="44.000008" id="text2130-0-2-0-4-7-5"><tspan text-anchor="middle" font-size="10" y="-72" x="44.000008" id="tspan2128-4-9-4-3-5-6">simulated area</tspan></text>
    <path fill-rule="evenodd" fill="#00ff00" d="m -8,192 h 3.9999999 v 4 H -8 Z" id="pressed-hint-compose-over-border" style="stroke-width:1" />
    <path fill-rule="evenodd" fill="#0f0" d="m8e-6 -40h87.999992v24h-87.999992z" id="rect1134-36" />
    <text word-spacing="0" text-anchor="middle" letter-spacing="0" font-size="10" font-family="Noto Sans" y="-24" x="44.000008" id="text2130-0-2-0-4-7-0"><tspan text-anchor="middle" font-size="10" y="-24" x="44.000008" id="tspan2128-4-9-4-3-5-62">other hint</tspan></text>
    <text id="text2130-0-2-0-4-7-3" x="96" y="-48" font-family="'Noto Sans'" font-size="10px" letter-spacing="0" text-anchor="middle" word-spacing="0" style="text-align:start;text-anchor:start"><tspan id="tspan2128-4-9-4-3-5-67" x="96" y="-48" font-size="10px" text-anchor="middle" style="text-align:start;text-anchor:start">NOTE: Some margin hints have 0.001 width or height because you can't use exactly 0</tspan></text>
    <path id="focus-center" d="m 180,144 h 22 v 22 h -22 z" fill-opacity="0.00392199" fill-rule="evenodd" opacity="0.00100002" />
    <path id="toolbutton-focus-center" d="m 242,144 h 22 v 22 h -22 z" fill-opacity="0.00392199" fill-rule="evenodd" opacity="0.00100002" />
    <rect y="40" x="176" height="2" width="0.001" id="shadow-hint-left-margin" style="fill:#ff00ff;fill-rule:evenodd;stroke-width:1;fill-opacity:1" />
    <rect style="fill:#ff00ff;fill-opacity:1;fill-rule:evenodd;stroke-width:1" id="hover-hint-left-margin" width="0.001" height="2" x="176" y="116" />
    <rect y="116" x="238" height="2" width="0.001" id="toolbutton-hover-hint-left-margin" style="fill:#ff00ff;fill-opacity:1;fill-rule:evenodd;stroke-width:1" />
</svg>
