<?xml version="1.0" encoding="UTF-8" standalone="no"?>
<svg xmlns:svg="http://www.w3.org/2000/svg" xmlns="http://www.w3.org/2000/svg" xmlns:xlink="http://www.w3.org/1999/xlink" xmlns:sodipodi="http://sodipodi.sourceforge.net/DTD/sodipodi-0.dtd" xmlns:inkscape="http://www.inkscape.org/namespaces/inkscape" inkscape:version="1.1-dev (d80adc983d, 2020-06-15)" sodipodi:docname="button.svg" version="1.1" viewBox="0 0 288 224" id="svg2">
    <defs id="defs319">
        <linearGradient id="normal-gradient" inkscape:collect="always">
            <stop id="stop1138" offset="0" style="stop-color:#000000;stop-opacity:0.02745098" />
            <stop id="stop1140" offset="1" style="stop-color:#ffffff;stop-opacity:0.03" />
        </linearGradient>
        <linearGradient inkscape:collect="always" id="focus-background-gradient">
            <stop style="stop-color:#000000;stop-opacity:0.09803922" offset="0" id="stop1127" />
            <stop style="stop-color:#ffffff;stop-opacity:0.09803922" offset="1" id="stop1129" />
        </linearGradient>
        <linearGradient inkscape:collect="always" xlink:href="#focus-background-gradient" id="linearGradient1133" x1="129" y1="168" x2="129" y2="142" gradientUnits="userSpaceOnUse" />
        <linearGradient gradientUnits="userSpaceOnUse" y2="142" x2="129" y1="168" x1="129" id="linearGradient1133-3" xlink:href="#normal-gradient" inkscape:collect="always" gradientTransform="translate(62,-76)" />
        <linearGradient gradientTransform="translate(-176,-94)" gradientUnits="userSpaceOnUse" y2="64" x2="191" y1="90" x1="191" id="linearGradient1148" xlink:href="#normal-gradient" inkscape:collect="always" />
        <linearGradient gradientTransform="matrix(0.09090909,0,0,11,11.63636,-700)" inkscape:collect="always" xlink:href="#normal-gradient" id="linearGradient1148-3" x1="191.00005" y1="66.181816" x2="191.00005" y2="63.81818" gradientUnits="userSpaceOnUse" />
        <linearGradient gradientTransform="translate(-176,-36)" inkscape:collect="always" xlink:href="#normal-gradient" id="linearGradient1148-9" x1="191" y1="66" x2="191" y2="40.000019" gradientUnits="userSpaceOnUse" />
        <linearGradient gradientUnits="userSpaceOnUse" y2="90" x2="177" y1="64" x1="177" id="linearGradient1233-6-8" xlink:href="#normal-gradient" inkscape:collect="always" gradientTransform="matrix(1,0,0,-1,-176,94)" />
        <linearGradient gradientTransform="matrix(1,0,0,-1,-176,94)" inkscape:collect="always" xlink:href="#normal-gradient" id="linearGradient1233-6" x1="177" y1="64" x2="177" y2="90" gradientUnits="userSpaceOnUse" />
        <linearGradient gradientUnits="userSpaceOnUse" y2="63.81818" x2="191.00005" y1="66.181816" x1="191.00005" id="linearGradient1148-3-3" xlink:href="#normal-gradient" inkscape:collect="always" gradientTransform="matrix(0.09090909,0,0,11,-46.36364,-700)" />
        <linearGradient gradientTransform="rotate(-90,71,135)" inkscape:collect="always" xlink:href="#normal-gradient" id="linearGradient1233-9" x1="177" y1="90" x2="177" y2="64" gradientUnits="userSpaceOnUse" />
        <linearGradient gradientTransform="matrix(1,0,0,-1,-176,94)" gradientUnits="userSpaceOnUse" y2="64" x2="177" y1="90" x1="177" id="linearGradient1233" xlink:href="#normal-gradient" inkscape:collect="always" />
        <linearGradient gradientTransform="matrix(0.09090909,0,0,1,17.27273,-140)" inkscape:collect="always" xlink:href="#focus-background-gradient" id="linearGradient1133-0" x1="129" y1="168" x2="129" y2="142" gradientUnits="userSpaceOnUse" />
        <linearGradient gradientUnits="userSpaceOnUse" y2="64" x2="177" y1="90" x1="177" id="linearGradient1233-9-7" xlink:href="#focus-background-gradient" inkscape:collect="always" gradientTransform="rotate(-90,71,135)" />
        <linearGradient gradientTransform="translate(-114,-170)" gradientUnits="userSpaceOnUse" y2="140" x2="129" y1="166" x1="129" id="linearGradient1356" xlink:href="#focus-background-gradient" inkscape:collect="always" />
        <linearGradient gradientTransform="matrix(1,0,0,-1,-176,94)" inkscape:collect="always" xlink:href="#focus-background-gradient" id="linearGradient1233-8" x1="177" y1="90" x2="177" y2="64" gradientUnits="userSpaceOnUse" />
        <linearGradient gradientUnits="userSpaceOnUse" y2="142" x2="129" y1="168" x1="129" id="linearGradient1133-0-5" xlink:href="#focus-background-gradient" inkscape:collect="always" gradientTransform="matrix(0.09090909,0,0,1,-40.72727,-140)" />
        <linearGradient gradientUnits="userSpaceOnUse" y2="90" x2="177" y1="64" x1="177" id="linearGradient1233-6-3" xlink:href="#focus-background-gradient" inkscape:collect="always" gradientTransform="matrix(1,0,0,-1,-176,94)" />
        <linearGradient gradientTransform="translate(-114,-112)" inkscape:collect="always" xlink:href="#focus-background-gradient" id="linearGradient1356-6" x1="129" y1="141.99997" x2="129" y2="116" gradientUnits="userSpaceOnUse" />
        <linearGradient gradientTransform="matrix(1,0,0,-1,-176,94)" inkscape:collect="always" xlink:href="#focus-background-gradient" id="linearGradient1233-6-8-4" x1="177" y1="64" x2="177" y2="90" gradientUnits="userSpaceOnUse" />
    </defs>
    <sodipodi:namedview inkscape:current-layer="svg2" showgrid="true" id="namedview317" inkscape:window-height="480" inkscape:window-width="640" inkscape:pageshadow="2" inkscape:pageopacity="0" guidetolerance="10" gridtolerance="10" objecttolerance="10" borderopacity="1" bordercolor="#666666" pagecolor="#ffffff" inkscape:snap-text-baseline="true" inkscape:snap-smooth-nodes="true">
        <inkscape:grid id="grid1136" type="xygrid" />
    </sodipodi:namedview>
    <style id="current-color-scheme" type="text/css">
        .ColorScheme-Highlight {
            color:#3daee9;
            stop-color:#3daee9;
        }
        .ColorScheme-ButtonText {
            color:#232629;
            stop-color:#232629;
        }
        .ColorScheme-ButtonBackground {
            color:#eff0f1;
            stop-color:#eff0f1;
        }
        .ColorScheme-ButtonHover {
            color:#93cee9;
            stop-color:#93cee9;
        }
        .ColorScheme-ButtonFocus{
            color:#3daee9;
            stop-color:#3daee9;
        }
    </style>
    <rect style="fill:#ffff00;fill-rule:evenodd;fill-opacity:1" id="rect1206" width="30" height="30" x="176" y="26" ry="2" />
    <g fill-rule="evenodd" transform="translate(177,64)" id="shadow-right">
        <path sodipodi:nodetypes="ccccc" opacity="0.00100002" fill-opacity="0.00392199" d="m 27,-12 h 3 v -22 h -3 z" id="path1565-7-8" />
        <path opacity="0.15" d="m 29,-34 v 22 h 1 v -22 z" id="path1559" />
    </g>
    <g fill-rule="evenodd" transform="translate(176,65)" id="shadow-bottom">
        <path sodipodi:nodetypes="ccccc" opacity="0.00100002" fill-opacity="0.00392199" d="m 4,-11 v 3 h 22 v -3 z" id="path1565-7" />
        <path opacity="0.15" d="m 4,-9 v 1 h 22 v -1 z" id="path1565" />
    </g>
    <g fill-rule="evenodd" transform="translate(176,65)" id="shadow-bottomleft">
        <path sodipodi:nodetypes="cccc" opacity="0.00100002" fill-opacity="0.00392199" d="m 0,-11 c 0,1.662 1.338,3 3,3 v -3 z" id="rect1509-7-9-6-1" />
        <path sodipodi:nodetypes="cccsc" opacity="0.15" d="M 0.04102,-10.595703 C 0.23928,-9.128502 1.47674,-8 3,-8 V -9 H 2 C 1.0305,-9 0.2269,-9.682695 0.04102,-10.595703 Z" id="path1563" />
    </g>
    <g fill-rule="evenodd" transform="translate(177,65)" id="shadow-bottomright">
        <path sodipodi:nodetypes="cccc" opacity="0.00100002" fill-opacity="0.00392199" d="m 27,-11 v 3 c 1.662,0 3,-1.338 3,-3 z" id="rect1509-7-9-6-2" />
        <path sodipodi:nodetypes="ccccc" opacity="0.15" d="m 29,-11 c 0,1.108 -0.892,2 -2,2 v 1 c 1.662,0 3,-1.338 3,-3 z" id="path1561" />
    </g>
    <g fill-rule="evenodd" transform="translate(177,64)" id="shadow-topright">
        <path sodipodi:nodetypes="cccc" opacity="0.00100002" fill-opacity="0.00392199" d="m 27,-35 h 3 c 0,-1.662 -1.338,-3 -3,-3 z" id="rect1509-7-9-6" />
        <path sodipodi:nodetypes="csccc" opacity="0.15" d="M 27.4043,-37.958984 C 28.3173,-37.773102 29,-36.9695 29,-36 v 1 h 1 c 0,-1.523257 -1.1285,-2.760718 -2.5957,-2.958984 z" id="rect1509-5" />
    </g>
    <path opacity="0.00100002" fill-rule="evenodd" fill-opacity="0.00392199" d="m 180,31 h 22 v 22 h -22 z" id="shadow-center" />
    <path opacity="0.00100002" fill-rule="evenodd" fill-opacity="0.00392199" d="m 176,30 v 22 h 3 V 30 Z" id="shadow-left" sodipodi:nodetypes="ccccc" />
    <path opacity="0.00100002" fill-rule="evenodd" fill-opacity="0.00392199" d="m 180,26 v 3 h 22 v -3 z" id="shadow-top" sodipodi:nodetypes="ccccc" />
    <path fill-rule="evenodd" fill="#ff00ff" d="m 190,26 h 2 v 1e-6 h -2 z" id="shadow-hint-top-margin" style="stroke-width:0.999997" />
    <path fill-rule="evenodd" fill="#ff00ff" d="m 190,56 h 2 v 1 h -2 z" id="shadow-hint-bottom-margin" style="stroke-width:0.999997" />
    <path fill-rule="evenodd" fill="#ff00ff" d="m 206,40 h 1 v 2 h -1 z" id="shadow-hint-right-margin" style="stroke-width:0.999997" />
    <path sodipodi:nodetypes="cccc" opacity="0.00100002" fill-rule="evenodd" fill-opacity="0.00392199" d="m 179,26 c -1.662,0 -3,1.338 -3,3 h 3 z" id="shadow-topleft" />
    <rect y="40" x="176" height="2" width="0.001" id="shadow-hint-left-margin" style="fill:#ff00ff;fill-opacity:1;fill-rule:evenodd;stroke-width:1" />
    <g id="normal-center">
        <path id="path34" fill-rule="evenodd" fill="currentColor" class="ColorScheme-ButtonBackground" d="m180 68h22v22h-22z" />
        <rect y="68" x="180" height="22" width="22" id="c" style="fill:url(#linearGradient1133-3);fill-opacity:1;fill-rule:evenodd" />
    </g>
    <g fill-rule="evenodd" transform="translate(174,66)" id="normal-bottomleft">
        <path fill="currentColor" class="ColorScheme-ButtonBackground" d="m 0,28 c 0,1.108 0.892,2 2,2 v -2 z" id="rect833-7-3" />
        <path opacity="0.3" fill="currentColor" class="ColorScheme-ButtonText" d="m 0,28 c 0,1.108 0.892,2 2,2 V 29 C 1.446,29 1,28.554 1,28 Z" id="path915" />
        <path id="bl" d="m 0,28 c 0,1.108 0.892,2 2,2 v -2 z" style="fill:url(#linearGradient1233-6);fill-opacity:1" />
    </g>
    <g fill-rule="evenodd" transform="translate(176,66)" id="normal-bottom">
        <path fill="currentColor" class="ColorScheme-ButtonBackground" d="m -26,-30 h 22 v 2 h -22 z" transform="scale(-1)" id="rect829-6" />
        <path opacity="0.3" fill="currentColor" class="ColorScheme-ButtonText" d="m -26,-30 h 22 v 1 h -22 z" transform="scale(-1)" id="rect829-6-2" />
        <rect style="fill:url(#linearGradient1148-9);fill-opacity:1;fill-rule:evenodd" id="b" width="22" height="2" x="4" y="28" />
    </g>
    <g fill-rule="evenodd" transform="matrix(1,0,0,-1,174,92)" id="normal-topleft">
        <path fill="currentColor" class="ColorScheme-ButtonBackground" d="m 0,28 c 0,1.108 0.892,2 2,2 v -2 z" id="rect833-7-3-1" />
        <path opacity="0.3" fill="currentColor" class="ColorScheme-ButtonText" d="m 0,28 c 0,1.108 0.892,2 2,2 V 29 C 1.446,29 1,28.554 1,28 Z" id="path915-2" />
        <path style="fill:url(#linearGradient1233);fill-opacity:1" d="m 0,28 c 0,1.108 0.892,2 2,2 v -2 z" id="tl" />
    </g>
    <g fill-rule="evenodd" transform="matrix(1,0,0,-1,176,92)" id="normal-top">
        <path fill="currentColor" class="ColorScheme-ButtonBackground" d="m -26,-30 h 22 v 2 h -22 z" transform="scale(-1)" id="rect829-6-0" />
        <path opacity="0.3" fill="currentColor" class="ColorScheme-ButtonText" d="m -26,-30 h 22 v 1 h -22 z" transform="scale(-1)" id="rect829-6-2-9" />
        <rect transform="scale(1,-1)" y="-30" x="4" height="2" width="22" id="t" style="fill:url(#linearGradient1148);fill-opacity:1;fill-rule:evenodd" />
    </g>
    <g fill-rule="evenodd" transform="matrix(0,1,1,0,178,62)" id="normal-topright">
        <path fill="currentColor" class="ColorScheme-ButtonBackground" d="m 0,28 c 0,1.108 0.892,2 2,2 v -2 z" id="rect833-7-3-6" />
        <path opacity="0.3" fill="currentColor" class="ColorScheme-ButtonText" d="m 0,28 c 0,1.108 0.892,2 2,2 V 29 C 1.446,29 1,28.554 1,28 Z" id="path915-0" />
        <path id="tr" d="M 2,30 C 0.892,30 0,29.108 0,28 h 2 z" style="fill:url(#linearGradient1233-9);fill-opacity:1" />
    </g>
    <g fill-rule="evenodd" transform="matrix(0,1,1,0,178,64)" id="normal-right">
        <path fill="currentColor" class="ColorScheme-ButtonBackground" d="m -26,-30 h 22 v 2 h -22 z" transform="scale(-1)" id="rect829-6-26" />
        <path opacity="0.3" fill="currentColor" class="ColorScheme-ButtonText" d="m -26,-30 h 22 v 1 h -22 z" transform="scale(-1)" id="rect829-6-2-1" />
        <rect transform="matrix(0,1,1,0,0,0)" style="fill:url(#linearGradient1148-3);fill-opacity:1;fill-rule:evenodd" id="r" width="2" height="22" x="28" y="4" />
    </g>
    <g fill-rule="evenodd" transform="matrix(-1,0,0,1,208,66)" id="normal-bottomright">
        <path fill="currentColor" class="ColorScheme-ButtonBackground" d="m 0,28 c 0,1.108 0.892,2 2,2 v -2 z" id="rect833-7-3-7" />
        <path opacity="0.3" fill="currentColor" class="ColorScheme-ButtonText" d="m 0,28 c 0,1.108 0.892,2 2,2 V 29 C 1.446,29 1,28.554 1,28 Z" id="path915-9" />
        <path style="fill:url(#linearGradient1233-6-8);fill-opacity:1" d="m 0,28 c 0,1.108 0.892,2 2,2 v -2 z" id="br" />
    </g>
    <g fill-rule="evenodd" transform="rotate(90,70,134)" id="normal-left">
        <path fill="currentColor" class="ColorScheme-ButtonBackground" d="m -26,-30 h 22 v 2 h -22 z" transform="scale(-1)" id="rect829-6-26-0" />
        <path opacity="0.3" fill="currentColor" class="ColorScheme-ButtonText" d="m -26,-30 h 22 v 1 h -22 z" transform="scale(-1)" id="rect829-6-2-1-2" />
        <rect transform="rotate(-90)" y="4" x="-30" height="22" width="2" id="l" style="fill:url(#linearGradient1148-3-3);fill-opacity:1;fill-rule:evenodd" />
    </g>
    <path fill-rule="evenodd" fill="#ff00ff" d="m 190,62 h 2 v 6 h -2 z" id="normal-hint-top-margin" style="stroke-width:0.999996" />
    <path fill-rule="evenodd" fill="#ff00ff" d="m 190,90 h 2 v 6 h -2 z" id="normal-hint-bottom-margin" style="stroke-width:0.999996" />
    <path fill-rule="evenodd" fill="#ff00ff" d="m 174,78 h 6 v 2 h -6 z" id="normal-hint-left-margin" style="stroke-width:0.999996" />
    <path fill-rule="evenodd" fill="#ff00ff" d="m 202,78 h 6 v 2 h -6 z" id="normal-hint-right-margin" style="stroke-width:0.999996" />
    <path fill-rule="evenodd" d="m56 68h22v22h-22z" id="mask-normal-center" />
    <path fill-rule="evenodd" d="m80 92v2c1.108 0 2-.892 2-2z" id="mask-normal-bottomright" />
    <path fill-rule="evenodd" d="m56 92v2h22v-2z" id="mask-normal-bottom" />
    <path fill-rule="evenodd" d="m52 92c0 1.108.892 2 2 2v-2h-1z" id="mask-normal-bottomleft" />
    <path fill-rule="evenodd" d="m80 68v22h2v-22z" id="mask-normal-right" />
    <path fill-rule="evenodd" d="m52 68v22h2v-22z" id="mask-normal-left" />
    <path fill-rule="evenodd" d="m80 64v2h2c0-1.108-.892-2-2-2z" id="mask-normal-topright" />
    <path fill-rule="evenodd" d="m56 64v2h22v-2z" id="mask-normal-top" />
    <path fill-rule="evenodd" d="m54 64c-1.108 0-2 .892-2 2h2v-1z" id="mask-normal-topleft" />
    <g fill-rule="evenodd" transform="translate(176 102)" id="hover-bottomleft">
        <path opacity=".001" fill-opacity=".003922" fill="currentColor" class="ColorScheme-ButtonBackground" d="m0 28c0 1.108.892 2 2 2v-2z" id="rect833-7-3-55" />
        <path fill="currentColor" class="ColorScheme-ButtonHover" d="m0 28c0 1.108.892 2 2 2v-1c-.554 0-1-.446-1-1z" id="path915-4" />
    </g>
    <g fill-rule="evenodd" transform="translate(176 102)" id="hover-bottom">
        <path opacity=".001" fill-opacity=".003922" fill="currentColor" class="ColorScheme-ButtonBackground" d="m-26-30h22v2h-22z" transform="scale(-1)" id="rect829-6-5" />
        <path fill="currentColor" class="ColorScheme-ButtonHover" d="m-26-30h22v1h-22z" transform="scale(-1)" id="rect829-6-2-6" />
    </g>
    <g fill-rule="evenodd" transform="matrix(1 0 0 -1 176 132)" id="hover-topleft">
        <path opacity=".001" fill-opacity=".003922" fill="currentColor" class="ColorScheme-ButtonBackground" d="m0 28c0 1.108.892 2 2 2v-2z" id="rect833-7-3-1-3" />
        <path fill="currentColor" class="ColorScheme-ButtonHover" d="m0 28c0 1.108.892 2 2 2v-1c-.554 0-1-.446-1-1z" id="path915-2-7" />
    </g>
    <g fill-rule="evenodd" transform="matrix(1 0 0 -1 176 132)" id="hover-top">
        <path opacity=".001" fill-opacity=".003922" fill="currentColor" class="ColorScheme-ButtonBackground" d="m-26-30h22v2h-22z" transform="scale(-1)" id="rect829-6-0-5" />
        <path fill="currentColor" class="ColorScheme-ButtonHover" d="m-26-30h22v1h-22z" transform="scale(-1)" id="rect829-6-2-9-2" />
    </g>
    <g fill-rule="evenodd" transform="matrix(0 1 1 0 176 102)" id="hover-topright">
        <path opacity=".001" fill-opacity=".003922" fill="currentColor" class="ColorScheme-ButtonBackground" d="m0 28c0 1.108.892 2 2 2v-2z" id="rect833-7-3-6-4" />
        <path fill="currentColor" class="ColorScheme-ButtonHover" d="m0 28c0 1.108.892 2 2 2v-1c-.554 0-1-.446-1-1z" id="path915-0-7" />
    </g>
    <g fill-rule="evenodd" transform="matrix(0 1 1 0 176 102)" id="hover-right">
        <path opacity=".001" fill-opacity=".003922" fill="currentColor" class="ColorScheme-ButtonBackground" d="m-26-30h22v2h-22z" transform="scale(-1)" id="rect829-6-26-4" />
        <path fill="currentColor" class="ColorScheme-ButtonHover" d="m-26-30h22v1h-22z" transform="scale(-1)" id="rect829-6-2-1-3" />
    </g>
    <g fill-rule="evenodd" transform="matrix(-1 0 0 1 206 102)" id="hover-bottomright">
        <path opacity=".001" fill-opacity=".003922" fill="currentColor" class="ColorScheme-ButtonBackground" d="m0 28c0 1.108.892 2 2 2v-2z" id="rect833-7-3-7-7" />
        <path fill="currentColor" class="ColorScheme-ButtonHover" d="m0 28c0 1.108.892 2 2 2v-1c-.554 0-1-.446-1-1z" id="path915-9-8" />
    </g>
    <g fill-rule="evenodd" transform="matrix(0 1 -1 0 206 102)" id="hover-left">
        <path opacity=".001" fill-opacity=".003922" fill="currentColor" class="ColorScheme-ButtonBackground" d="m-26-30h22v2h-22z" transform="scale(-1)" id="rect829-6-26-0-8" />
        <path fill="currentColor" class="ColorScheme-ButtonHover" d="m-26-30h22v1h-22z" transform="scale(-1)" id="rect829-6-2-1-2-8" />
    </g>
    <path opacity=".001" fill-rule="evenodd" fill-opacity=".003922" d="m180 106h22v22h-22z" id="hover-center" />
    <rect fill-rule="evenodd" fill="#ff00ff" height="0.001" width="2" y="102" x="190" id="hover-hint-top-margin" />
    <rect fill-rule="evenodd" fill="#ff00ff" height="0.001" width="2" y="131" x="190" id="hover-hint-bottom-margin" />
    <rect fill-rule="evenodd" fill="#ff00ff" height="2" width="0.001" y="116" x="205" id="hover-hint-right-margin" />
    <rect style="fill:#ff00ff;fill-opacity:1;fill-rule:evenodd;stroke-width:1" id="hover-hint-left-margin" width="0.001" height="2" x="176" y="116" />
    <g fill-rule="evenodd" id="focus-bottom">
        <path opacity=".001" fill-opacity=".003922" fill="currentColor" class="ColorScheme-ButtonBackground" d="m-202-170h22v2h-22z" transform="scale(-1)" id="rect829-6-5-2-9" />
        <path fill="currentColor" class="ColorScheme-ButtonFocus" d="m-202-170h22v1h-22z" transform="scale(-1)" id="rect829-6-2-6-6-9" />
        <path opacity=".2" fill="currentColor" class="ColorScheme-ButtonFocus" d="m180 170v1h22v-1z" id="path1565-4-90-2" />
    </g>
    <g fill-rule="evenodd" id="focus-bottomleft">
        <path opacity=".001" fill-opacity=".003922" fill="currentColor" class="ColorScheme-ButtonBackground" d="m176 168c0 1.108.892 2 2 2v-2z" id="rect833-7-3-55-6-7" />
        <path fill="currentColor" class="ColorScheme-ButtonFocus" d="m176 168c0 1.108.892 2 2 2v-1c-.554 0-1-.446-1-1z" id="path915-4-8-2" />
        <path opacity=".2" fill="currentColor" class="ColorScheme-ButtonFocus" d="m176 168c0 1.108.892 2 2 2v1c-1.662 0-3-1.338-3-3z" id="path1561-6-4-7-2" />
    </g>
    <g fill-rule="evenodd" transform="matrix(1 0 0 -1 0 310)" id="focus-topleft">
        <path opacity=".001" fill-opacity=".003922" fill="currentColor" class="ColorScheme-ButtonBackground" d="m176 168c0 1.108.892 2 2 2v-2z" id="rect833-7-3-55-6-7-6" />
        <path fill="currentColor" class="ColorScheme-ButtonFocus" d="m176 168c0 1.108.892 2 2 2v-1c-.554 0-1-.446-1-1z" id="path915-4-8-2-0" />
        <path opacity=".2" fill="currentColor" class="ColorScheme-ButtonFocus" d="m176 168c0 1.108.892 2 2 2v1c-1.662 0-3-1.338-3-3z" id="path1561-6-4-7-2-7" />
    </g>
    <g fill-rule="evenodd" transform="matrix(-1 0 0 -1 382 310)" id="focus-topright">
        <path opacity=".001" fill-opacity=".003922" fill="currentColor" class="ColorScheme-ButtonBackground" d="m176 168c0 1.108.892 2 2 2v-2z" id="rect833-7-3-55-6-7-1" />
        <path fill="currentColor" class="ColorScheme-ButtonFocus" d="m176 168c0 1.108.892 2 2 2v-1c-.554 0-1-.446-1-1z" id="path915-4-8-2-01" />
        <path opacity=".2" fill="currentColor" class="ColorScheme-ButtonFocus" d="m176 168c0 1.108.892 2 2 2v1c-1.662 0-3-1.338-3-3z" id="path1561-6-4-7-2-3" />
    </g>
    <g fill-rule="evenodd" transform="matrix(-1 0 0 1 382 0)" id="focus-bottomright">
        <path opacity=".001" fill-opacity=".003922" fill="currentColor" class="ColorScheme-ButtonBackground" d="m176 168c0 1.108.892 2 2 2v-2z" id="rect833-7-3-55-6-7-7" />
        <path fill="currentColor" class="ColorScheme-ButtonFocus" d="m176 168c0 1.108.892 2 2 2v-1c-.554 0-1-.446-1-1z" id="path915-4-8-2-2" />
        <path opacity=".2" fill="currentColor" class="ColorScheme-ButtonFocus" d="m176 168c0 1.108.892 2 2 2v1c-1.662 0-3-1.338-3-3z" id="path1561-6-4-7-2-6" />
    </g>
    <g fill-rule="evenodd" transform="matrix(1 0 0 -1 0 310)" id="focus-top">
        <path opacity=".001" fill-opacity=".003922" fill="currentColor" class="ColorScheme-ButtonBackground" d="m-202-170h22v2h-22z" transform="scale(-1)" id="rect829-6-5-2-9-5" />
        <path fill="currentColor" class="ColorScheme-ButtonFocus" d="m-202-170h22v1h-22z" transform="scale(-1)" id="rect829-6-2-6-6-9-2" />
        <path opacity=".2" fill="currentColor" class="ColorScheme-ButtonFocus" d="m180 170v1h22v-1z" id="path1565-4-90-2-0" />
    </g>
    <g fill-rule="evenodd" transform="matrix(0 -1 1 0 36 346)" id="focus-right">
        <path opacity=".001" fill-opacity=".003922" fill="currentColor" class="ColorScheme-ButtonBackground" d="m-202-170h22v2h-22z" transform="scale(-1)" id="rect829-6-5-2-9-0" />
        <path fill="currentColor" class="ColorScheme-ButtonFocus" d="m-202-170h22v1h-22z" transform="scale(-1)" id="rect829-6-2-6-6-9-9" />
        <path opacity=".2" fill="currentColor" class="ColorScheme-ButtonFocus" d="m180 170v1h22v-1z" id="path1565-4-90-2-9" />
    </g>
    <g fill-rule="evenodd" transform="matrix(0 -1 -1 0 346 346)" id="focus-left">
        <path opacity=".001" fill-opacity=".003922" fill="currentColor" class="ColorScheme-ButtonBackground" d="m-202-170h22v2h-22z" transform="scale(-1)" id="rect829-6-5-2-9-0-1" />
        <path fill="currentColor" class="ColorScheme-ButtonFocus" d="m-202-170h22v1h-22z" transform="scale(-1)" id="rect829-6-2-6-6-9-9-0" />
        <path opacity=".2" fill="currentColor" class="ColorScheme-ButtonFocus" d="m180 170v1h22v-1z" id="path1565-4-90-2-9-3" />
    </g>
    <path fill-rule="evenodd" fill="#ff00ff" d="m 190,139 h 2 v 1 h -2 z" id="focus-hint-top-margin" />
    <path fill-rule="evenodd" fill="#ff00ff" d="m 190,170 h 2 v 1 h -2 z" id="focus-hint-bottom-margin" />
    <path fill-rule="evenodd" fill="#ff00ff" d="m 175,154 h 1 v 2 h -1 z" id="focus-hint-left-margin" />
    <path fill-rule="evenodd" fill="#ff00ff" d="m 206,154 h 1 v 2 h -1 z" id="focus-hint-right-margin" />
    <path id="focus-center" d="m 180,144 h 22 v 22 h -22 z" fill-opacity="0.00392199" fill-rule="evenodd" opacity="0.00100002" />
    <g id="focus-background-center">
        <path id="path208" fill-rule="evenodd" fill="currentColor" class="ColorScheme-ButtonFocus" d="m118 144h22v22h-22z" />
        <rect style="fill:url(#linearGradient1133);fill-rule:evenodd;fill-opacity:1" id="fc" width="22" height="22" x="118" y="144" />
    </g>
    <g fill-rule="evenodd" transform="translate(112,142)" id="focus-background-bottomleft">
        <path fill="currentColor" class="ColorScheme-ButtonFocus" d="m 0,28 c 0,1.108 0.892,2 2,2 v -2 z" id="rect833-7-3-55-1-3" />
        <path opacity="0.3" fill="currentColor" class="ColorScheme-ButtonText" d="m 0,28 c 0,1.108 0.892,2 2,2 V 29 C 1.446,29 1,28.554 1,28 Z" id="path915-4-7-1" />
        <path style="fill:url(#linearGradient1233-6-3);fill-opacity:1" d="m 0,28 c 0,1.108 0.892,2 2,2 v -2 z" id="fbl" />
    </g>
    <g fill-rule="evenodd" transform="translate(114,142)" id="focus-background-bottom">
        <path fill="currentColor" class="ColorScheme-ButtonFocus" d="m -26,-30 h 22 v 2 h -22 z" transform="scale(-1)" id="rect829-6-5-1-9" />
        <path opacity="0.3" fill="currentColor" class="ColorScheme-ButtonText" d="m -26,-30 h 22 v 1 h -22 z" transform="scale(-1)" id="rect829-6-2-6-1-0" />
        <rect y="28" x="4" height="2" width="22" id="fb" style="fill:url(#linearGradient1356-6);fill-opacity:1;fill-rule:evenodd" />
    </g>
    <g fill-rule="evenodd" transform="matrix(1,0,0,-1,112,168)" id="focus-background-topleft">
        <path fill="currentColor" class="ColorScheme-ButtonFocus" d="m 0,28 c 0,1.108 0.892,2 2,2 v -2 z" id="rect833-7-3-1-3-9-6" />
        <path opacity="0.3" fill="currentColor" class="ColorScheme-ButtonText" d="m 0,28 c 0,1.108 0.892,2 2,2 V 29 C 1.446,29 1,28.554 1,28 Z" id="path915-2-7-7-7" />
        <path id="ftl" d="m 0,28 c 0,1.108 0.892,2 2,2 v -2 z" style="fill:url(#linearGradient1233-8);fill-opacity:1" />
    </g>
    <g fill-rule="evenodd" transform="matrix(1,0,0,-1,114,168)" id="focus-background-top">
        <path fill="currentColor" class="ColorScheme-ButtonFocus" d="m -26,-30 h 22 v 2 h -22 z" transform="scale(-1)" id="rect829-6-0-5-6-4" />
        <path opacity="0.3" fill="currentColor" class="ColorScheme-ButtonText" d="m -26,-30 h 22 v 1 h -22 z" transform="scale(-1)" id="rect829-6-2-9-2-7-0" />
        <rect transform="scale(1,-1)" style="fill:url(#linearGradient1356);fill-opacity:1;fill-rule:evenodd" id="ft" width="22" height="2" x="4" y="-30" />
    </g>
    <g fill-rule="evenodd" transform="matrix(0,1,1,0,116,138)" id="focus-background-topright">
        <path fill="currentColor" class="ColorScheme-ButtonFocus" d="m 0,28 c 0,1.108 0.892,2 2,2 v -2 z" id="rect833-7-3-6-4-6-4" />
        <path opacity="0.3" fill="currentColor" class="ColorScheme-ButtonText" d="m 0,28 c 0,1.108 0.892,2 2,2 V 29 C 1.446,29 1,28.554 1,28 Z" id="path915-0-7-5-7" />
        <path style="fill:url(#linearGradient1233-9-7);fill-opacity:1" d="M 2,30 C 0.892,30 0,29.108 0,28 h 2 z" id="ftr" />
    </g>
    <g fill-rule="evenodd" transform="matrix(0,1,1,0,116,140)" id="focus-background-right">
        <path fill="currentColor" class="ColorScheme-ButtonFocus" d="m -26,-30 h 22 v 2 h -22 z" transform="scale(-1)" id="rect829-6-26-4-3-8" />
        <path opacity="0.3" fill="currentColor" class="ColorScheme-ButtonText" d="m -26,-30 h 22 v 1 h -22 z" transform="scale(-1)" id="rect829-6-2-1-3-9-5" />
        <rect transform="matrix(0,1,1,0,0,0)" style="fill:url(#linearGradient1133-0);fill-opacity:1;fill-rule:evenodd" id="fr" width="2" height="22" x="28" y="4" />
    </g>
    <g fill-rule="evenodd" transform="matrix(-1,0,0,1,146,142)" id="focus-background-bottomright">
        <path fill="currentColor" class="ColorScheme-ButtonFocus" d="m 0,28 c 0,1.108 0.892,2 2,2 v -2 z" id="rect833-7-3-7-7-8-2" />
        <path opacity="0.3" fill="currentColor" class="ColorScheme-ButtonText" d="m 0,28 c 0,1.108 0.892,2 2,2 V 29 C 1.446,29 1,28.554 1,28 Z" id="path915-9-8-1-6" />
        <path id="fbr" d="m 0,28 c 0,1.108 0.892,2 2,2 v -2 z" style="fill:url(#linearGradient1233-6-8-4);fill-opacity:1" />
    </g>
    <g fill-rule="evenodd" transform="rotate(90,1,141)" id="focus-background-left">
        <path fill="currentColor" class="ColorScheme-ButtonFocus" d="m -26,-30 h 22 v 2 h -22 z" transform="scale(-1)" id="rect829-6-26-0-8-9-6" />
        <path opacity="0.3" fill="currentColor" class="ColorScheme-ButtonText" d="m -26,-30 h 22 v 1 h -22 z" transform="scale(-1)" id="rect829-6-2-1-2-8-3-6" />
        <rect transform="rotate(-90)" y="4" x="-30" height="22" width="2" id="fl" style="fill:url(#linearGradient1133-0-5);fill-opacity:1;fill-rule:evenodd" />
    </g>
    <path fill-rule="evenodd" fill="#ff00ff" d="m 128,138 h 2 v 6 h -2 z" id="focus-background-hint-top-margin" style="stroke-width:0.999996" />
    <path fill-rule="evenodd" fill="#ff00ff" d="m 128,166 h 2 v 6 h -2 z" id="focus-background-hint-bottom-margin" style="stroke-width:0.999996" />
    <path fill-rule="evenodd" fill="#ff00ff" d="m 112,154 h 6 v 2 h -6 z" id="focus-background-hint-left-margin" style="stroke-width:0.999996" />
    <path fill-rule="evenodd" fill="#ff00ff" d="m 140,154 h 6 v 2 h -6 z" id="focus-background-hint-right-margin" style="stroke-width:0.999996" />
    <path fill-rule="evenodd" d="m56 144h22v22h-22z" id="mask-focus-background-center" />
    <path fill-rule="evenodd" d="m80 168v2c1.108 0 2-.892 2-2z" id="mask-focus-background-bottomright" />
    <path fill-rule="evenodd" d="m56 168v2h22v-2z" id="mask-focus-background-bottom" />
    <path fill-rule="evenodd" d="m52 168c0 1.108.892 2 2 2v-2h-1z" id="mask-focus-background-bottomleft" />
    <path fill-rule="evenodd" d="m80 144v22h2v-22z" id="mask-focus-background-right" />
    <path fill-rule="evenodd" d="m52 144v22h2v-22z" id="mask-focus-background-left" />
    <path fill-rule="evenodd" d="m80 140v2h2c0-1.108-.892-2-2-2z" id="mask-focus-background-topright" />
    <path fill-rule="evenodd" d="m56 140v2h22v-2z" id="mask-focus-background-top" />
    <path fill-rule="evenodd" d="m54 140c-1.108 0-2 .892-2 2h2v-1z" id="mask-focus-background-topleft" />
    <path fill-rule="evenodd" fill="currentColor" class="ColorScheme-ButtonHover" d="m 180,182 h 22 v 22 h -22 z" id="pressed-center" />
    <g fill-rule="evenodd" transform="translate(174,180)" id="pressed-bottomleft">
        <path fill="currentColor" class="ColorScheme-ButtonHover" d="m 0,28 c 0,1.108 0.892,2 2,2 v -2 z" id="rect833-7-3-55-1" />
        <path opacity="0.3" fill="currentColor" class="ColorScheme-ButtonText" d="m 0,28 c 0,1.108 0.892,2 2,2 V 29 C 1.446,29 1,28.554 1,28 Z" id="path915-4-7" />
    </g>
    <g fill-rule="evenodd" transform="translate(176,180)" id="pressed-bottom">
        <path fill="currentColor" class="ColorScheme-ButtonHover" d="m -26,-30 h 22 v 2 h -22 z" transform="scale(-1)" id="rect829-6-5-1" />
        <path opacity="0.3" fill="currentColor" class="ColorScheme-ButtonText" d="m -26,-30 h 22 v 1 h -22 z" transform="scale(-1)" id="rect829-6-2-6-1" />
    </g>
    <g fill-rule="evenodd" transform="matrix(1,0,0,-1,174,206)" id="pressed-topleft">
        <path fill="currentColor" class="ColorScheme-ButtonHover" d="m 0,28 c 0,1.108 0.892,2 2,2 v -2 z" id="rect833-7-3-1-3-9" />
        <path opacity="0.3" fill="currentColor" class="ColorScheme-ButtonText" d="m 0,28 c 0,1.108 0.892,2 2,2 V 29 C 1.446,29 1,28.554 1,28 Z" id="path915-2-7-7" />
    </g>
    <g fill-rule="evenodd" transform="matrix(1,0,0,-1,176,206)" id="pressed-top">
        <path fill="currentColor" class="ColorScheme-ButtonHover" d="m -26,-30 h 22 v 2 h -22 z" transform="scale(-1)" id="rect829-6-0-5-6" />
        <path opacity="0.3" fill="currentColor" class="ColorScheme-ButtonText" d="m -26,-30 h 22 v 1 h -22 z" transform="scale(-1)" id="rect829-6-2-9-2-7" />
    </g>
    <g fill-rule="evenodd" transform="matrix(0,1,1,0,178,176)" id="pressed-topright">
        <path fill="currentColor" class="ColorScheme-ButtonHover" d="m 0,28 c 0,1.108 0.892,2 2,2 v -2 z" id="rect833-7-3-6-4-6" />
        <path opacity="0.3" fill="currentColor" class="ColorScheme-ButtonText" d="m 0,28 c 0,1.108 0.892,2 2,2 V 29 C 1.446,29 1,28.554 1,28 Z" id="path915-0-7-5" />
    </g>
    <g fill-rule="evenodd" transform="matrix(0,1,1,0,178,178)" id="pressed-right">
        <path fill="currentColor" class="ColorScheme-ButtonHover" d="m -26,-30 h 22 v 2 h -22 z" transform="scale(-1)" id="rect829-6-26-4-3" />
        <path opacity="0.3" fill="currentColor" class="ColorScheme-ButtonText" d="m -26,-30 h 22 v 1 h -22 z" transform="scale(-1)" id="rect829-6-2-1-3-9" />
    </g>
    <g fill-rule="evenodd" transform="matrix(-1,0,0,1,208,180)" id="pressed-bottomright">
        <path fill="currentColor" class="ColorScheme-ButtonHover" d="m 0,28 c 0,1.108 0.892,2 2,2 v -2 z" id="rect833-7-3-7-7-8" />
        <path opacity="0.3" fill="currentColor" class="ColorScheme-ButtonText" d="m 0,28 c 0,1.108 0.892,2 2,2 V 29 C 1.446,29 1,28.554 1,28 Z" id="path915-9-8-1" />
    </g>
    <g fill-rule="evenodd" transform="rotate(90,13,191)" id="pressed-left">
        <path fill="currentColor" class="ColorScheme-ButtonHover" d="m -26,-30 h 22 v 2 h -22 z" transform="scale(-1)" id="rect829-6-26-0-8-9" />
        <path opacity="0.3" fill="currentColor" class="ColorScheme-ButtonText" d="m -26,-30 h 22 v 1 h -22 z" transform="scale(-1)" id="rect829-6-2-1-2-8-3" />
    </g>
    <path fill-rule="evenodd" fill="#ff00ff" d="m 190,176 h 2 v 6 h -2 z" id="pressed-hint-top-margin" style="stroke-width:0.999996" />
    <path fill-rule="evenodd" fill="#ff00ff" d="m 190,204 h 2 v 6 h -2 z" id="pressed-hint-bottom-margin" style="stroke-width:0.999996" />
    <path fill-rule="evenodd" fill="#ff00ff" d="m 174,192 h 6 v 2 h -6 z" id="pressed-hint-left-margin" style="stroke-width:0.999996" />
    <path fill-rule="evenodd" fill="#ff00ff" d="m 202,192 h 6 v 2 h -6 z" id="pressed-hint-right-margin" style="stroke-width:0.999996" />
    <g fill-rule="evenodd" transform="translate(238 140)" id="toolbutton-hover-bottom">
        <path opacity=".001" fill-opacity=".003922" d="m4-11v3h22v-3z" id="path1565-7-9" />
        <path fill="currentColor" class="ColorScheme-ButtonHover" d="m4-9v1h22v-1z" id="path1565-4" />
    </g>
    <g fill-rule="evenodd" transform="translate(238 140)" id="toolbutton-hover-bottomright">
        <path opacity=".001" fill-opacity=".003922" d="m27-8v-3h3c0 1.662-1.338 3-3 3z" id="rect1509-7-9-6-2-2" />
        <path fill="currentColor" class="ColorScheme-ButtonHover" d="m29-11c0 1.108-.892 2-2 2v1c1.662 0 3-1.338 3-3z" id="path1561-6" />
    </g>
    <g fill-rule="evenodd" transform="translate(238 140)" id="toolbutton-hover-right">
        <path opacity=".001" fill-opacity=".003922" d="m27-12h3v-22h-3z" id="path1565-7-8-1" />
        <path fill="currentColor" class="ColorScheme-ButtonHover" d="m29-34v22h1v-22z" id="path1559-2" />
    </g>
    <g fill-rule="evenodd" transform="matrix(-1 0 0 -1 268 94)" id="toolbutton-hover-top">
        <path opacity=".001" fill-opacity=".003922" d="m4-11v3h22v-3z" id="path1565-7-9-8" />
        <path fill="currentColor" class="ColorScheme-ButtonHover" d="m4-9v1h22v-1z" id="path1565-4-9" />
    </g>
    <g fill-rule="evenodd" transform="matrix(-1 0 0 -1 268 94)" id="toolbutton-hover-topleft">
        <path opacity=".001" fill-opacity=".003922" d="m27-8v-3h3c0 1.662-1.338 3-3 3z" id="rect1509-7-9-6-2-2-8" />
        <path fill="currentColor" class="ColorScheme-ButtonHover" d="m29-11c0 1.108-.892 2-2 2v1c1.662 0 3-1.338 3-3z" id="path1561-6-8" />
    </g>
    <g fill-rule="evenodd" transform="matrix(-1 0 0 -1 268 94)" id="toolbutton-hover-left">
        <path opacity=".001" fill-opacity=".003922" d="m27-12h3v-22h-3z" id="path1565-7-8-1-6" />
        <path fill="currentColor" class="ColorScheme-ButtonHover" d="m29-34v22h1v-22z" id="path1559-2-8" />
    </g>
    <g fill-rule="evenodd" transform="matrix(1 0 0 -1 238 94)" id="toolbutton-hover-topright">
        <path opacity=".001" fill-opacity=".003922" d="m27-8v-3h3c0 1.662-1.338 3-3 3z" id="rect1509-7-9-6-2-2-83" />
        <path fill="currentColor" class="ColorScheme-ButtonHover" d="m29-11c0 1.108-.892 2-2 2v1c1.662 0 3-1.338 3-3z" id="path1561-6-3" />
    </g>
    <g fill-rule="evenodd" transform="matrix(-1 0 0 1 268 140)" id="toolbutton-hover-bottomleft">
        <path opacity=".001" fill-opacity=".003922" d="m27-8v-3h3c0 1.662-1.338 3-3 3z" id="rect1509-7-9-6-2-2-0" />
        <path fill="currentColor" class="ColorScheme-ButtonHover" d="m29-11c0 1.108-.892 2-2 2v1c1.662 0 3-1.338 3-3z" id="path1561-6-4" />
    </g>
    <path opacity=".001" fill-rule="evenodd" fill-opacity=".003922" d="m242 106h22v22h-22z" id="toolbutton-hover-center" />
    <rect fill-rule="evenodd" fill="#ff00ff" height="0.001" width="2" y="102" x="252" id="toolbutton-hover-hint-top-margin" />
    <rect fill-rule="evenodd" fill="#ff00ff" height="0.001" width="2" y="131" x="252" id="toolbutton-hover-hint-bottom-margin" />
    <rect fill-rule="evenodd" fill="#ff00ff" height="2" width="0.001" y="116" x="267" id="toolbutton-hover-hint-right-margin" />
    <rect y="116" x="238" height="2" width="0.001" id="toolbutton-hover-hint-left-margin" style="fill:#ff00ff;fill-opacity:1;fill-rule:evenodd;stroke-width:1" />
    <g fill-rule="evenodd" transform="translate(62)" id="toolbutton-focus-bottom">
        <path opacity=".001" fill-opacity=".003922" fill="currentColor" class="ColorScheme-ButtonBackground" d="m-202-170h22v3h-22z" transform="scale(-1)" id="rect829-6-5-2-9-8" />
        <path fill="currentColor" class="ColorScheme-ButtonFocus" d="m-202-170h22v1h-22z" transform="scale(-1)" id="rect829-6-2-6-6-9-3" />
        <path opacity=".2" fill="currentColor" class="ColorScheme-ButtonFocus" d="m180 170v1h22v-1z" id="path1565-4-90-2-7" />
    </g>
    <g fill-rule="evenodd" transform="matrix(1 0 0 -1 62 310)" id="toolbutton-focus-top">
        <path opacity=".001" fill-opacity=".003922" fill="currentColor" class="ColorScheme-ButtonBackground" d="m-202-170h22v3h-22z" transform="scale(-1)" id="rect829-6-5-2-9-5-3" />
        <path fill="currentColor" class="ColorScheme-ButtonFocus" d="m-202-170h22v1h-22z" transform="scale(-1)" id="rect829-6-2-6-6-9-2-7" />
        <path opacity=".2" fill="currentColor" class="ColorScheme-ButtonFocus" d="m180 170v1h22v-1z" id="path1565-4-90-2-0-8" />
    </g>
    <g fill-rule="evenodd" transform="matrix(0 -1 1 0 98 346)" id="toolbutton-focus-right">
        <path opacity=".001" fill-opacity=".003922" fill="currentColor" class="ColorScheme-ButtonBackground" d="m-202-170h22v3h-22z" transform="scale(-1)" id="rect829-6-5-2-9-0-4" />
        <path fill="currentColor" class="ColorScheme-ButtonFocus" d="m-202-170h22v1h-22z" transform="scale(-1)" id="rect829-6-2-6-6-9-9-1" />
        <path opacity=".2" fill="currentColor" class="ColorScheme-ButtonFocus" d="m180 170v1h22v-1z" id="path1565-4-90-2-9-9" />
    </g>
    <g fill-rule="evenodd" transform="matrix(0 -1 -1 0 408 346)" id="toolbutton-focus-left">
        <path opacity=".001" fill-opacity=".003922" fill="currentColor" class="ColorScheme-ButtonBackground" d="m-202-170h22v3h-22z" transform="scale(-1)" id="rect829-6-5-2-9-0-1-9" />
        <path fill="currentColor" class="ColorScheme-ButtonFocus" d="m-202-170h22v1h-22z" transform="scale(-1)" id="rect829-6-2-6-6-9-9-0-8" />
        <path opacity=".2" fill="currentColor" class="ColorScheme-ButtonFocus" d="m180 170v1h22v-1z" id="path1565-4-90-2-9-3-8" />
    </g>
    <g fill-rule="evenodd" id="toolbutton-focus-bottomleft">
        <path opacity=".2" fill="currentColor" class="ColorScheme-ButtonFocus" d="m237 167c0 2.216 1.784 4 4 4v-1c-1.662 0-3-1.338-3-3z" id="rect2974" />
        <path opacity=".001" fill-opacity=".003922" d="m241 170v-3h-3c0 1.662 1.338 3 3 3z" id="rect1509-7-9-6-2-2-0-8" />
        <path fill="currentColor" class="ColorScheme-ButtonFocus" d="m239 167c0 1.108.892 2 2 2v1c-1.662 0-3-1.338-3-3z" id="path1561-6-4-7" />
    </g>
    <g fill-rule="evenodd" transform="matrix(1 0 0 -1 0 310)" id="toolbutton-focus-topleft">
        <path opacity=".2" fill="currentColor" class="ColorScheme-ButtonFocus" d="m237 167c0 2.216 1.784 4 4 4v-1c-1.662 0-3-1.338-3-3z" id="rect2974-6" />
        <path opacity=".001" fill-opacity=".003922" d="m241 170v-3h-3c0 1.662 1.338 3 3 3z" id="rect1509-7-9-6-2-2-0-8-7" />
        <path fill="currentColor" class="ColorScheme-ButtonFocus" d="m239 167c0 1.108.892 2 2 2v1c-1.662 0-3-1.338-3-3z" id="path1561-6-4-7-6" />
    </g>
    <g fill-rule="evenodd" transform="matrix(-1 0 0 -1 506 310)" id="toolbutton-focus-topright">
        <path opacity=".2" fill="currentColor" class="ColorScheme-ButtonFocus" d="m237 167c0 2.216 1.784 4 4 4v-1c-1.662 0-3-1.338-3-3z" id="rect2974-9" />
        <path opacity=".001" fill-opacity=".003922" d="m241 170v-3h-3c0 1.662 1.338 3 3 3z" id="rect1509-7-9-6-2-2-0-8-75" />
        <path fill="currentColor" class="ColorScheme-ButtonFocus" d="m239 167c0 1.108.892 2 2 2v1c-1.662 0-3-1.338-3-3z" id="path1561-6-4-7-9" />
    </g>
    <g fill-rule="evenodd" transform="matrix(-1 0 0 1 506 0)" id="toolbutton-focus-bottomright">
        <path opacity=".2" fill="currentColor" class="ColorScheme-ButtonFocus" d="m237 167c0 2.216 1.784 4 4 4v-1c-1.662 0-3-1.338-3-3z" id="rect2974-8" />
        <path opacity=".001" fill-opacity=".003922" d="m241 170v-3h-3c0 1.662 1.338 3 3 3z" id="rect1509-7-9-6-2-2-0-8-5" />
        <path fill="currentColor" class="ColorScheme-ButtonFocus" d="m239 167c0 1.108.892 2 2 2v1c-1.662 0-3-1.338-3-3z" id="path1561-6-4-7-3" />
    </g>
    <path fill-rule="evenodd" fill="#ff00ff" d="m 252,139 h 2 v 1 h -2 z" id="toolbutton-focus-hint-top-margin" />
    <path fill-rule="evenodd" fill="#ff00ff" d="m 252,170 h 2 v 1 h -2 z" id="toolbutton-focus-hint-bottom-margin" />
    <path fill-rule="evenodd" fill="#ff00ff" d="m 237,154 h 1 v 2 h -1 z" id="toolbutton-focus-hint-left-margin" />
    <path fill-rule="evenodd" fill="#ff00ff" d="m 268,154 h 1 v 2 h -1 z" id="toolbutton-focus-hint-right-margin" />
    <path id="toolbutton-focus-center" d="m 242,144 h 22 v 22 h -22 z" fill-opacity="0.00392199" fill-rule="evenodd" opacity="0.00100002" />
    <path fill-rule="evenodd" fill="currentColor" class="ColorScheme-ButtonHover" d="m 242,176 v 3 h 22 v -3 z" id="toolbutton-pressed-top" />
    <path fill-rule="evenodd" fill="currentColor" class="ColorScheme-ButtonHover" d="m 239,176 c -1.662,0 -3,1.338 -3,3 h 3 v -2 z" id="toolbutton-pressed-topleft" />
    <path fill-rule="evenodd" fill="currentColor" class="ColorScheme-ButtonHover" d="m242 182h22v22h-22z" id="toolbutton-pressed-center" />
    <path fill-rule="evenodd" fill="currentColor" class="ColorScheme-ButtonHover" d="m 264,210 v -3 h -22 v 3 z" id="toolbutton-pressed-bottom" />
    <path fill-rule="evenodd" fill="currentColor" class="ColorScheme-ButtonHover" d="m 267,210 c 1.662,0 3,-1.338 3,-3 h -3 v 2 z" id="toolbutton-pressed-bottomright" />
    <path fill-rule="evenodd" fill="currentColor" class="ColorScheme-ButtonHover" d="m 270,182 h -3 v 22 h 3 z" id="toolbutton-pressed-right" />
    <path fill-rule="evenodd" fill="currentColor" class="ColorScheme-ButtonHover" d="m 270,179 c 0,-1.662 -1.338,-3 -3,-3 v 3 h 2 z" id="toolbutton-pressed-topright" />
    <path fill-rule="evenodd" fill="currentColor" class="ColorScheme-ButtonHover" d="m 236,204 h 3 v -22 h -3 z" id="toolbutton-pressed-left" />
    <path fill-rule="evenodd" fill="currentColor" class="ColorScheme-ButtonHover" d="m 236,207 c 0,1.662 1.338,3 3,3 v -3 h -2 z" id="toolbutton-pressed-bottomleft" />
    <path fill-rule="evenodd" fill="#ff00ff" d="m 252,176 h 2 v 6 h -2 z" id="toolbutton-pressed-hint-top-margin" style="stroke-width:0.999996" />
    <path fill-rule="evenodd" fill="#ff00ff" d="m 252,204 h 2 v 6 h -2 z" id="toolbutton-pressed-hint-bottom-margin" style="stroke-width:0.999996" />
    <path fill-rule="evenodd" fill="#ff00ff" d="m 236,192 h 6 v 2 h -6 z" id="toolbutton-pressed-hint-left-margin" style="stroke-width:0.999996" />
    <path fill-rule="evenodd" fill="#ff00ff" d="m 264,192 h 6 v 2 h -6 z" id="toolbutton-pressed-hint-right-margin" style="stroke-width:0.999996" />
    <text word-spacing="0" text-anchor="end" letter-spacing="0" font-size="10" font-family="Noto Sans" y="82" x="36" id="text2130"><tspan text-anchor="end" font-size="10" y="82" x="36" id="tspan2128">normal</tspan></text>
    <text word-spacing="0" text-anchor="end" letter-spacing="0" font-size="10" font-family="Noto Sans" y="120" x="36" id="text2130-0"><tspan text-anchor="end" font-size="10" y="120" x="36" id="tspan2128-4">hover</tspan></text>
    <text word-spacing="0" text-anchor="end" letter-spacing="0" font-size="10" font-family="Noto Sans" y="158" x="36" id="text2130-0-2"><tspan text-anchor="end" font-size="10" y="158" x="36" id="tspan2128-4-9">focus</tspan></text>
    <text word-spacing="0" text-anchor="end" letter-spacing="0" font-size="10" font-family="Noto Sans" y="196" x="36" id="text2130-0-2-6"><tspan text-anchor="end" font-size="10" y="196" x="36" id="tspan2128-4-9-1">pressed</tspan></text>
    <text word-spacing="0" text-anchor="middle" letter-spacing="0" font-size="10" font-family="Noto Sans" y="8" x="191" id="text2130-0-2-0"><tspan text-anchor="middle" font-size="10" y="8" x="191" id="tspan2128-4-9-4">(default)</tspan></text>
    <text word-spacing="0" text-anchor="middle" letter-spacing="0" font-size="10" font-family="Noto Sans" y="8" x="253" id="text2130-0-2-0-2"><tspan text-anchor="middle" font-size="10" y="8" x="253" id="tspan2128-4-9-4-2">toolbutton</tspan></text>
    <text word-spacing="0" text-anchor="end" letter-spacing="0" font-size="10" font-family="Noto Sans" y="44" x="36" id="text2130-0-2-0-1"><tspan text-anchor="end" font-size="10" y="44" x="36" id="tspan2128-4-9-4-7">shadow</tspan></text>
    <text word-spacing="0" text-anchor="middle" letter-spacing="0" font-size="10" font-family="Noto Sans" y="8" x="67" id="text2130-0-2-0-4"><tspan text-anchor="middle" font-size="10" y="8" x="67" id="tspan2128-4-9-4-3">mask</tspan></text>
    <text word-spacing="0" text-anchor="middle" letter-spacing="0" font-size="10" font-family="Noto Sans" y="8" x="129" id="text2130-0-2-0-4-1"><tspan text-anchor="middle" font-size="10" y="8" x="129" id="tspan2128-4-9-4-3-4">background</tspan></text>
    <path fill-rule="evenodd" fill="#ff00ff" d="m 148,-44 h 87.99999 v 24 H 148 Z" id="rect1134" />
    <text word-spacing="0" text-anchor="middle" letter-spacing="0" font-size="10px" font-family="'Noto Sans'" y="-28" x="192" id="text2130-0-2-0-4-7"><tspan text-anchor="middle" font-size="10px" y="-28" x="192" id="tspan2128-4-9-4-3-5">margin hint</tspan></text>
    <path fill-rule="evenodd" fill="#00ff00" d="m -12,192 h 3.9999999 v 4 H -12 Z" id="pressed-hint-compose-over-border" style="stroke-width:1" />
    <text xml:space="preserve" id="text2130-0-2-0-4-7-3" x="96" y="-56" font-family="'Noto Sans'" font-size="10px" letter-spacing="0" text-anchor="middle" word-spacing="0" style="text-align:start;text-anchor:start;white-space:pre;inline-size:600" transform="translate(200,64)"><tspan x="96" y="-56"><tspan style="font-size:10px;text-align:start;text-anchor:start">NOTE: Some margin hints have 0.001 width or height because you can't use exactly 0!
</tspan></tspan><tspan x="96" y="-43.500003"><tspan style="font-size:10px;text-align:start;text-anchor:start">NOTE: shadow, hover and focus (not focus-background) use negative margins!
</tspan></tspan><tspan x="96" y="-31.000003"><tspan style="font-size:10px;text-align:start;text-anchor:start">This behavior is implemented in at least the following files (please keep this up to date, fix the problem or find a better place to </tspan></tspan><tspan x="96" y="-18.500003"><tspan style="font-size:10px;text-align:start;text-anchor:start">put this info):
</tspan></tspan><tspan x="96" y="-6.000003"><tspan style="font-size:10px;text-align:start;text-anchor:start">plasma-framework/src/declarativeimports/plasmacomponents3/private/ButtonShadow.qml
</tspan></tspan><tspan x="96" y="6.499997"><tspan style="font-size:10px;text-align:start;text-anchor:start">
</tspan></tspan><tspan x="96" y="18.999997"><tspan style="font-size:10px;text-align:start;text-anchor:start">We should add support for a negative margins hint to FrameSvg and document it instead of requiring people to read source </tspan></tspan><tspan x="96" y="31.499997"><tspan style="font-size:10px;text-align:start;text-anchor:start">code in order to know these things. Unfortunately, not sure if we can change the code of ButtonShadow since it would break </tspan></tspan><tspan x="96" y="43.999997"><tspan style="font-size:10px;text-align:start;text-anchor:start">themes that rely on this undocumented behaviour. Maybe in KF6.</tspan></tspan></text>
    <path style="stroke-width:1" id="normal-hint-compose-over-border" d="m -12,76 h 3.9999999 v 4 H -12 Z" fill="#00ff00" fill-rule="evenodd" />
    <path fill-rule="evenodd" fill="#00ff00" d="m -12,152 h 3.9999999 v 4 H -12 Z" id="focus-background-hint-compose-over-border" style="stroke-width:1" />
    <path style="stroke-width:1" id="hint-focus-highlighted-background" d="m -20,152 h 4 v 4 h -4 z" fill="#00ff00" fill-rule="evenodd" />
    <text xml:space="preserve" style="font-size:21.3333px;line-height:1.25;font-family:'Noto Sans';-inkscape-font-specification:'Noto Sans';letter-spacing:0px;word-spacing:0px" x="96" y="-68" id="text1171"><tspan sodipodi:role="line" id="tspan1169" /></text>
    <path id="rect1134-36" d="M -64,0 H -8 V 16 H -64 Z" fill="#00ff00" fill-rule="evenodd" style="stroke-width:0.999997" />
    <text id="text2130-0-2-0-4-7-0" x="-36" y="12" font-family="'Noto Sans'" font-size="10px" letter-spacing="0" text-anchor="middle" word-spacing="0"><tspan id="tspan2128-4-9-4-3-5-62" x="-36" y="12" font-size="10px" text-anchor="middle">other hints</tspan></text>
</svg>
