<?xml version="1.0" encoding="UTF-8" standalone="no"?>
<svg xmlns="http://www.w3.org/2000/svg" xmlns:xlink="http://www.w3.org/1999/xlink" width="56" height="56" viewBox="0 0 56 56" id="svg1" version="1.1">
    <style id="current-color-scheme" type="text/css">
        .ColorScheme-Highlight {
            color:#3daee9;
            stop-color:#3daee9;
        }
    </style>
    <defs id="defs">
        <linearGradient id="gradientBase">
            <stop id="s1" offset="0"   style="stop-color:currentColor;stop-opacity:0.87450981" />
            <stop id="s2" offset="0.5" style="stop-color:currentColor;stop-opacity:0.627451" />
            <stop id="s3" offset="1"   style="stop-color:currentColor;stop-opacity:0" />
        </linearGradient>

        <radialGradient xlink:href="#gradientBase" id="gradientTopLeft" cx="22" cy="21.999973" fx="22" fy="21.999973" r="6" gradientUnits="userSpaceOnUse" gradientTransform="matrix(-7.6817312e-8,-1.9999999,2,-7.6817319e-8,-21.999945,970.36212)" />
        <radialGradient xlink:href="#gradientBase" id="gradientTopRight" cx="22" cy="21.999973" fx="22" fy="21.999973" r="6" gradientUnits="userSpaceOnUse" gradientTransform="matrix(7.6817312e-8,-1.9999999,-2,-7.6817319e-8,77.999945,970.36212)" />
        <radialGradient xlink:href="#gradientBase" id="gradientBottomRight" cx="22" cy="21.999973" fx="22" fy="21.999973" r="6" gradientUnits="userSpaceOnUse" gradientTransform="matrix(7.6817312e-8,1.9999999,-2,7.6817319e-8,77.999945,894.36218)" />
        <radialGradient xlink:href="#gradientBase" id="gradientBottomLeft" cx="22" cy="21.999973" fx="22" fy="21.999973" r="6" gradientUnits="userSpaceOnUse" gradientTransform="matrix(-7.6817312e-8,1.9999999,2,7.6817319e-8,-21.999945,894.36218)" />
    </defs>
    <rect id="hint-glow-radius" width="5" height="5" x="0" y="0" style="fill:#ff6600" />
    <rect id="hint-tile-center" width="5" height="5" x="0" y="6" style="fill:#ff6600" />

    <g id="top" transform="translate(22,10)">
        <rect style="fill:url(#gradientBase)" height="12" width="12" transform="rotate(-90 6 6)" />
    </g>
    <g id="left" transform="translate(10,22)">
        <rect style="fill:url(#gradientBase)" height="12" width="12" transform="rotate(180 6 6)" />
    </g>
    <g id="right" transform="translate(34,22)">
        <rect style="fill:url(#gradientBase)" height="12" width="12" />
    </g>
    <g id="bottom" transform="translate(22,34)">
        <rect style="fill:url(#gradientBase)" height="12" width="12" transform="rotate(90 6 6)" />
    </g>

    <g transform="translate(0,-904)" id="center">
        <rect y="926" x="22" height="12" width="12" id="rect4313" style="opacity:1;fill:none;fill-opacity:1;stroke:none" />
        <rect y="926" x="22" height="11.999968" width="12" id="rect1580" style="fill:#3daee9;fill-opacity:0.8745098;fill-rule:evenodd" />
    </g>
    <g transform="translate(0,-904.36218)" id="bottomright">
        <path id="path1420-8" d="m 34,950.36215 a 12,11.999997 0 0 0 12,-12 H 34 Z" style="fill:url(#gradientBottomRight);fill-opacity:1;fill-rule:evenodd" />
    </g>
    <g transform="translate(0,-904.36218)" id="topright">
        <path id="path1420-1" d="m 34,914.36215 a 12,11.999997 0 0 1 12,12 H 34 Z" style="fill:url(#gradientTopRight);fill-opacity:1;fill-rule:evenodd" />
    </g>
    <g transform="translate(0,-904.36218)" id="bottomleft">
        <path id="path1420-3" d="m 22,950.36215 a 12,11.999997 0 0 1 -12,-12 h 12 z" style="fill:url(#gradientBottomLeft);fill-opacity:1;fill-rule:evenodd" />
    </g>
    <g transform="translate(0,-904.36218)" id="topleft">
        <path id="path1420" d="m 22,914.36215 a 12,11.999997 0 0 0 -12,12 h 12 z" style="fill:url(#gradientTopLeft);fill-opacity:1;fill-rule:evenodd" />
    </g>
</svg>
