<?xml version="1.0" encoding="UTF-8" standalone="no"?>
<svg
   id="svg2"
   height="30"
   style=""
   width="80"
   sodipodi:version="0.32"
   inkscape:version="1.3.2 (091e20e, 2023-11-25)"
   sodipodi:docname="lineedit.svg"
   inkscape:output_extension="org.inkscape.output.svgz.inkscape"
   inkscape:export-filename="/home/pinheiro/Documents/pics/estilo/plasma/wether.png"
   inkscape:export-xdpi="90"
   inkscape:export-ydpi="90"
   version="1.1"
   xmlns:inkscape="http://www.inkscape.org/namespaces/inkscape"
   xmlns:sodipodi="http://sodipodi.sourceforge.net/DTD/sodipodi-0.dtd"
   xmlns:xlink="http://www.w3.org/1999/xlink"
   xmlns="http://www.w3.org/2000/svg"
   xmlns:svg="http://www.w3.org/2000/svg">
  <defs
     id="defs87" />
  <sodipodi:namedview
     id="namedview85"
     pagecolor="#808080"
     bordercolor="#666666"
     borderopacity="1.0"
     objecttolerance="10.0"
     gridtolerance="10.0"
     guidetolerance="10.0"
     inkscape:pageshadow="2"
     inkscape:pageopacity="0.0"
     inkscape:pagecheckerboard="0"
     showgrid="true"
     inkscape:current-layer="layer4"
     inkscape:blackoutopacity="0.0"
     inkscape:showpageshadow="2"
     inkscape:deskcolor="#d1d1d1"
     inkscape:zoom="7.1893295"
     inkscape:cx="45.692717"
     inkscape:cy="47.709595"
     inkscape:window-width="2560"
     inkscape:window-height="1364"
     inkscape:window-x="0"
     inkscape:window-y="0"
     inkscape:window-maximized="1"
     showguides="true">
    <inkscape:grid
       type="xygrid"
       id="grid926"
       originx="0"
       originy="0"
       spacingy="1"
       spacingx="1"
       units="px"
       visible="true" />
    <sodipodi:guide
       position="75,35"
       orientation="1,0"
       id="guide2"
       inkscape:locked="false" />
    <sodipodi:guide
       position="5,35"
       orientation="1,0"
       id="guide3"
       inkscape:locked="false" />
    <sodipodi:guide
       position="-5,25"
       orientation="0,-1"
       id="guide4"
       inkscape:locked="false" />
    <sodipodi:guide
       position="-5,5"
       orientation="0,-1"
       id="guide5"
       inkscape:locked="false" />
    <sodipodi:guide
       position="-5,-15"
       orientation="0,-1"
       id="guide1"
       inkscape:locked="false" />
    <sodipodi:guide
       position="-5,-35"
       orientation="0,-1"
       id="guide6"
       inkscape:locked="false" />
    <sodipodi:guide
       position="-5,-55"
       orientation="0,-1"
       id="guide7"
       inkscape:locked="false" />
    <sodipodi:guide
       position="-5,-75"
       orientation="0,-1"
       id="guide8"
       inkscape:locked="false" />
    <sodipodi:guide
       position="-5,-95"
       orientation="0,-1"
       id="guide9"
       inkscape:locked="false" />
    <sodipodi:guide
       position="-5,-115"
       orientation="0,-1"
       id="guide10"
       inkscape:locked="false" />
  </sodipodi:namedview>
  <style
     id="current-color-scheme"
     type="text/css">.ColorScheme-Text { color:#232629; }
.ColorScheme-ViewBackground { color:#fcfcfc; }
.ColorScheme-ViewHover { color:#3daee9; }
.ColorScheme-ViewFocus { color:#3daee9; }
</style>
  <g
     inkscape:groupmode="layer"
     id="layer2"
     inkscape:label="focusframe">
    <rect
       id="focusframe-center"
       height="13.999992"
       class="ColorScheme-ViewBackground"
       style="fill:currentColor;opacity:0.00100002;color:#fcfcfc"
       width="64"
       x="8"
       y="128" />
    <g
       id="focusframe-topleft"
       transform="translate(-147,157.001)"
       class="ColorScheme-ViewFocus"
       style="fill:currentColor">
      <path
         id="path10"
         style="opacity:0.33;"
         d="m 152,-39.000999 a 7,7 0 0 0 -7,7 h 2 a 5,5 0 0 1 5,-5 z"
         inkscape:label="glow" />
      <path
         id="path1-5-6-6-7-5-2"
         style=""
         d="m 5,120 a 5,5 0 0 0 -5,5 h 1 a 4,4 0 0 1 4,-4 z"
         class=" "
         transform="translate(147,-157.001)"
         inkscape:label="border" />
    </g>
    <g
       id="focusframe-top"
       style="fill:currentColor"
       transform="matrix(3.4259259,0,0,1,-116.85185,159.001)"
       class="ColorScheme-ViewFocus">
      <path
         id="rect3682-2-3-3-6-9-1"
         style="opacity:0.00100002"
         inkscape:label="hint"
         d="m 5,125.001 h 70 v -5 H 5 Z"
         transform="matrix(0.29189189,0,0,1,34.108108,-159.001)"
         class="ColorScheme-ViewBackground" />
      <rect
         style="opacity:0.33;"
         id="rect3120"
         width="20.432434"
         height="2"
         x="35.567566"
         y="-41"
         inkscape:label="glow" />
      <rect
         id="rect3804-6-6"
         height="1"
         style=""
         width="20.432432"
         x="35.567566"
         y="-39"
         inkscape:label="border" />
    </g>
    <rect
       style="fill:#4e9a06"
       id="focusframe-hint-top-margin"
       width="2"
       height="2"
       x="40"
       y="118" />
    <rect
       style="fill:#4e9a06"
       id="focusframe-hint-bottom-margin"
       width="2"
       height="2"
       x="40"
       y="150.00100708" />
    <rect
       style="fill:#4e9a06"
       id="focusframe-hint-left-margin"
       width="2"
       height="2"
       x="-136.00100708"
       y="-2.00099992752"
       transform="rotate(-90)" />
    <rect
       style="fill:#4e9a06"
       id="focusframe-hint-right-margin"
       width="2"
       height="2"
       x="-136.00100708"
       y="80"
       transform="rotate(-90)" />
    <use
       x="0"
       y="0"
       xlink:href="#focusframe-topleft"
       id="focusframe-bottomleft"
       transform="rotate(-90,15.000501,135.0005)"
       inkscape:label="focusframe-bottomleft" />
    <use
       x="0"
       y="0"
       xlink:href="#focusframe-topleft"
       id="focusframe-topright"
       transform="rotate(90,39.998993,160.00101)"
       inkscape:label="focusframe-topright" />
    <use
       x="0"
       y="0"
       xlink:href="#focusframe-topright"
       id="focusframe-bottomright"
       transform="rotate(90,65.001012,135.00101)"
       inkscape:label="focusframe-bottomright" />
    <use
       x="0"
       y="0"
       xlink:href="#focusframe-top"
       id="focusframe-bottom"
       transform="matrix(1,0,0,-1,-5.2695197e-7,270.001)"
       inkscape:label="focusframe-bottom" />
    <use
       x="0"
       y="0"
       xlink:href="#focusframe-top"
       id="focusframe-left"
       transform="matrix(0,-0.28574303,1,0,-120.001,146.43073)"
       inkscape:label="focusframe-left" />
    <use
       x="0"
       y="0"
       xlink:href="#focusframe-top"
       id="focusframe-right"
       transform="matrix(0,0.28571432,-1,0,200.001,123.57143)"
       inkscape:label="focusframe-right" />
  </g>
  <g
     inkscape:groupmode="layer"
     id="layer3"
     inkscape:label="focus">
    <rect
       id="focus-center"
       height="14"
       class="ColorScheme-ViewBackground"
       style="fill:currentColor;opacity:0.00100002"
       width="64"
       x="8"
       y="88" />
    <g
       id="focus-topleft"
       transform="translate(-147,117)">
      <path
         id="path1-5-6-6-7-5"
         style="fill-rule:evenodd;fill:currentColor"
         d="M 5,80 A 5,5 0 0 0 0,85 H 1 A 4,4 0 0 1 5,81 Z"
         class="  ColorScheme-ViewFocus"
         transform="translate(147,-117)"
         inkscape:label="border" />
    </g>
    <g
       id="focus-top"
       transform="matrix(3.5238095,0,0,1,-120.33333,119)">
      <path
         id="rect3682-2-3-3-6"
         style="opacity:0.00100002"
         inkscape:label="hint"
         d="m 35.567569,-39 h 19.864862 v 5 H 35.567569 Z"
         class="ColorScheme-ViewBackground" />
      <rect
         id="rect3804-6"
         height="1"
         class="ColorScheme-ViewFocus"
         style="fill-rule:evenodd;fill:currentColor;"
         width="19.864866"
         x="35.567566"
         y="-39"
         inkscape:label="border" />
    </g>
    <use
       x="0"
       y="0"
       xlink:href="#focus-topleft"
       id="focus-bottomleft"
       transform="matrix(1,0,0,-1,0,190)"
       inkscape:label="focus-bottomleft" />
    <use
       x="0"
       y="0"
       xlink:href="#focus-topleft"
       id="focus-topright"
       transform="matrix(-1,0,0,1,80,0)"
       inkscape:label="focus-topright" />
    <use
       x="0"
       y="0"
       xlink:href="#focus-topleft"
       id="focus-bottomright"
       transform="rotate(180,40,95)"
       inkscape:label="focus-bottomright" />
    <use
       x="0"
       y="0"
       xlink:href="#focus-top"
       id="focus-left"
       transform="matrix(0,0.28571427,1,0,-80,83.571429)"
       inkscape:label="focus-left" />
    <use
       x="0"
       y="0"
       xlink:href="#focus-top"
       id="focus-right"
       transform="matrix(0,0.2857143,-1,0,160,83.571428)"
       inkscape:label="focus-right" />
    <use
       x="0"
       y="0"
       xlink:href="#focus-top"
       id="focus-bottom"
       transform="matrix(1,0,0,-1,-2.25e-6,190)"
       inkscape:label="focus-bottom" />
    <rect
       style="fill:#4e9a06;fill-opacity:1;fill-rule:evenodd;stroke-width:1"
       id="focus-hint-top-margin"
       width="2"
       height="0.0010000000475"
       x="40"
       y="79.9990005493" />
    <rect
       style="fill:#4e9a06;fill-opacity:1;fill-rule:evenodd;stroke-width:1"
       id="focus-hint-bottom-margin"
       width="2"
       height="0.0010000000475"
       x="40"
       y="110" />
    <rect
       style="fill:#4e9a06;fill-opacity:1;fill-rule:evenodd;stroke-width:1"
       id="focus-hint-left-margin"
       width="2"
       height="0.0010000000475"
       x="-96"
       y="-0.0010000000475"
       transform="rotate(-90)" />
    <rect
       style="fill:#4e9a06;fill-opacity:1;fill-rule:evenodd;stroke-width:1"
       id="focus-hint-right-margin"
       width="2"
       height="0.0010000000475"
       x="-96"
       y="80"
       transform="rotate(-90)" />
  </g>
  <g
     inkscape:groupmode="layer"
     id="layer4"
     inkscape:label="hover">
    <rect
       id="hover-center"
       height="14"
       class="ColorScheme-ViewBackground"
       style="fill:currentColor;opacity:0.00100002"
       width="64"
       x="8"
       y="48" />
    <g
       id="hover-topleft"
       transform="translate(-147,77)">
      <path
         id="path1-5-6-6-7"
         style="fill-rule:evenodd;fill:currentColor;"
         d="m 152,-37 a 5,5 0 0 0 -5,5 h 1 a 4,4 0 0 1 4,-4 z"
         class="  ColorScheme-ViewHover"
         inkscape:label="border" />
    </g>
    <g
       id="hover-top"
       transform="matrix(3.5238095,0,0,1,-120.33333,79)">
      <path
         id="rect3682-2-3-3"
         style="opacity:0.00100002"
         inkscape:label="hint"
         d="M 35.567568,-39 H 55.43243 v 5 H 35.567568 Z"
         class="ColorScheme-ViewBackground" />
      <rect
         id="rect3804-2"
         height="1"
         class="ColorScheme-ViewHover"
         style="fill-rule:evenodd;fill:currentColor;"
         width="19.864864"
         x="35.567566"
         y="-39"
         inkscape:label="border" />
    </g>
    <use
       x="0"
       y="0"
       xlink:href="#hover-topleft"
       id="hover-bottomleft"
       transform="rotate(-90,15,55)"
       inkscape:label="hover-bottomleft" />
    <use
       x="0"
       y="0"
       xlink:href="#hover-topleft"
       id="hover-topright"
       transform="rotate(90,40,80)"
       inkscape:label="hover-topright" />
    <use
       x="0"
       y="0"
       xlink:href="#hover-topleft"
       id="hover-bottomright"
       transform="rotate(180,40,55)"
       inkscape:label="hover-bottomright" />
    <use
       x="0"
       y="0"
       xlink:href="#hover-top"
       id="hover-bottom"
       transform="matrix(1,0,0,-1,4.4711332e-6,110)"
       inkscape:label="hover-bottom" />
    <use
       x="0"
       y="0"
       xlink:href="#hover-top"
       id="hover-left"
       transform="matrix(0,-0.28571425,1,0,-40,66.42857)"
       inkscape:label="hover-left" />
    <use
       x="0"
       y="0"
       xlink:href="#hover-top"
       id="hover-right"
       transform="matrix(0,0.28571429,-1,0,120,43.57143)"
       inkscape:label="hover-right" />
    <rect
       style="fill:#4e9a06;fill-opacity:1;fill-rule:evenodd;stroke-width:1"
       id="hover-hint-top-margin"
       width="2"
       height="0.0010000000475"
       x="40"
       y="39.9990005493" />
    <rect
       style="fill:#4e9a06;fill-opacity:1;fill-rule:evenodd;stroke-width:1"
       id="hover-hint-bottom-margin"
       width="2"
       height="0.0010000000475"
       x="40"
       y="70" />
    <rect
       style="fill:#4e9a06;fill-opacity:1;fill-rule:evenodd;stroke-width:1"
       id="hover-hint-left-margin"
       width="2"
       height="0.0010000000475"
       x="-56"
       y="-0.0010000000475"
       transform="rotate(-90)" />
    <rect
       style="fill:#4e9a06;fill-opacity:1;fill-rule:evenodd;stroke-width:1"
       id="hover-hint-right-margin"
       width="2"
       height="0.0010000000475"
       x="-56"
       y="80"
       transform="rotate(-90)" />
  </g>
  <g
     inkscape:groupmode="layer"
     id="layer1"
     inkscape:label="base">
    <rect
       id="base-center"
       height="14"
       class="ColorScheme-ViewBackground"
       style="fill:currentColor;fill-opacity:1;stroke-width:0.855594"
       width="64"
       x="8"
       y="8" />
    <g
       id="base-topleft"
       transform="translate(-147,37)">
      <path
         id="rect4544"
         style="fill:currentColor;"
         class="ColorScheme-ViewBackground"
         d="M 152 -37 A 5 5 0 0 0 147 -32 L 152 -32 L 152 -37 z "
         inkscape:label="background" />
      <path
         id="path1"
         style="display:inline;opacity:0.2;fill:currentColor;fill-rule:evenodd"
         d="m 152,-37 a 5,5 0 0 0 -5,5 h 1 a 4,4 0 0 1 4,-4 z"
         class="ColorScheme-Text"
         inkscape:label="border" />
    </g>
    <g
       id="base-top"
       style="stroke-width:0.532714"
       transform="matrix(3.5238095,0,0,1,-120.33333,39)">
      <rect
         id="rect3682"
         height="5"
         class="ColorScheme-ViewBackground"
         style="fill:currentColor;"
         width="19.864864"
         x="35.567566"
         y="-39"
         inkscape:label="background" />
      <rect
         id="rect3804"
         height="1"
         class="ColorScheme-Text"
         style="fill-rule:evenodd;fill:currentColor;opacity:0.2;"
         width="19.864864"
         x="35.567566"
         y="-39"
         inkscape:label="border" />
    </g>
    <use
       x="0"
       y="0"
       xlink:href="#base-top"
       id="base-bottom"
       transform="matrix(1,0,0,-1,3.3263855e-6,30)"
       inkscape:label="base-bottom" />
    <use
       x="0"
       y="0"
       xlink:href="#base-top"
       id="base-left"
       transform="matrix(0,-0.2857143,1,0,0,26.428571)"
       inkscape:label="base-left" />
    <use
       x="0"
       y="0"
       xlink:href="#base-top"
       id="base-right"
       transform="matrix(0,0.28571429,-1,0,80,3.5714302)"
       inkscape:label="base-right" />
    <use
       x="0"
       y="0"
       xlink:href="#base-topleft"
       id="base-bottomleft"
       transform="rotate(-90,15,15)"
       inkscape:label="base-bottomleft" />
    <use
       x="0"
       y="0"
       xlink:href="#base-topleft"
       id="base-topright"
       transform="rotate(90,40,40)"
       inkscape:label="base-topright" />
    <use
       x="0"
       y="0"
       xlink:href="#base-topleft"
       id="base-bottomright"
       transform="rotate(180,40,15)"
       inkscape:label="base-bottomright" />
    <rect
       id="base-hint-top-margin"
       height="6"
       style="fill:#4e9a06"
       width="2"
       x="40"
       y="0" />
    <rect
       id="base-hint-right-margin"
       height="2"
       style="fill:#4e9a06"
       width="6"
       x="74"
       y="14" />
    <rect
       id="base-hint-bottom-margin"
       height="6"
       style="fill:#4e9a06"
       x="40"
       y="24"
       width="2" />
    <rect
       id="base-hint-left-margin"
       height="1.9999999"
       style="fill:#4e9a06"
       width="6"
       x="0"
       y="14" />
  </g>
  <rect
     id="hint-tile-center"
     height="2.07712602615"
     rx="2.07712602615"
     style="fill:#4e9a06;"
     width="2.03293180466"
     x="0"
     y="-4" />
  <rect
     id="hint-focus-over-base"
     height="2.07712602615"
     rx="2.07712602615"
     style="fill:#4e9a06;"
     width="2.03293180466"
     x="4"
     y="-4" />
</svg>
