<?xml version="1.0" encoding="UTF-8" standalone="no"?>
<svg
   inkscape:version="1.3.2 (091e20e, 2023-11-25)"
   sodipodi:docname="menubaritem.svg"
   version="1.1"
   viewBox="0 0 112 34"
   id="svg2"
   width="112"
   height="34"
   xmlns:inkscape="http://www.inkscape.org/namespaces/inkscape"
   xmlns:sodipodi="http://sodipodi.sourceforge.net/DTD/sodipodi-0.dtd"
   xmlns="http://www.w3.org/2000/svg"
   xmlns:svg="http://www.w3.org/2000/svg">
  <defs
     id="defs319" />
  <sodipodi:namedview
     inkscape:window-maximized="1"
     inkscape:window-y="0"
     inkscape:window-x="0"
     inkscape:cy="21.999999"
     inkscape:cx="50.874998"
     inkscape:zoom="16.000001"
     inkscape:current-layer="layer4"
     showgrid="true"
     id="namedview317"
     inkscape:window-height="1374"
     inkscape:window-width="2560"
     inkscape:pageshadow="2"
     inkscape:pageopacity="0"
     guidetolerance="10"
     gridtolerance="10"
     objecttolerance="10"
     borderopacity="1"
     bordercolor="#666666"
     pagecolor="#ffffff"
     inkscape:snap-text-baseline="true"
     inkscape:snap-smooth-nodes="true"
     fit-margin-top="0"
     fit-margin-left="0"
     fit-margin-right="0"
     fit-margin-bottom="0"
     inkscape:showpageshadow="0"
     inkscape:pagecheckerboard="0"
     inkscape:deskcolor="#d1d1d1">
    <inkscape:grid
       empspacing="2"
       id="grid1136"
       type="xygrid"
       originx="0"
       originy="0"
       spacingy="1"
       spacingx="1"
       units="px"
       visible="true" />
  </sodipodi:namedview>
  <style
     id="current-color-scheme"
     type="text/css">
        .ColorScheme-ButtonBackground {
            color:#eff0f1;
            stop-color:#eff0f1;
        }
        .ColorScheme-ButtonHover {
            color:#93cee9;
            stop-color:#93cee9;
        }
        .ColorScheme-ButtonFocus{
            color:#3daee9;
            stop-color:#3daee9;
        }
    </style>
  <g
     inkscape:groupmode="layer"
     id="layer4"
     inkscape:label="pressed">
    <g
       id="pressed-center"
       transform="translate(-39.987322,-138)">
      <path
         d="m 118,144 h 22 v 22 h -22 z"
         class="ColorScheme-ButtonFocus"
         fill="currentColor"
         fill-rule="evenodd"
         id="path208-6"
         style="color:#3daee9;stop-color:#3daee9"
         inkscape:label="background" />
    </g>
    <g
       id="pressed-bottomleft"
       transform="translate(72.012678,4)"
       fill-rule="evenodd">
      <path
         id="rect833-7-3-55-1-3-5"
         d="m 0,28 v 2 h 2 v -2 z"
         class="ColorScheme-ButtonFocus"
         fill="currentColor"
         sodipodi:nodetypes="ccccc"
         style="color:#3daee9;stop-color:#3daee9"
         inkscape:label="background" />
    </g>
    <g
       id="pressed-bottom"
       transform="translate(74.012678,4)"
       fill-rule="evenodd">
      <path
         id="rect829-6-5-1-9-5"
         transform="scale(-1)"
         d="m -26,-30 h 22 v 2 h -22 z"
         class="ColorScheme-ButtonFocus"
         fill="currentColor"
         style="color:#3daee9;stop-color:#3daee9"
         inkscape:label="background" />
    </g>
    <g
       id="pressed-topleft"
       transform="matrix(1,0,0,-1,72.012678,30)"
       fill-rule="evenodd">
      <path
         id="rect833-7-3-1-3-9-6-2"
         d="m 0,28 v 2 h 2 v -2 z"
         class="ColorScheme-ButtonFocus"
         fill="currentColor"
         sodipodi:nodetypes="ccccc"
         style="color:#3daee9;stop-color:#3daee9"
         inkscape:label="background" />
    </g>
    <g
       id="pressed-top"
       transform="matrix(1,0,0,-1,74.012678,30)"
       fill-rule="evenodd">
      <path
         id="rect829-6-0-5-6-4-1"
         transform="scale(-1)"
         d="m -26,-30 h 22 v 2 h -22 z"
         class="ColorScheme-ButtonFocus"
         fill="currentColor"
         style="color:#3daee9;stop-color:#3daee9"
         inkscape:label="background" />
    </g>
    <g
       id="pressed-topright"
       transform="matrix(0,1,1,0,76.012678,0)"
       fill-rule="evenodd">
      <path
         id="rect833-7-3-6-4-6-4-7"
         d="m 0,28 v 2 h 2 v -2 z"
         class="ColorScheme-ButtonFocus"
         fill="currentColor"
         sodipodi:nodetypes="ccccc"
         style="color:#3daee9;stop-color:#3daee9"
         inkscape:label="background" />
    </g>
    <g
       id="pressed-right"
       transform="matrix(0,1,1,0,76.012678,2)"
       fill-rule="evenodd">
      <path
         id="rect829-6-26-4-3-8-9"
         transform="scale(-1)"
         d="m -26,-30 h 22 v 2 h -22 z"
         class="ColorScheme-ButtonFocus"
         fill="currentColor"
         style="color:#3daee9;stop-color:#3daee9"
         inkscape:label="background" />
    </g>
    <g
       id="pressed-bottomright"
       transform="matrix(-1,0,0,1,106.01268,4)"
       fill-rule="evenodd">
      <path
         id="rect833-7-3-7-7-8-2-6"
         d="m 0,28 v 2 H 2 V 29 28 H 1 Z"
         class="ColorScheme-ButtonFocus"
         fill="currentColor"
         sodipodi:nodetypes="ccccccc"
         style="color:#3daee9;stop-color:#3daee9"
         inkscape:label="background" />
    </g>
    <g
       id="pressed-left"
       transform="rotate(90,50.006339,52.006339)"
       fill-rule="evenodd">
      <path
         id="rect829-6-26-0-8-9-6-6"
         transform="scale(-1)"
         d="m -26,-30 h 22 v 2 h -22 z"
         class="ColorScheme-ButtonFocus"
         fill="currentColor"
         style="color:#3daee9;stop-color:#3daee9"
         inkscape:label="background" />
    </g>
    <path
       style="fill:#ed333b;stroke-width:0.999996"
       id="pressed-hint-top-margin"
       d="m 88.012678,0 h 2 v 6 h -2 z"
       fill="#ff00ff"
       fill-rule="evenodd" />
    <path
       style="fill:#ed333b;stroke-width:0.999996"
       id="pressed-hint-bottom-margin"
       d="m 88.012678,28 h 2 v 6 h -2 z"
       fill="#ff00ff"
       fill-rule="evenodd" />
    <path
       style="fill:#ed333b;stroke-width:0.999996"
       id="pressed-hint-left-margin"
       d="m 72.012678,16 h 6 v 2 h -6 z"
       fill="#ff00ff"
       fill-rule="evenodd" />
    <path
       style="fill:#ed333b;stroke-width:0.999996"
       id="pressed-hint-right-margin"
       d="m 100.01268,16 h 6 v 2 h -6 z"
       fill="#ff00ff"
       fill-rule="evenodd" />
  </g>
  <g
     inkscape:groupmode="layer"
     id="layer3"
     inkscape:label="hover">
    <g
       transform="translate(-76,-138)"
       id="hover-center">
      <path
         id="path208"
         fill-rule="evenodd"
         fill="currentColor"
         class="ColorScheme-ButtonFocus"
         d="m 118,144 h 22 v 22 h -22 z"
         style="color:#3daee9;stop-color:#3daee9"
         inkscape:label="background" />
    </g>
    <g
       fill-rule="evenodd"
       transform="translate(36,4)"
       id="hover-bottomleft">
      <path
         sodipodi:nodetypes="ccccc"
         fill="currentColor"
         class="ColorScheme-ButtonFocus"
         d="m 0,28 v 2 h 2 v -2 z"
         id="rect833-7-3-55-1-3"
         style="color:#3daee9;stop-color:#3daee9"
         inkscape:label="background" />
    </g>
    <g
       fill-rule="evenodd"
       transform="translate(38,4)"
       id="hover-bottom">
      <path
         fill="currentColor"
         class="ColorScheme-ButtonFocus"
         d="m -26,-30 h 22 v 2 h -22 z"
         transform="scale(-1)"
         id="rect829-6-5-1-9"
         style="color:#3daee9;stop-color:#3daee9"
         inkscape:label="background" />
    </g>
    <g
       fill-rule="evenodd"
       transform="matrix(1,0,0,-1,36,30)"
       id="hover-topleft">
      <path
         sodipodi:nodetypes="ccccc"
         fill="currentColor"
         class="ColorScheme-ButtonFocus"
         d="m 0,28 v 2 h 2 v -2 z"
         id="rect833-7-3-1-3-9-6"
         style="color:#3daee9;stop-color:#3daee9"
         inkscape:label="background" />
    </g>
    <g
       fill-rule="evenodd"
       transform="matrix(1,0,0,-1,38,30)"
       id="hover-top"
       inkscape:label="hover-top">
      <path
         fill="currentColor"
         class="ColorScheme-ButtonFocus"
         d="m -26,-30 h 22 v 2 h -22 z"
         transform="scale(-1)"
         id="rect829-6-0-5-6-4"
         style="color:#3daee9;stop-color:#3daee9"
         inkscape:label="background" />
    </g>
    <g
       fill-rule="evenodd"
       transform="matrix(0,1,1,0,40,0)"
       id="hover-topright">
      <path
         sodipodi:nodetypes="ccccc"
         fill="currentColor"
         class="ColorScheme-ButtonFocus"
         d="m 0,28 v 2 h 2 v -2 z"
         id="rect833-7-3-6-4-6-4"
         style="color:#3daee9;stop-color:#3daee9"
         inkscape:label="background" />
    </g>
    <g
       fill-rule="evenodd"
       transform="matrix(0,1,1,0,40,2)"
       id="hover-right">
      <path
         fill="currentColor"
         class="ColorScheme-ButtonFocus"
         d="m -26,-30 h 22 v 2 h -22 z"
         transform="scale(-1)"
         id="rect829-6-26-4-3-8"
         style="color:#3daee9;stop-color:#3daee9"
         inkscape:label="background" />
    </g>
    <g
       fill-rule="evenodd"
       transform="matrix(-1,0,0,1,70,4)"
       id="hover-bottomright">
      <path
         sodipodi:nodetypes="ccccccc"
         fill="currentColor"
         class="ColorScheme-ButtonFocus"
         d="m 0,28 v 2 H 2 V 29 28 H 1 Z"
         id="rect833-7-3-7-7-8-2"
         style="color:#3daee9;stop-color:#3daee9"
         inkscape:label="background" />
    </g>
    <g
       fill-rule="evenodd"
       transform="rotate(90,32,34)"
       id="hover-left">
      <path
         fill="currentColor"
         class="ColorScheme-ButtonFocus"
         d="m -26,-30 h 22 v 2 h -22 z"
         transform="scale(-1)"
         id="rect829-6-26-0-8-9-6"
         style="color:#3daee9;stop-color:#3daee9"
         inkscape:label="background" />
    </g>
    <path
       fill-rule="evenodd"
       fill="#ff00ff"
       d="m 52,0 h 2 v 6 h -2 z"
       id="hover-hint-top-margin"
       style="fill:#ed333b;stroke-width:0.999996" />
    <path
       fill-rule="evenodd"
       fill="#ff00ff"
       d="m 52,28 h 2 v 6 h -2 z"
       id="hover-hint-bottom-margin"
       style="fill:#ed333b;stroke-width:0.999996" />
    <path
       fill-rule="evenodd"
       fill="#ff00ff"
       d="m 36,16 h 6 v 2 h -6 z"
       id="hover-hint-left-margin"
       style="fill:#ed333b;stroke-width:0.999996" />
    <path
       fill-rule="evenodd"
       fill="#ff00ff"
       d="m 64,16 h 6 v 2 h -6 z"
       id="hover-hint-right-margin"
       style="fill:#ed333b;stroke-width:0.999996" />
  </g>
  <g
     inkscape:groupmode="layer"
     id="layer2"
     inkscape:label="normal">
    <g
       transform="translate(-174,-62)"
       id="normal-center">
      <path
         id="path34"
         fill-rule="evenodd"
         fill="transparent"
         d="m 180,68 h 22 v 22 h -22 z"
         inkscape:label="background" />
    </g>
    <g
       fill-rule="evenodd"
       transform="translate(2e-8,4)"
       id="normal-bottomleft">
      <path
         fill="transparent"
         d="m 0,28 c 0,1.108 0.892,2 2,2 v -2 z"
         id="rect833-7-3"
         inkscape:label="background" />
    </g>
    <g
       fill-rule="evenodd"
       transform="translate(2,4)"
       id="normal-bottom">
      <path
         fill="transparent"
         d="m -26,-30 h 22 v 2 h -22 z"
         transform="scale(-1)"
         id="rect829-6"
         inkscape:label="background" />
    </g>
    <g
       fill-rule="evenodd"
       transform="matrix(1,0,0,-1,2e-8,30)"
       id="normal-topleft">
      <path
         fill="transparent"
         d="m 0,28 c 0,1.108 0.892,2 2,2 v -2 z"
         id="rect833-7-3-1"
         inkscape:label="background" />
    </g>
    <g
       fill-rule="evenodd"
       transform="matrix(1,0,0,-1,2,30)"
       id="normal-top">
      <path
         fill="transparent"
         d="m -26,-30 h 22 v 2 h -22 z"
         transform="scale(-1)"
         id="rect829-6-0"
         inkscape:label="background" />
    </g>
    <g
       fill-rule="evenodd"
       transform="matrix(0,1,1,0,4,0)"
       id="normal-topright">
      <path
         fill="transparent"
         d="m 0,28 c 0,1.108 0.892,2 2,2 v -2 z"
         id="rect833-7-3-6"
         inkscape:label="background" />
    </g>
    <g
       fill-rule="evenodd"
       transform="matrix(0,1,1,0,4,2)"
       id="normal-right">
      <path
         fill="transparent"
         d="m -26,-30 h 22 v 2 h -22 z"
         transform="scale(-1)"
         id="rect829-6-26"
         inkscape:label="background" />
    </g>
    <g
       fill-rule="evenodd"
       transform="matrix(-1,0,0,1,34,4)"
       id="normal-bottomright">
      <path
         fill="transparent"
         d="m 0,28 c 0,1.108 0.892,2 2,2 v -2 z"
         id="rect833-7-3-7"
         inkscape:label="background" />
    </g>
    <g
       fill-rule="evenodd"
       transform="rotate(90,14,16)"
       id="normal-left">
      <path
         fill="transparent"
         d="m -26,-30 h 22 v 2 h -22 z"
         transform="scale(-1)"
         id="rect829-6-26-0"
         inkscape:label="background" />
    </g>
    <path
       fill-rule="evenodd"
       fill="#ff00ff"
       d="m 16,0 h 2 v 6 h -2 z"
       id="normal-hint-top-margin"
       style="fill:#ed333b;stroke-width:0.999996" />
    <path
       fill-rule="evenodd"
       fill="#ff00ff"
       d="m 16,28 h 2 v 6 h -2 z"
       id="normal-hint-bottom-margin"
       style="fill:#ed333b;stroke-width:0.999996" />
    <path
       fill-rule="evenodd"
       fill="#ff00ff"
       d="M 2e-8,16 H 6 v 2 H 2e-8 Z"
       id="normal-hint-left-margin"
       style="fill:#ed333b;stroke-width:0.999996" />
    <path
       fill-rule="evenodd"
       fill="#ff00ff"
       d="m 28,16 h 6 v 2 h -6 z"
       id="normal-hint-right-margin"
       style="fill:#ed333b;stroke-width:0.999996" />
  </g>
</svg>
