<?xml version="1.0" encoding="UTF-8" standalone="no"?>
<!-- Created with Inkscape (http://www.inkscape.org/) -->

<svg
   width="48px"
   height="48px"
   id="svg31290"
   version="1.1"
   inkscape:version="1.3.2 (091e20e, 2023-11-25)"
   sodipodi:docname="picker.svg"
   xmlns:inkscape="http://www.inkscape.org/namespaces/inkscape"
   xmlns:sodipodi="http://sodipodi.sourceforge.net/DTD/sodipodi-0.dtd"
   xmlns:xlink="http://www.w3.org/1999/xlink"
   xmlns="http://www.w3.org/2000/svg"
   xmlns:svg="http://www.w3.org/2000/svg"
   xmlns:rdf="http://www.w3.org/1999/02/22-rdf-syntax-ns#"
   xmlns:cc="http://creativecommons.org/ns#"
   xmlns:dc="http://purl.org/dc/elements/1.1/">
  <defs
     id="defs31292">
    <linearGradient
       y2="179.00003"
       x2="329.29993"
       y1="166.00003"
       x1="329.29993"
       gradientTransform="matrix(0.03816794,0,0,0.3846153,252.9313,48.153847)"
       gradientUnits="userSpaceOnUse"
       id="linearGradient4607"
       xlink:href="#linearGradient8746"
       inkscape:collect="always" />
    <linearGradient
       id="linearGradient8746">
      <stop
         style="stop-color:#7b7b80;stop-opacity:1;"
         offset="0"
         id="stop8748" />
      <stop
         id="stop10020"
         offset="0.06448276"
         style="stop-color:#adadb5;stop-opacity:1;" />
      <stop
         id="stop10016"
         offset="0.23"
         style="stop-color:#e1e5e9;stop-opacity:1;" />
      <stop
         id="stop10040"
         offset="0.5"
         style="stop-color:#ffffff;stop-opacity:1;" />
      <stop
         style="stop-color:#e1e5e9;stop-opacity:1;"
         offset="0.76999998"
         id="stop10022" />
      <stop
         id="stop10024"
         offset="0.92469281"
         style="stop-color:#aeaeb4;stop-opacity:1;" />
      <stop
         style="stop-color:#7b7b80;stop-opacity:1;"
         offset="1"
         id="stop8750" />
    </linearGradient>
  </defs>
  <sodipodi:namedview
     id="base"
     pagecolor="#bebebe"
     bordercolor="#666666"
     borderopacity="1.0"
     inkscape:pageopacity="1"
     inkscape:pageshadow="2"
     inkscape:zoom="19.79899"
     inkscape:cx="44.69925"
     inkscape:cy="22.677925"
     inkscape:current-layer="layer2"
     showgrid="true"
     inkscape:grid-bbox="true"
     inkscape:document-units="px"
     inkscape:window-width="2560"
     inkscape:window-height="1374"
     inkscape:window-x="0"
     inkscape:window-y="0"
     inkscape:window-maximized="1"
     inkscape:showpageshadow="0"
     inkscape:pagecheckerboard="0"
     inkscape:deskcolor="#d1d1d1">
    <inkscape:grid
       type="xygrid"
       id="grid31298"
       empspacing="5"
       visible="true"
       enabled="true"
       snapvisiblegridlinesonly="true"
       originx="0"
       originy="0"
       spacingy="1"
       spacingx="1"
       units="px" />
  </sodipodi:namedview>
  <metadata
     id="metadata31295">
    <rdf:RDF>
      <cc:Work
         rdf:about="">
        <dc:format>image/svg+xml</dc:format>
        <dc:type
           rdf:resource="http://purl.org/dc/dcmitype/StillImage" />
      </cc:Work>
    </rdf:RDF>
  </metadata>
  <g
     id="layer1"
     inkscape:label="mask"
     inkscape:groupmode="layer">
    <rect
       style="fill:#008000;fill-opacity:0.87451;fill-rule:nonzero;stroke:none"
       id="hint-stretch-borders"
       width="2.0329318"
       height="2.077126"
       x="1"
       y="0.96143699"
       rx="0"
       ry="2.077126" />
    <rect
       inkscape:export-ydpi="90"
       inkscape:export-xdpi="90"
       inkscape:export-filename="/home/diau/svn/playground-plasma/desktoptheme/air/widgets/image2579.png"
       style="opacity:0.875;fill:#008000;fill-opacity:1;stroke:none"
       id="hint-compose-over-border"
       width="5"
       height="4.375"
       x="4"
       y="1" />
    <path
       inkscape:connector-curvature="0"
       id="mask-center"
       d="M 6,29 V 42 H 20 V 29 Z"
       style="fill:#000000;fill-opacity:1;fill-rule:nonzero;stroke:none" />
    <use
       x="0"
       y="0"
       xlink:href="#mask-topleft"
       id="mask-bottomleft"
       transform="rotate(-90,12.5,35.5)"
       inkscape:label="mask-bottomleft" />
    <use
       x="0"
       y="0"
       xlink:href="#mask-topleft"
       id="mask-bottomright"
       transform="rotate(180,13,35.5)"
       inkscape:label="mask-bottomright" />
    <use
       x="0"
       y="0"
       xlink:href="#mask-topleft"
       id="mask-topright"
       transform="matrix(-1,0,0,1,26,0)"
       inkscape:label="mask-topright" />
    <use
       x="0"
       y="0"
       xlink:href="#mask-top"
       id="mask-left"
       transform="matrix(0,-0.93537771,1,0,-23,47.707554)"
       inkscape:label="mask-left" />
    <use
       x="0"
       y="0"
       xlink:href="#mask-top"
       id="mask-right"
       transform="matrix(0,0.92857143,-1,0,49,23.428571)"
       inkscape:label="mask-right" />
    <use
       x="0"
       y="0"
       xlink:href="#mask-top"
       id="mask-bottom"
       transform="matrix(1,0,0,-1,0,71)"
       inkscape:label="mask-bottom" />
    <g
       transform="translate(39,-15)"
       id="mask-topleft">
      <path
         style="fill:#000000;fill-opacity:0;fill-rule:nonzero;stroke:none"
         d="m -34,39 c -2.3125,0 -4,1.791666 -4,4 v 1 h 5 v -5 z"
         id="path4379"
         inkscape:connector-curvature="0"
         sodipodi:nodetypes="sscccs"
         inkscape:label="airspace" />
      <path
         sodipodi:nodetypes="sscccs"
         inkscape:connector-curvature="0"
         id="path4045"
         d="m -33.8,40 c -1.85,0 -3.2,1.433333 -3.2,3.2 V 44 h 4 v -4 z"
         style="fill:#000000;fill-opacity:1;fill-rule:nonzero;stroke:none"
         inkscape:label="mask" />
    </g>
    <g
       transform="translate(39,-15)"
       id="mask-top">
      <path
         style="fill:#000000;fill-opacity:0;fill-rule:nonzero;stroke:none"
         d="m -33,39 v 5 h 14 v -5 z"
         id="path4383"
         inkscape:connector-curvature="0"
         sodipodi:nodetypes="ccccc" />
      <path
         sodipodi:nodetypes="ccccc"
         inkscape:connector-curvature="0"
         id="path4051"
         d="m -33,40 v 4 h 14 v -4 z"
         style="fill:#000000;fill-opacity:1;fill-rule:nonzero;stroke:none" />
    </g>
  </g>
  <g
     inkscape:groupmode="layer"
     id="layer2"
     inkscape:label="picker">
    <g
       transform="matrix(2,0,0,2,-498,-216)"
       id="center">
      <path
         inkscape:connector-curvature="0"
         style="fill:url(#linearGradient4607);fill-opacity:1;fill-rule:nonzero;stroke:none"
         d="m 264,112 v 5 h 5 v -5 z"
         id="rect8669"
         inkscape:label="background" />
    </g>
    <g
       transform="translate(-235,-105)"
       id="topleft">
      <path
         style="display:inline;fill:#ffffff;fill-opacity:0;fill-rule:nonzero;stroke:none"
         d="m 263,108 c -1.68216,0 -3,1.31784 -3,3 v 1 h 4 v -4 z"
         id="path4447-3"
         sodipodi:nodetypes="cccccc"
         inkscape:connector-curvature="0"
         inkscape:label="hint" />
      <path
         style="display:inline;fill:#ffffff;fill-opacity:0.117647;fill-rule:nonzero;stroke:none"
         d="M 263.00414,107 C 260.92932,107 259,108.75191 259,110.99813 V 112 h 1 v -1.00187 C 260,109.30342 261.32448,108 263.00414,108 H 264 v -1 z"
         id="path4451-6"
         inkscape:connector-curvature="0"
         sodipodi:nodetypes="ssccssccs"
         inkscape:label="glow" />
      <path
         style="display:inline;fill:#000000;fill-opacity:0.352941;fill-rule:nonzero;stroke:none"
         d="M 4.0215891,1 C 2.1753913,1 1,2.3394291 1,4.0215891 V 5 H 2 V 4 C 2,2.73838 2.73838,2 4,2 H 5 V 1 Z"
         transform="translate(259,107)"
         id="path3881"
         inkscape:connector-curvature="0"
         sodipodi:nodetypes="ssccssccs"
         inkscape:label="border" />
      <path
         inkscape:connector-curvature="0"
         style="display:inline;fill:#000000;fill-opacity:0.156863;fill-rule:nonzero;stroke:none"
         d="M 4,2 C 3.770534,2 3.5685529,2.014942 3.375,2.0625 3.321873,2.072654 3.2703766,2.081171 3.21875,2.09375 3.198182,2.10043 3.176341,2.117755 3.15625,2.125 3.14666,2.12756 3.134533,2.12236 3.125,2.125 2.4012289,2.3975685 2,3.0648342 2,4 V 5 C 2,3.73838 2.73838,3 4,3 H 5 V 2 Z"
         transform="translate(259,107)"
         id="path3900"
         inkscape:label="depth" />
      <path
         sodipodi:nodetypes="ssccssccs"
         inkscape:connector-curvature="0"
         id="path3893"
         transform="translate(259,107)"
         d="M 4.0215891,1 C 2.1753913,1 1,2.3394291 1,4.0215891 V 5 4.933709 v -1 C 1,2.6720887 2.73838,2 4,2 H 5 V 1 Z"
         style="display:inline;fill:#000000;fill-opacity:0.352941;fill-rule:nonzero;stroke:none"
         inkscape:label="border-shadow" />
    </g>
    <g
       transform="matrix(1,0,0,2,-235,-216)"
       id="left">
      <path
         inkscape:connector-curvature="0"
         style="fill:#ffffff;fill-opacity:0.117647;fill-rule:nonzero;stroke:none"
         d="m 259,112 v 5 h 1 v -5 z"
         id="path4493-1"
         inkscape:label="glow" />
      <path
         inkscape:connector-curvature="0"
         style="fill:#ffffff;fill-opacity:0;fill-rule:nonzero;stroke:none"
         d="m 260,112 v 5 h 4 v -5 z"
         id="path4489-2"
         inkscape:label="hint" />
      <path
         id="path3884"
         d="m 260,112 v 5 h 1 v -5 z"
         style="fill:#000000;fill-opacity:0.352941;fill-rule:nonzero;stroke:none"
         inkscape:connector-curvature="0"
         inkscape:label="border" />
    </g>
    <g
       transform="matrix(2,0,0,1,-498,-105)"
       id="top">
      <path
         inkscape:connector-curvature="0"
         style="display:inline;fill:#ffffff;fill-opacity:0;fill-rule:nonzero;stroke:none"
         d="m 264,108 v 4 h 5 v -4 z"
         id="path4543-9"
         inkscape:label="hint" />
      <path
         style="fill:#ffffff;fill-opacity:0.117647;fill-rule:nonzero;stroke:none"
         d="m 264,107 v 1 h 5 v -1 z"
         id="path4547-1"
         inkscape:connector-curvature="0"
         sodipodi:nodetypes="ccccc"
         inkscape:label="glow" />
      <path
         id="path3877"
         d="m 264,108 v 1 h 5 v -1 z"
         style="fill:#000000;fill-opacity:0.54902;fill-rule:nonzero;stroke:none"
         inkscape:connector-curvature="0"
         inkscape:label="border" />
      <path
         inkscape:connector-curvature="0"
         style="fill:#000000;fill-opacity:0.156863;fill-rule:nonzero;stroke:none"
         d="m 264,109 v 1 h 5 v -1 z"
         id="path3908"
         inkscape:label="depth" />
    </g>
    <g
       transform="translate(-235,-98)"
       id="bottomleft">
      <path
         style="display:inline;fill:#ffffff;fill-opacity:0.117647;fill-rule:nonzero;stroke:none"
         d="m 259,117 v 1 c 0,2.11953 1.8499,4 4,4 h 1 v -1 h -1 c -1.73084,0 -3,-1.35522 -3,-3 v -1 z"
         id="path4470-9"
         inkscape:connector-curvature="0"
         sodipodi:nodetypes="cssccsscc"
         inkscape:label="glow" />
      <path
         style="display:inline;fill:#ffffff;fill-opacity:0;fill-rule:nonzero;stroke:none"
         d="m 260,117 v 1 c 0,1.68216 1.31785,3 3,3 h 1 v -4 z"
         id="path4468-4"
         sodipodi:nodetypes="cccccc"
         inkscape:connector-curvature="0"
         inkscape:label="hint" />
      <path
         style="display:inline;fill:#000000;fill-opacity:0.352941;fill-rule:nonzero;stroke:none"
         d="m 1,12 v 1.028884 C 1,14.711044 2.3015842,16 3.9837342,16 H 5 V 15 H 4.3274842 C 3.0658742,15 2,13.946754 2,12.685134 V 12 Z"
         transform="translate(259,105)"
         id="path3892"
         inkscape:connector-curvature="0"
         sodipodi:nodetypes="cssccsscc"
         inkscape:label="border" />
      <path
         sodipodi:nodetypes="cssccsscc"
         inkscape:connector-curvature="0"
         id="path3898"
         d="m 260,117 v 1 c 0,2.11953 0.8499,4 3,4 h 1 v -1 h -1 c -1.73084,0 -3,-1.35522 -3,-3 z"
         style="display:inline;fill:#ffffff;fill-opacity:0.607843;fill-rule:nonzero;stroke:none"
         inkscape:label="depth" />
    </g>
    <g
       transform="matrix(2,0,0,1,-498,-98)"
       id="bottom">
      <path
         inkscape:connector-curvature="0"
         style="fill:#ffffff;fill-opacity:0.627451;fill-rule:nonzero;stroke:none"
         d="m 264,121 v 1 h 5 v -1 z"
         id="path4520"
         inkscape:label="depth" />
      <path
         inkscape:connector-curvature="0"
         style="fill:#ffffff;fill-opacity:0;fill-rule:nonzero;stroke:none"
         d="m 264,117 v 4 h 5 v -4 z"
         id="path4516-7"
         inkscape:label="hint" />
      <path
         id="path3888-8"
         d="m 264,120 v 1 h 5 v -1 z"
         style="fill:#000000;fill-opacity:0.352941;fill-rule:nonzero;stroke:none"
         inkscape:connector-curvature="0"
         sodipodi:nodetypes="ccccc"
         inkscape:label="border" />
    </g>
    <rect
       style="fill:#4e9a06;fill-opacity:1;fill-rule:nonzero;stroke:none"
       id="hint-left-margin"
       width="2"
       height="1.9999999"
       x="22"
       y="12" />
    <rect
       y="0"
       x="34"
       height="2"
       width="2"
       id="hint-top-margin"
       style="fill:#4e9a06;fill-opacity:1;fill-rule:nonzero;stroke:none" />
    <rect
       style="fill:#4e9a06;fill-opacity:1;fill-rule:nonzero;stroke:none"
       id="hint-bottom-margin"
       width="2"
       height="2"
       x="34"
       y="24" />
    <rect
       y="12"
       x="46"
       height="2"
       width="2"
       id="hint-right-margin"
       style="fill:#4e9a06;fill-opacity:1;fill-rule:nonzero;stroke:none" />
    <use
       x="0"
       y="0"
       xlink:href="#topleft"
       id="topright"
       transform="matrix(-1,0,0,1,70.000008,0)"
       inkscape:label="topright" />
    <use
       x="0"
       y="0"
       xlink:href="#left"
       id="right"
       transform="matrix(-1,0,0,1,70.000008,0)"
       inkscape:label="right" />
    <use
       x="0"
       y="0"
       xlink:href="#bottomleft"
       id="bottomright"
       transform="matrix(-1,0,0,1,69.983742,0)"
       inkscape:label="bottomright" />
  </g>
</svg>
