<?xml version="1.0" encoding="UTF-8" standalone="no"?>
<svg
   id="svg2"
   version="1.1"
   viewBox="0 0 120 56"
   sodipodi:docname="plasmoidheading.svg"
   inkscape:version="1.3.2 (091e20e, 2023-11-25)"
   width="120"
   height="56"
   xmlns:inkscape="http://www.inkscape.org/namespaces/inkscape"
   xmlns:sodipodi="http://sodipodi.sourceforge.net/DTD/sodipodi-0.dtd"
   xmlns="http://www.w3.org/2000/svg"
   xmlns:svg="http://www.w3.org/2000/svg">
  <defs
     id="defs50" />
  <sodipodi:namedview
     id="namedview48"
     pagecolor="#ffffff"
     bordercolor="#666666"
     borderopacity="1.0"
     inkscape:pageshadow="2"
     inkscape:pageopacity="0.0"
     inkscape:pagecheckerboard="0"
     showgrid="true"
     inkscape:zoom="10.302642"
     inkscape:cx="57.752177"
     inkscape:cy="37.854368"
     inkscape:window-width="2560"
     inkscape:window-height="1374"
     inkscape:window-x="0"
     inkscape:window-y="0"
     inkscape:window-maximized="1"
     inkscape:current-layer="layer1"
     inkscape:blackoutopacity="0.0"
     inkscape:showpageshadow="2"
     inkscape:deskcolor="#d1d1d1">
    <inkscape:grid
       type="xygrid"
       id="grid4266"
       originx="0"
       originy="0"
       spacingy="1"
       spacingx="1"
       units="px"
       visible="true" />
  </sodipodi:namedview>
  <style
     id="current-color-scheme"
     type="text/css">
        .ColorScheme-Text {
            color:#232629;
        }
        .ColorScheme-Background {
            color:#eff0f1;
        }
        .ColorScheme-ViewBackground {
            color:#ffffff;
        }
    </style>
  <g
     inkscape:groupmode="layer"
     id="layer1"
     inkscape:label="header">
    <path
       id="header-topleft"
       class="ColorScheme-Background"
       fill="currentColor"
       d="m 13,12 h 6 V 6 c -4,0 -6,2 -6,6 z"
       opacity="0.75"
       sodipodi:nodetypes="cccc"
       inkscape:label="header-topleft" />
    <path
       id="header-top"
       class="ColorScheme-Background"
       d="M 19,12 V 6 h 32 v 6 z"
       fill="currentColor"
       opacity="0.75"
       inkscape:label="header-top" />
    <path
       id="header-topright"
       class="ColorScheme-Background"
       fill="currentColor"
       d="m 51,6 v 6 h 6 C 57,8 55,6 51,6 Z"
       opacity="0.75"
       sodipodi:nodetypes="cccc"
       inkscape:label="header-topright" />
    <path
       id="header-left"
       class="ColorScheme-Background"
       transform="scale(-1)"
       d="m -19,-44 h 6 v 32 h -6 z"
       fill="currentColor"
       opacity="0.75" />
    <path
       id="header-center"
       class="ColorScheme-Background"
       d="M 19,12 H 51 V 44 H 19 Z"
       fill="currentColor"
       opacity="0.75" />
    <path
       id="header-right"
       class="ColorScheme-Background"
       d="m 51,12 h 6 v 32 h -6 z"
       fill="currentColor"
       opacity="0.75" />
    <g
       id="header-bottomleft"
       fill="currentColor">
      <path
         id="path3182"
         class="ColorScheme-Background"
         d="m 19,50 v -6 h -6 v 6 z"
         opacity="0.75"
         fill="currentColor"
         sodipodi:nodetypes="ccccc"
         inkscape:label="background" />
      <path
         id="path3184"
         class="ColorScheme-Text"
         d="m 19,50 v -1 h -4 l -2,-2e-5 v 1 L 15,50 h 1 z"
         fill-rule="evenodd"
         opacity="0.2"
         fill="currentColor"
         inkscape:label="border" />
    </g>
    <g
       id="header-bottom"
       fill="currentColor">
      <path
         id="rect3152"
         class="ColorScheme-Background"
         transform="rotate(90)"
         d="m 44,-51 h 6 v 32 h -6 z"
         opacity="0.75"
         fill="currentColor"
         inkscape:label="background" />
      <path
         id="rect3154"
         class="ColorScheme-Text"
         transform="rotate(90)"
         d="m 49,-51 h 1 v 32 h -1 z"
         opacity="0.2"
         fill="currentColor"
         inkscape:label="border" />
    </g>
    <g
       id="header-bottomright"
       fill="currentColor">
      <path
         id="path3176"
         class="ColorScheme-Background"
         d="m 57,44 h -6 v 6 h 6 z"
         opacity="0.75"
         fill="currentColor"
         sodipodi:nodetypes="ccccc"
         inkscape:label="background" />
      <path
         id="path3178"
         class="ColorScheme-Text"
         d="m 57,49 h -6 v 1 h 6 c 0,-1 -2e-5,0 0,-1 z"
         fill-rule="evenodd"
         opacity="0.2"
         fill="currentColor"
         inkscape:label="border" />
    </g>
  </g>
  <g
     inkscape:groupmode="layer"
     id="layer2"
     inkscape:label="footer">
    <g
       id="footer-topleft"
       fill="currentColor">
      <path
         id="path3182-1"
         class="ColorScheme-Background"
         d="m 67,6 v 6 H 61 V 6 Z"
         opacity="0.75"
         fill="currentColor"
         sodipodi:nodetypes="ccccc"
         inkscape:label="background" />
      <path
         id="path3184-8"
         class="ColorScheme-Text"
         d="m 67,6 v 1 h -4 l -2,2e-5 v -1 L 63,6 h 1 z"
         fill-rule="evenodd"
         opacity="0.2"
         fill="currentColor"
         inkscape:label="border" />
    </g>
    <g
       id="footer-top"
       fill="currentColor">
      <path
         id="rect3152-0"
         class="ColorScheme-Background"
         transform="matrix(0,-1,-1,0,0,0)"
         d="m -12,-99 h 6 v 32 h -6 z"
         opacity="0.75"
         fill="currentColor"
         inkscape:label="background" />
      <path
         id="rect3154-9"
         class="ColorScheme-Text"
         transform="matrix(0,-1,-1,0,0,0)"
         d="m -7,-99 h 1 v 32 h -1 z"
         opacity="0.2"
         fill="currentColor"
         inkscape:label="border" />
    </g>
    <g
       id="footer-topright"
       fill="currentColor">
      <path
         id="path3176-6"
         class="ColorScheme-Background"
         d="M 105,12 H 99 V 6 h 6 z"
         opacity="0.75"
         fill="currentColor"
         sodipodi:nodetypes="ccccc"
         inkscape:label="background" />
      <path
         id="path3178-2"
         class="ColorScheme-Text"
         d="M 105,7 H 99 V 6 h 6 c 0,1 -2e-5,0 0,1 z"
         fill-rule="evenodd"
         opacity="0.2"
         fill="currentColor"
         inkscape:label="border" />
    </g>
    <path
       id="footer-left"
       class="ColorScheme-Background"
       transform="scale(-1,1)"
       d="m -67,12 h 6 v 32 h -6 z"
       fill="currentColor"
       opacity="0.75" />
    <path
       id="footer-center"
       class="ColorScheme-Background"
       transform="scale(1,-1)"
       d="m 67,-44 h 32 v 32 H 67 Z"
       fill="currentColor"
       opacity="0.75" />
    <path
       id="footer-right"
       class="ColorScheme-Background"
       transform="scale(1,-1)"
       d="m 99,-44 h 6 v 32 h -6 z"
       fill="currentColor"
       opacity="0.75" />
    <path
       id="footer-bottomleft"
       opacity="0.75"
       class="ColorScheme-Background"
       fill="currentColor"
       d="m 61,44 c 0,4 2,6 6,6 v -6 z"
       sodipodi:nodetypes="cccc" />
    <path
       id="footer-bottom"
       class="ColorScheme-Background"
       transform="matrix(0,1,1,0,0,0)"
       d="m 44,67 h 6 v 32 h -6 z"
       fill="currentColor"
       opacity="0.75" />
    <path
       id="footer-bottomright"
       class="ColorScheme-Background"
       fill="currentColor"
       d="m 99,44 v 6 c 4,0 6,-2 6,-6 z"
       opacity="0.75"
       sodipodi:nodetypes="cccc" />
  </g>
  <path
     id="hint-stretch-borders"
     d="M 1,1 H 6 V 6 H 1 Z"
     opacity="0.6" />
  <path
     id="hint-top-margin"
     d="m 33,12 h 4 v 6 h -4 z"
     fill="#ff00ff" />
  <path
     id="hint-bottom-margin"
     d="m 33,38 h 4 v 6 h -4 z"
     fill="#ff00ff" />
  <path
     id="hint-right-margin"
     d="m 51,26 v 4 h -6 v -4 z"
     fill="#ff00ff" />
  <path
     id="hint-left-margin"
     d="m 25,26 v 4 h -6 v -4 z"
     fill="#ff00ff" />
</svg>
