<?xml version="1.0" encoding="UTF-8" standalone="no"?>
<!-- Created with Inkscape (http://www.inkscape.org/) -->

<svg
   id="svg3642"
   height="48"
   style=""
   width="48"
   sodipodi:version="0.32"
   inkscape:version="1.3.2 (091e20e, 2023-11-25)"
   sodipodi:docname="scrollbar.svg"
   inkscape:output_extension="org.inkscape.output.svgz.inkscape"
   version="1.1"
   xmlns:inkscape="http://www.inkscape.org/namespaces/inkscape"
   xmlns:sodipodi="http://sodipodi.sourceforge.net/DTD/sodipodi-0.dtd"
   xmlns:xlink="http://www.w3.org/1999/xlink"
   xmlns="http://www.w3.org/2000/svg"
   xmlns:svg="http://www.w3.org/2000/svg">
  <defs
     id="defs165" />
  <sodipodi:namedview
     id="namedview163"
     pagecolor="#ffffff"
     bordercolor="#111111"
     borderopacity="1"
     inkscape:pageshadow="0"
     inkscape:pageopacity="0"
     inkscape:pagecheckerboard="1"
     inkscape:blackoutopacity="0.0"
     showgrid="false"
     inkscape:current-layer="svg3642"
     inkscape:showpageshadow="2"
     inkscape:deskcolor="#d1d1d1"
     inkscape:zoom="48.708334"
     inkscape:cx="10.090676"
     inkscape:cy="11.784431"
     inkscape:window-width="2560"
     inkscape:window-height="1364"
     inkscape:window-x="0"
     inkscape:window-y="0"
     inkscape:window-maximized="1" />
  <style
     id="current-color-scheme"
     type="text/css">
        .ColorScheme-Text {
            color:#232629;
            stop-color:#232629;
        }
        .ColorScheme-Background {
            color:#eff0f1;
            stop-color:#eff0f1;
        }
        .ColorScheme-Highlight {
            color:#3daee9;
            stop-color:#3daee9;
        }
        .ColorScheme-ViewText {
            color:#232629;
            stop-color:#232629;
        }
        .ColorScheme-ViewBackground {
            color:#fcfcfc;
            stop-color:#fcfcfc;
        }
        .ColorScheme-ViewHover {
            color:#3daee9;
            stop-color:#3daee9;
        }
        .ColorScheme-ViewFocus{
            color:#3daee9;
            stop-color:#3daee9;
        }
        .ColorScheme-ButtonText {
            color:#232629;
            stop-color:#232629;
        }
        .ColorScheme-ButtonBackground {
            color:#eff0f1;
            stop-color:#eff0f1;
        }
        .ColorScheme-ButtonHover {
            color:#3daee9;
            stop-color:#3daee9;
        }
        .ColorScheme-ButtonFocus{
            color:#3daee9;
            stop-color:#3daee9;
        }
    </style>
  <rect
     id="hint-tile-center"
     height="2"
     rx="2.077126"
     style="fill:#4e9a06;fill-opacity:1;fill-rule:nonzero"
     width="2"
     x="46"
     y="-2" />
  <rect
     id="private-hint-show-separator"
     height="2"
     rx="2.077126"
     style="opacity:0.1;fill:#0000ff;fill-opacity:1;fill-rule:nonzero"
     width="2"
     x="-32.87561"
     y="46.776436"
     ry="2.077126" />
  <g
     id="mouseover-slider-top"
     transform="translate(-18,24)">
    <path
       id="path1632-6"
       d="m 28,7 v 3 h 3 V 7 Z"
       style="fill:currentColor;fill-rule:evenodd"
       class="ColorScheme-ButtonBackground"
       sodipodi:nodetypes="ccccc" />
    <rect
       id="rect8453"
       class="ColorScheme-Highlight"
       height="2.5"
       style="opacity:0.5;fill:currentColor;fill-rule:evenodd"
       width="3"
       x="28"
       y="7.5" />
    <path
       id="path8"
       class="ColorScheme-Highlight"
       d="m 28,7 v 1 h 3 V 7 Z"
       style="fill:currentColor;fill-opacity:1"
       inkscape:connector-curvature="0" />
  </g>
  <g
     id="mouseover-slider-topleft"
     transform="translate(-18,24)">
    <path
       id="path1626-12"
       d="m 24,10 h 3 V 7 c -1.662,0 -3,1.338 -3,3 z"
       style="fill:currentColor;fill-rule:evenodd"
       class="ColorScheme-ButtonBackground"
       inkscape:label="background" />
    <path
       id="path7466"
       class="ColorScheme-Highlight"
       d="m 27,7.5 c -1.380712,0 -2.5,1.1192881 -2.5,2.5 H 27 Z"
       style="opacity:0.5;fill:currentColor;fill-rule:evenodd"
       sodipodi:nodetypes="cccc"
       inkscape:label="foreground" />
    <path
       id="path12"
       class="ColorScheme-Highlight"
       d="m 27,7 c -1.68216,0 -3,1.31784 -3,3 h 1 a 2,2 0 0 1 2,-2 z"
       style="fill:currentColor;fill-opacity:1"
       inkscape:label="border" />
  </g>
  <g
     id="mouseover-slider-center"
     transform="translate(-19,1)">
    <path
       id="path1632-3"
       d="m 29,34 v 3 h 3 v -3 z"
       style="fill:currentColor;fill-rule:evenodd"
       class="ColorScheme-ButtonBackground"
       sodipodi:nodetypes="ccccc"
       inkscape:label="background" />
    <path
       id="msc"
       class="ColorScheme-Highlight"
       d="m 29,34 v 3 h 3 v -3 z"
       style="opacity:0.5;fill:currentColor"
       inkscape:connector-curvature="0"
       inkscape:label="foreground" />
  </g>
  <g
     id="background-vertical-top"
     transform="translate(7,-1)">
    <path
       id="path1636-23"
       d="m 28,7 v 3 h 3 V 7 Z"
       style="opacity:0;fill:currentColor;fill-rule:evenodd"
       class="ColorScheme-ButtonBackground"
       sodipodi:nodetypes="ccccc" />
    <path
       id="path70"
       class="ColorScheme-ButtonText"
       d="m 28,7 v 1 h 3 V 7 Z"
       style="opacity:0;fill:currentColor;fill-opacity:1"
       inkscape:connector-curvature="0" />
    <path
       id="path1632-1-7-0-6"
       d="m 28,8 v 2 h 3 V 8 Z"
       style="opacity:0;fill:currentColor;fill-rule:evenodd;stroke-width:0.999996"
       sodipodi:nodetypes="ccccc"
       class="ColorScheme-ButtonText" />
  </g>
  <g
     id="background-vertical-topleft"
     transform="translate(7,-1)">
    <path
       id="path1626-5"
       d="m 24,10 h 3 V 7 c -1.662,0 -3,1.338 -3,3 z"
       style="opacity:0;fill:currentColor;fill-rule:evenodd"
       class="ColorScheme-ButtonBackground" />
    <path
       id="path74"
       class="ColorScheme-ButtonText"
       d="m 27,7 c -1.68216,0 -3,1.31784 -3,3 h 1 a 2,2 0 0 1 2,-2 z"
       style="opacity:0;fill:currentColor;fill-opacity:1" />
    <path
       id="path1626-53-7"
       d="m 27,8 a 2,2 0 0 0 -2,2 h 2 z"
       style="opacity:0;fill:currentColor;fill-rule:evenodd"
       class="ColorScheme-ButtonText" />
  </g>
  <g
     id="background-vertical-topright"
     transform="translate(7,-1)">
    <path
       id="path1634-7"
       d="m 32,10 h 3 C 35,8.338 33.662,7 32,7 Z"
       style="opacity:0;fill:currentColor;fill-rule:evenodd"
       class="ColorScheme-ButtonBackground" />
    <path
       id="path78"
       class="ColorScheme-ButtonText"
       d="m 32,7 v 1 a 2,2 0 0 1 2,2 h 1 C 35,8.31784 33.68216,7 32,7 Z"
       style="opacity:0;fill:currentColor;fill-opacity:1" />
    <path
       id="path1626-53-5-6"
       d="m 32,8 a 2,2 0 0 1 2,2 h -2 z"
       style="opacity:0;fill:currentColor;fill-rule:evenodd"
       class="ColorScheme-ButtonText" />
  </g>
  <g
     id="background-vertical-bottom"
     transform="translate(7,-1)">
    <path
       id="path1636-28"
       d="m 28,15 v 3 h 3 v -3 z"
       style="opacity:0;fill:currentColor;fill-rule:evenodd"
       class="ColorScheme-ButtonBackground"
       sodipodi:nodetypes="ccccc" />
    <path
       id="path82"
       class="ColorScheme-ButtonText"
       d="m 28,18 v -1 h 3 v 1 z"
       style="opacity:0;fill:currentColor;fill-opacity:1"
       inkscape:connector-curvature="0" />
    <path
       id="path1632-1-7-0-26"
       d="m 28,15 v 2 h 3 v -2 z"
       style="opacity:0;fill:currentColor;fill-rule:evenodd;stroke-width:0.999996"
       sodipodi:nodetypes="ccccc"
       class="ColorScheme-ButtonText" />
  </g>
  <g
     id="background-vertical-bottomleft"
     transform="translate(7,-1)">
    <path
       id="rect1353-2"
       d="m 27,18 v -3 h -3 c 0,1.662 1.338,3 3,3 z"
       style="opacity:0;fill:currentColor;fill-rule:evenodd"
       class="ColorScheme-ButtonBackground" />
    <path
       id="path86"
       class="ColorScheme-ButtonText"
       d="m 24,15 c 0,1.68216 1.31784,3 3,3 v -1 a 2,2 0 0 1 -2,-2 z"
       style="opacity:0;fill:currentColor;fill-opacity:1" />
    <path
       id="path1626-53-2-5"
       d="m 27,17 a 2,2 0 0 1 -2,-2 h 2 z"
       style="opacity:0;fill:currentColor;fill-rule:evenodd"
       class="ColorScheme-ButtonText" />
  </g>
  <g
     id="background-vertical-bottomright"
     transform="translate(7,-1)">
    <path
       id="path1638-0"
       d="m 35,15 h -3 v 3 c 1.662,0 3,-1.338 3,-3 z"
       style="opacity:0;fill:currentColor;fill-rule:evenodd"
       class="ColorScheme-ButtonBackground" />
    <path
       id="path90"
       class="ColorScheme-ButtonText"
       d="m 34,15 a 2,2 0 0 1 -2,2 v 1 c 1.68216,0 3,-1.31784 3,-3 z"
       style="opacity:0;fill:currentColor;fill-opacity:1" />
    <path
       id="path1626-53-6-3"
       d="m 32,17 a 2,2 0 0 0 2,-2 h -2 z"
       style="opacity:0;fill:currentColor;fill-rule:evenodd"
       class="ColorScheme-ButtonText" />
  </g>
  <g
     id="background-vertical-center"
     transform="translate(-19,1)">
    <path
       id="path1636-92"
       d="m 54,9 v 3 h 3 V 9 Z"
       style="opacity:0;fill:currentColor;fill-rule:evenodd"
       class="ColorScheme-ButtonBackground"
       sodipodi:nodetypes="ccccc" />
    <path
       id="path1632-9-1"
       d="m 54,9 v 3 h 3 V 9 Z"
       style="opacity:0;fill:currentColor;fill-rule:evenodd"
       sodipodi:nodetypes="ccccc"
       class="ColorScheme-ButtonText" />
  </g>
  <g
     id="background-vertical-left"
     transform="translate(7,-1)">
    <path
       id="path1636-97"
       d="m 24,11 v 3 h 3 v -3 z"
       style="opacity:0;fill:currentColor;fill-rule:evenodd"
       class="ColorScheme-ButtonBackground"
       sodipodi:nodetypes="ccccc" />
    <path
       id="path95"
       class="ColorScheme-ButtonText"
       d="m 24,11 v 3 h 1 v -3 z"
       style="opacity:0;fill:currentColor;fill-opacity:1"
       inkscape:connector-curvature="0" />
    <path
       id="path1632-1-2-0"
       d="m 25,11 v 3 h 2 v -3 z"
       style="opacity:0;fill:currentColor;fill-rule:evenodd;stroke-width:0.999996"
       sodipodi:nodetypes="ccccc"
       class="ColorScheme-ButtonText" />
  </g>
  <g
     id="background-vertical-right"
     transform="translate(7,-1)">
    <path
       id="path1636-75"
       d="m 32,11 v 3 h 3 v -3 z"
       style="opacity:0;fill:currentColor;fill-rule:evenodd"
       class="ColorScheme-ButtonBackground"
       sodipodi:nodetypes="ccccc" />
    <path
       id="path99"
       class="ColorScheme-ButtonText"
       d="m 34,11 v 3 h 1 v -3 z"
       style="opacity:0;fill:currentColor;fill-opacity:1"
       inkscape:connector-curvature="0" />
    <path
       id="path1632-1-2-6"
       d="m 32,11 v 3 h 2 v -3 z"
       style="opacity:0;fill:currentColor;fill-rule:evenodd;stroke-width:0.999996"
       sodipodi:nodetypes="ccccc"
       class="ColorScheme-ButtonText" />
  </g>
  <g
     id="slider-top"
     transform="translate(-18,-1)">
    <path
       id="path1636-7"
       d="m 28,7 v 3 h 3 V 7 Z"
       style="display:inline;fill:currentColor;fill-rule:evenodd"
       class="ColorScheme-ButtonBackground"
       sodipodi:nodetypes="ccccc"
       inkscape:label="background" />
    <path
       id="path1632-1-7-0"
       d="m 28,8 v 2 h 3 V 8 Z"
       style="opacity:0.15;fill:currentColor;fill-rule:evenodd;stroke-width:0.999996"
       sodipodi:nodetypes="ccccc"
       class="ColorScheme-ButtonText"
       inkscape:label="foreground" />
    <path
       id="path70-75"
       class="ColorScheme-ButtonText"
       d="m 28,7 v 1 h 3 V 7 Z"
       style="opacity:0.2;fill:currentColor;fill-opacity:1"
       inkscape:connector-curvature="0"
       inkscape:label="border" />
  </g>
  <g
     id="slider-topleft"
     transform="translate(-18,-1)">
    <path
       id="path1626-3"
       d="m 24,10 h 3 V 7 c -1.662,0 -3,1.338 -3,3 z"
       style="fill:currentColor;fill-rule:evenodd"
       class="ColorScheme-ButtonBackground"
       inkscape:label="background" />
    <path
       id="path1626-53"
       d="m 27,8 a 2,2 0 0 0 -2,2 h 2 z"
       style="display:inline;opacity:0.15;fill:currentColor;fill-rule:evenodd"
       class="ColorScheme-ButtonText"
       inkscape:label="foreground" />
    <path
       id="path74-8"
       class="ColorScheme-ButtonText"
       d="m 27,7 c -1.68216,0 -3,1.31784 -3,3 h 1 a 2,2 0 0 1 2,-2 z"
       style="display:inline;opacity:0.2;fill:currentColor;fill-opacity:1"
       inkscape:label="border" />
  </g>
  <g
     id="slider-bottom"
     transform="translate(-18,-1)">
    <path
       id="path1636-2"
       d="m 28,15 v 3 h 3 v -3 z"
       style="fill:currentColor;fill-rule:evenodd"
       class="ColorScheme-ButtonBackground"
       sodipodi:nodetypes="ccccc" />
    <path
       id="path82-2"
       class="ColorScheme-ButtonText"
       d="m 28,18 v -1 h 3 v 1 z"
       style="opacity:0.2;fill:currentColor;fill-opacity:1"
       inkscape:connector-curvature="0" />
    <path
       id="path1632-1-7"
       d="m 28,15 v 2 h 3 v -2 z"
       style="opacity:0.15;fill:currentColor;fill-rule:evenodd;stroke-width:0.999996"
       sodipodi:nodetypes="ccccc"
       class="ColorScheme-ButtonText" />
  </g>
  <g
     id="slider-center"
     transform="translate(-19,1)">
    <path
       id="path1636-0"
       d="m 29,9 v 3 h 3 V 9 Z"
       style="fill:currentColor;fill-rule:evenodd"
       class="ColorScheme-ButtonBackground"
       sodipodi:nodetypes="ccccc" />
    <path
       id="path1632-9"
       d="m 29,9 v 3 h 3 V 9 Z"
       style="opacity:0.15;fill:currentColor;fill-rule:evenodd"
       sodipodi:nodetypes="ccccc"
       class="ColorScheme-ButtonText" />
  </g>
  <g
     id="slider-left"
     transform="translate(-18,-1)">
    <path
       id="path1636-8"
       d="m 24,11 v 3 h 3 v -3 z"
       style="fill:currentColor;fill-rule:evenodd"
       class="ColorScheme-ButtonBackground"
       sodipodi:nodetypes="ccccc" />
    <path
       id="path95-3"
       class="ColorScheme-ButtonText"
       d="m 24,11 v 3 h 1 v -3 z"
       style="opacity:0.2;fill:currentColor;fill-opacity:1"
       inkscape:connector-curvature="0" />
    <path
       id="path1632-1"
       d="m 25,11 v 3 h 2 v -3 z"
       style="opacity:0.15;fill:currentColor;fill-rule:evenodd;stroke-width:0.999996"
       sodipodi:nodetypes="ccccc"
       class="ColorScheme-ButtonText" />
  </g>
  <g
     id="slider-right"
     transform="translate(-18,-1)">
    <path
       id="path1636-9"
       d="m 32,11 v 3 h 3 v -3 z"
       style="fill:currentColor;fill-rule:evenodd"
       class="ColorScheme-ButtonBackground"
       sodipodi:nodetypes="ccccc" />
    <path
       id="path99-06"
       class="ColorScheme-ButtonText"
       d="m 34,11 v 3 h 1 v -3 z"
       style="opacity:0.2;fill:currentColor;fill-opacity:1"
       inkscape:connector-curvature="0" />
    <path
       id="path1632-1-2"
       d="m 32,11 v 3 h 2 v -3 z"
       style="opacity:0.15;fill:currentColor;fill-rule:evenodd;stroke-width:0.999996"
       sodipodi:nodetypes="ccccc"
       class="ColorScheme-ButtonText" />
  </g>
  <g
     id="background-horizontal-top"
     transform="translate(7,24)">
    <path
       id="path1636-3"
       d="m 28,7 v 3 h 3 V 7 Z"
       style="opacity:0;fill:currentColor;fill-rule:evenodd"
       class="ColorScheme-ButtonBackground"
       sodipodi:nodetypes="ccccc" />
    <path
       id="path70-4"
       class="ColorScheme-ButtonText"
       d="m 28,7 v 1 h 3 V 7 Z"
       style="opacity:0;fill:currentColor;fill-opacity:1"
       inkscape:connector-curvature="0" />
    <path
       id="path1632-1-7-0-1"
       d="m 28,8 v 2 h 3 V 8 Z"
       style="opacity:0;fill:currentColor;fill-rule:evenodd;stroke-width:0.999996"
       sodipodi:nodetypes="ccccc"
       class="ColorScheme-ButtonText" />
  </g>
  <g
     id="background-horizontal-topleft"
     transform="translate(7,24)">
    <path
       id="path1626-1"
       d="m 24,10 h 3 V 7 c -1.662,0 -3,1.338 -3,3 z"
       style="opacity:0;fill:currentColor;fill-rule:evenodd"
       class="ColorScheme-ButtonBackground" />
    <path
       id="path74-0"
       class="ColorScheme-ButtonText"
       d="m 27,7 c -1.68216,0 -3,1.31784 -3,3 h 1 a 2,2 0 0 1 2,-2 z"
       style="opacity:0;fill:currentColor;fill-opacity:1" />
    <path
       id="path1626-53-9"
       d="m 27,8 a 2,2 0 0 0 -2,2 h 2 z"
       style="opacity:0;fill:currentColor;fill-rule:evenodd"
       class="ColorScheme-ButtonText" />
  </g>
  <g
     id="background-horizontal-topright"
     transform="translate(7,24)">
    <path
       id="path1634-0"
       d="m 32,10 h 3 C 35,8.338 33.662,7 32,7 Z"
       style="opacity:0;fill:currentColor;fill-rule:evenodd"
       class="ColorScheme-ButtonBackground" />
    <path
       id="path78-7"
       class="ColorScheme-ButtonText"
       d="m 32,7 v 1 a 2,2 0 0 1 2,2 h 1 C 35,8.31784 33.68216,7 32,7 Z"
       style="opacity:0;fill:currentColor;fill-opacity:1" />
    <path
       id="path1626-53-5-62"
       d="m 32,8 a 2,2 0 0 1 2,2 h -2 z"
       style="opacity:0;fill:currentColor;fill-rule:evenodd"
       class="ColorScheme-ButtonText" />
  </g>
  <g
     id="background-horizontal-bottom"
     transform="translate(7,24)">
    <path
       id="path1636-94"
       d="m 28,15 v 3 h 3 v -3 z"
       style="opacity:0;fill:currentColor;fill-rule:evenodd"
       class="ColorScheme-ButtonBackground"
       sodipodi:nodetypes="ccccc" />
    <path
       id="path82-27"
       class="ColorScheme-ButtonText"
       d="m 28,18 v -1 h 3 v 1 z"
       style="opacity:0;fill:currentColor;fill-opacity:1"
       inkscape:connector-curvature="0" />
    <path
       id="path1632-1-7-0-2"
       d="m 28,15 v 2 h 3 v -2 z"
       style="opacity:0;fill:currentColor;fill-rule:evenodd;stroke-width:0.999996"
       sodipodi:nodetypes="ccccc"
       class="ColorScheme-ButtonText" />
  </g>
  <g
     id="background-horizontal-bottomleft"
     transform="translate(7,24)">
    <path
       id="rect1353-61"
       d="m 27,18 v -3 h -3 c 0,1.662 1.338,3 3,3 z"
       style="opacity:0;fill:currentColor;fill-rule:evenodd"
       class="ColorScheme-ButtonBackground" />
    <path
       id="path86-6"
       class="ColorScheme-ButtonText"
       d="m 24,15 c 0,1.68216 1.31784,3 3,3 v -1 a 2,2 0 0 1 -2,-2 z"
       style="opacity:0;fill:currentColor;fill-opacity:1" />
    <path
       id="path1626-53-2-3"
       d="m 27,17 a 2,2 0 0 1 -2,-2 h 2 z"
       style="opacity:0;fill:currentColor;fill-rule:evenodd"
       class="ColorScheme-ButtonText" />
  </g>
  <g
     id="background-horizontal-bottomright"
     transform="translate(7,24)">
    <path
       id="path1638-3"
       d="m 35,15 h -3 v 3 c 1.662,0 3,-1.338 3,-3 z"
       style="opacity:0;fill:currentColor;fill-rule:evenodd"
       class="ColorScheme-ButtonBackground" />
    <path
       id="path90-6"
       class="ColorScheme-ButtonText"
       d="m 34,15 a 2,2 0 0 1 -2,2 v 1 c 1.68216,0 3,-1.31784 3,-3 z"
       style="opacity:0;fill:currentColor;fill-opacity:1" />
    <path
       id="path1626-53-6-5"
       d="m 32,17 a 2,2 0 0 0 2,-2 h -2 z"
       style="opacity:0;fill:currentColor;fill-rule:evenodd"
       class="ColorScheme-ButtonText" />
  </g>
  <g
     id="background-horizontal-center"
     transform="translate(-19,1)">
    <path
       id="path1636-31"
       d="m 54,34 v 3 h 3 v -3 z"
       style="opacity:0;fill:currentColor;fill-rule:evenodd"
       class="ColorScheme-ButtonBackground"
       sodipodi:nodetypes="ccccc" />
    <path
       id="path1632-9-3"
       d="m 54,34 v 3 h 3 v -3 z"
       style="opacity:0;fill:currentColor;fill-rule:evenodd"
       sodipodi:nodetypes="ccccc"
       class="ColorScheme-ButtonText" />
  </g>
  <g
     id="background-horizontal-left"
     transform="translate(7,24)">
    <path
       id="path1636-29"
       d="m 24,11 v 3 h 3 v -3 z"
       style="opacity:0;fill:currentColor;fill-rule:evenodd"
       class="ColorScheme-ButtonBackground"
       sodipodi:nodetypes="ccccc" />
    <path
       id="path95-4"
       class="ColorScheme-ButtonText"
       d="m 24,11 v 3 h 1 v -3 z"
       style="opacity:0;fill:currentColor;fill-opacity:1"
       inkscape:connector-curvature="0" />
    <path
       id="path1632-1-70"
       d="m 25,11 v 3 h 2 v -3 z"
       style="opacity:0;fill:currentColor;fill-rule:evenodd;stroke-width:0.999996"
       sodipodi:nodetypes="ccccc"
       class="ColorScheme-ButtonText" />
  </g>
  <g
     id="background-horizontal-right"
     transform="translate(7,24)">
    <path
       id="path1636-6"
       d="m 32,11 v 3 h 3 v -3 z"
       style="opacity:0;fill:currentColor;fill-rule:evenodd"
       class="ColorScheme-ButtonBackground"
       sodipodi:nodetypes="ccccc" />
    <path
       id="path99-9"
       class="ColorScheme-ButtonText"
       d="m 34,11 v 3 h 1 v -3 z"
       style="opacity:0;fill:currentColor;fill-opacity:1"
       inkscape:connector-curvature="0" />
    <path
       id="path1632-1-9"
       d="m 32,11 v 3 h 2 v -3 z"
       style="opacity:0;fill:currentColor;fill-rule:evenodd;stroke-width:0.999996"
       sodipodi:nodetypes="ccccc"
       class="ColorScheme-ButtonText" />
  </g>
  <rect
     id="background-horizontal-hint-right-inset"
     height="3"
     style="opacity:0.5;fill:#00ffff;fill-opacity:1;fill-rule:evenodd;stroke-width:0.999997"
     width="6"
     x="42"
     y="35" />
  <rect
     id="background-horizontal-hint-top-inset"
     height="6"
     style="opacity:0.5;fill:#00ffff;fill-opacity:1;fill-rule:evenodd;stroke-width:0.999997"
     width="3"
     x="35"
     y="25" />
  <rect
     id="background-horizontal-hint-left-inset"
     height="3"
     style="opacity:0.5;fill:#00ffff;fill-opacity:1;fill-rule:evenodd;stroke-width:0.999997"
     width="6"
     x="25"
     y="35" />
  <rect
     id="background-horizontal-hint-bottom-inset"
     height="6"
     style="opacity:0.5;fill:#00ffff;fill-opacity:1;fill-rule:evenodd;stroke-width:0.999997"
     width="3"
     x="35"
     y="42" />
  <rect
     id="background-vertical-hint-right-inset"
     height="3"
     style="opacity:0.5;fill:#00ffff;fill-opacity:1;fill-rule:evenodd;stroke-width:0.999997"
     width="6"
     x="42"
     y="10" />
  <rect
     id="background-vertical-hint-top-inset"
     height="6"
     style="opacity:0.5;fill:#00ffff;fill-opacity:1;fill-rule:evenodd;stroke-width:0.999997"
     width="3"
     x="35"
     y="0" />
  <rect
     id="background-vertical-hint-left-inset"
     height="3"
     style="opacity:0.5;fill:#00ffff;fill-opacity:1;fill-rule:evenodd;stroke-width:0.999997"
     width="6"
     x="25"
     y="10" />
  <rect
     id="background-vertical-hint-bottom-inset"
     height="6"
     style="opacity:0.5;fill:#00ffff;fill-opacity:1;fill-rule:evenodd;stroke-width:0.999997"
     width="3"
     x="35"
     y="17" />
  <rect
     id="slider-hint-right-inset"
     height="3"
     style="opacity:0.5;fill:#ff00ff;fill-opacity:1;fill-rule:evenodd;stroke-width:0.999997"
     width="6"
     x="17"
     y="10" />
  <rect
     id="slider-hint-top-inset"
     height="6"
     style="opacity:0.5;fill:#ff00ff;fill-opacity:1;fill-rule:evenodd;stroke-width:0.999997"
     width="3"
     x="10"
     y="0" />
  <rect
     id="slider-hint-left-inset"
     height="3"
     style="opacity:0.5;fill:#ff00ff;fill-opacity:1;fill-rule:evenodd;stroke-width:0.999997"
     width="6"
     x="0"
     y="10" />
  <rect
     id="slider-hint-bottom-inset"
     height="6"
     style="opacity:0.5;fill:#ff00ff;fill-opacity:1;fill-rule:evenodd;stroke-width:0.999997"
     width="3"
     x="10"
     y="17" />
  <rect
     id="mouseover-slider-hint-right-inset"
     height="3"
     style="opacity:0.5;fill:#ff00ff;fill-opacity:1;fill-rule:evenodd;stroke-width:0.999997"
     width="6"
     x="17"
     y="35" />
  <rect
     id="mouseover-slider-hint-top-inset"
     height="6"
     style="opacity:0.5;fill:#ff00ff;fill-opacity:1;fill-rule:evenodd;stroke-width:0.999997"
     width="3"
     x="10"
     y="25" />
  <rect
     id="mouseover-slider-hint-left-inset"
     height="3"
     style="opacity:0.5;fill:#ff00ff;fill-opacity:1;fill-rule:evenodd;stroke-width:0.999997"
     width="6"
     x="0"
     y="35" />
  <rect
     id="mouseover-slider-hint-bottom-inset"
     height="6"
     style="opacity:0.5;fill:#ff00ff;fill-opacity:1;fill-rule:evenodd;stroke-width:0.999997"
     width="3"
     x="10"
     y="42" />
  <rect
     id="hint-scrollbar-size"
     x="52"
     y="4"
     width="6"
     height="6"
     style="fill:#ff0000;fill-rule:evenodd" />
  <use
     x="0"
     y="0"
     xlink:href="#mouseover-slider-topleft"
     id="mouseover-slider-bottomleft"
     transform="matrix(1,0,0,-1,0,73)"
     inkscape:label="mouseover-slider-bottomleft" />
  <use
     x="0"
     y="0"
     xlink:href="#mouseover-slider-topleft"
     id="mouseover-slider-bottomright"
     transform="rotate(180,11.5,36.375)"
     inkscape:label="mouseover-slider-bottomright" />
  <use
     x="0"
     y="0"
     xlink:href="#mouseover-slider-topleft"
     id="mouseover-slider-topright"
     transform="matrix(-1,0,0,1,23,0)"
     inkscape:label="mouseover-slider-topright" />
  <use
     x="0"
     y="0"
     xlink:href="#mouseover-slider-top"
     id="mouseover-slider-left"
     transform="rotate(-90,11.5,36.5)"
     inkscape:label="mouseover-slider-left" />
  <use
     x="0"
     y="0"
     xlink:href="#mouseover-slider-top"
     id="mouseover-slider-right"
     transform="rotate(90,11.5,36.5)"
     inkscape:label="mouseover-slider-right" />
  <use
     x="0"
     y="0"
     xlink:href="#mouseover-slider-top"
     id="mouseover-slider-bottom"
     transform="matrix(1,0,0,-1,0,73)"
     inkscape:label="mouseover-slider-bottom" />
  <use
     x="0"
     y="0"
     xlink:href="#slider-topleft"
     id="slider-bottomleft"
     transform="matrix(1,0,0,-1,0,23)"
     inkscape:label="slider-bottomleft" />
  <use
     x="0"
     y="0"
     xlink:href="#slider-topleft"
     id="slider-bottomright"
     transform="rotate(180,11.5,11.5)"
     inkscape:label="slider-bottomright" />
  <use
     x="0"
     y="0"
     xlink:href="#slider-topleft"
     id="slider-topright"
     transform="matrix(-1,0,0,1,23,0)"
     inkscape:label="slider-topright" />
</svg>
