<?xml version="1.0" encoding="UTF-8" standalone="no"?>
<!-- Created with Inkscape (http://www.inkscape.org/) -->

<svg
   id="svg2"
   height="100"
   width="128"
   sodipodi:version="0.32"
   inkscape:version="1.3.2 (091e20e, 2023-11-25)"
   sodipodi:docname="slider.svg"
   inkscape:output_extension="org.inkscape.output.svgz.inkscape"
   inkscape:export-filename="arrow-up.png"
   inkscape:export-xdpi="11.25"
   inkscape:export-ydpi="11.25"
   version="1.1"
   xmlns:inkscape="http://www.inkscape.org/namespaces/inkscape"
   xmlns:sodipodi="http://sodipodi.sourceforge.net/DTD/sodipodi-0.dtd"
   xmlns:xlink="http://www.w3.org/1999/xlink"
   xmlns="http://www.w3.org/2000/svg"
   xmlns:svg="http://www.w3.org/2000/svg">
  <defs
     id="defs107">
    <linearGradient
       inkscape:collect="always"
       id="shadow">
      <stop
         id="stop0"
         offset="0"
         style="stop-color:#000;stop-opacity:1" />
      <stop
         id="stop1"
         offset="0.7391304374"
         style="stop-color:#000;stop-opacity:.2" />
      <stop
         id="stop2"
         offset="0.8260869384"
         style="stop-color:#000;stop-opacity:.1" />
      <stop
         id="stop3"
         offset="0.8695651889"
         style="stop-color:#000;stop-opacity:.05" />
      <stop
         id="stop4"
         offset="1"
         style="stop-color:#000;stop-opacity:0" />
    </linearGradient>
    <style
       id="current-color-scheme"
       type="text/css">
            .ColorScheme-Text {
                color:#232629;
                stop-color:#232629;
            }
            .ColorScheme-Background {
                color:#eff0f1;
                stop-color:#eff0f1;
            }
            .ColorScheme-Highlight {
                color:#3daee9;
                stop-color:#3daee9;
            }
            .ColorScheme-ButtonText {
                color:#232629;
                stop-color:#232629;
            }
            .ColorScheme-ButtonBackground {
                color:#eff0f1;
                stop-color:#eff0f1;
            }
        </style>
    <radialGradient
       inkscape:collect="always"
       xlink:href="#shadow"
       id="radialGradient1667"
       cx="108"
       cy="111.5"
       fx="108"
       fy="111.5"
       r="11.5"
       gradientUnits="userSpaceOnUse" />
    <radialGradient
       inkscape:collect="always"
       xlink:href="#shadow"
       id="radialGradient1675"
       cx="108"
       cy="111.5"
       fx="108"
       fy="111.5"
       r="11.5"
       gradientUnits="userSpaceOnUse" />
  </defs>
  <sodipodi:namedview
     id="namedview105"
     pagecolor="#ffffff"
     bordercolor="#111111"
     borderopacity="1"
     inkscape:pageshadow="0"
     inkscape:pageopacity="0"
     inkscape:pagecheckerboard="1"
     inkscape:blackoutopacity="0.0"
     showgrid="true"
     inkscape:current-layer="layer3"
     inkscape:showpageshadow="2"
     inkscape:deskcolor="#d1d1d1"
     inkscape:zoom="45.254834"
     inkscape:cx="21.202155"
     inkscape:cy="13.788582"
     inkscape:window-width="2560"
     inkscape:window-height="1364"
     inkscape:window-x="0"
     inkscape:window-y="0"
     inkscape:window-maximized="1">
    <inkscape:grid
       type="xygrid"
       id="grid1133"
       originx="0"
       originy="0"
       spacingy="1"
       spacingx="1"
       units="px"
       visible="true" />
  </sodipodi:namedview>
  <g
     id="layer1"
     inkscape:label="horizontal-slider"
     inkscape:groupmode="layer">
    <rect
       id="hint-tile-center"
       height="2.077126"
       rx="0"
       ry="2.077126"
       style="fill:#4e9a06;fill-opacity:1;fill-rule:nonzero"
       width="2.0329318"
       x="1.9835341"
       y="5" />
    <g
       id="horizontal-slider-hover"
       transform="translate(17,-31.999999)">
      <path
         id="path3077"
         d="m 26,98.000001 c -5.522847,0 -10,4.477149 -10,9.999999 0,5.52285 4.477153,10 10,10 5.522847,0 10,-4.47715 10,-10 0,-5.52285 -4.477153,-9.999999 -10,-9.999999 z m 0,1 c 4.970563,0 9,4.029439 9,8.999999 0,4.97056 -4.029437,9 -9,9 -4.970563,0 -9,-4.02944 -9,-9 0,-4.97056 4.029437,-8.999999 9,-8.999999 z"
         style="fill:currentColor"
         class="ColorScheme-Highlight"
         inkscape:connector-curvature="0"
         inkscape:label="border" />
    </g>
    <g
       id="horizontal-slider-focus"
       transform="translate(47,-31.999999)">
      <path
         id="rect1962-3"
         d="m 26,96 c -6.648,0 -12,5.352 -12,12 0,6.648 5.352,12 12,12 6.648,0 12,-5.352 12,-12 0,-6.648 -5.352,-12 -12,-12 z m 0,2.5 c 5.263,0 9.5,4.237 9.5,9.5 0,5.263 -4.237,9.5 -9.5,9.5 -5.263,0 -9.5,-4.237 -9.5,-9.5 0,-5.263 4.237,-9.5 9.5,-9.5 z"
         style="opacity:0.33;fill:currentColor"
         class="ColorScheme-Highlight"
         inkscape:label="glow" />
      <path
         id="path3106"
         d="m 26,98.000001 c -5.522847,0 -10,4.477149 -10,9.999999 0,5.52285 4.477153,10 10,10 5.522847,0 10,-4.47715 10,-10 0,-5.52285 -4.477153,-9.999999 -10,-9.999999 z m 0,1 c 4.970563,0 9,4.029439 9,8.999999 0,4.97056 -4.029437,9 -9,9 -4.970563,0 -9,-4.02944 -9,-9 0,-4.97056 4.029437,-8.999999 9,-8.999999 z"
         style="fill:currentColor"
         class="ColorScheme-Highlight"
         inkscape:connector-curvature="0"
         inkscape:label="border" />
    </g>
    <g
       id="horizontal-slider-handle"
       transform="matrix(1.2,0,0,1.2,-4.1999999,29.200001)"
       inkscape:label="horizontal-slider-handle">
      <circle
         id="path3923-4"
         cx="16"
         cy="39"
         r="8.333333"
         style="fill:currentColor;fill-rule:evenodd"
         class="ColorScheme-ButtonBackground"
         inkscape:label="background" />
      <path
         id="path3921-2"
         d="M 17,100 A 9.9999998,9.9999998 0 0 0 7,110 9.9999998,9.9999998 0 0 0 17,120 9.9999998,9.9999998 0 0 0 27,110 9.9999998,9.9999998 0 0 0 17,100 Z m 0,1 a 9,9 0 0 1 9,9 9,9 0 0 1 -9,9 9,9 0 0 1 -9,-9 9,9 0 0 1 9,-9 z"
         style="opacity:0.2;fill:currentColor"
         class="ColorScheme-ButtonText"
         transform="matrix(0.83333333,0,0,0.83333333,1.8333333,-52.666667)"
         inkscape:label="border" />
    </g>
    <circle
       id="hint-handle-size"
       cx="49.993446"
       cy="15"
       r="10"
       style="fill:#000000;fill-opacity:1" />
    <g
       id="horizontal-slider-shadow"
       transform="translate(-1.9999999,-33.999999)"
       inkscape:label="horizontal-slider-shadow">
      <rect
         id="rect3114-3-3"
         height="26"
         style="opacity:0.00100002;fill:#000000;fill-opacity:0.00392157"
         width="26"
         x="95"
         y="97"
         inkscape:label="airspace" />
      <circle
         style="fill:url(#radialGradient1675);fill-opacity:1;fill-rule:evenodd"
         id="path1195-6"
         cx="108"
         cy="111.5"
         r="11.5"
         inkscape:label="shadow" />
    </g>
  </g>
  <g
     inkscape:groupmode="layer"
     id="layer4"
     inkscape:label="vertical-slider">
    <g
       id="vertical-slider-hover"
       transform="translate(17,-67.999999)">
      <path
         id="path3902"
         d="m 26,98.000001 c -5.522847,0 -10,4.477149 -10,9.999999 0,5.52285 4.477153,10 10,10 5.522847,0 10,-4.47715 10,-10 0,-5.52285 -4.477153,-9.999999 -10,-9.999999 z m 0,1 c 4.970563,0 9,4.029439 9,8.999999 0,4.97056 -4.029437,9 -9,9 -4.970563,0 -9,-4.02944 -9,-9 0,-4.97056 4.029437,-8.999999 9,-8.999999 z"
         style="fill:currentColor"
         class="ColorScheme-Highlight"
         inkscape:connector-curvature="0"
         inkscape:label="border" />
    </g>
    <g
       id="vertical-slider-focus"
       transform="translate(47,-67.999999)">
      <path
         id="rect1962"
         d="m 78,62 c -6.648,0 -12,5.352 -12,12 0,6.648 5.352,12 12,12 6.648,0 12,-5.352 12,-12 0,-6.648 -5.352,-12 -12,-12 z m 0,2.5 c 5.263,0 9.5,4.237 9.5,9.5 0,5.263 -4.237,9.5 -9.5,9.5 -5.263,0 -9.5,-4.237 -9.5,-9.5 0,-5.263 4.237,-9.5 9.5,-9.5 z"
         style="opacity:0.33;fill:currentColor"
         class="ColorScheme-Highlight"
         transform="translate(-52,34)"
         inkscape:label="glow" />
      <path
         id="path3910"
         d="m 26,98.000001 c -5.522847,0 -10,4.477149 -10,9.999999 0,5.52285 4.477153,10 10,10 5.522847,0 10,-4.47715 10,-10 0,-5.52285 -4.477153,-9.999999 -10,-9.999999 z m 0,1 c 4.970563,0 9,4.029439 9,8.999999 0,4.97056 -4.029437,9 -9,9 -4.970563,0 -9,-4.02944 -9,-9 0,-4.97056 4.029437,-8.999999 9,-8.999999 z"
         style="fill:currentColor"
         class="ColorScheme-Highlight"
         inkscape:connector-curvature="0"
         inkscape:label="border" />
    </g>
    <g
       id="vertical-slider-handle"
       transform="matrix(1.2,0,0,1.2,-4.1999999,-6.7999993)"
       inkscape:label="vertical-slider-handle">
      <circle
         id="path3926"
         cx="16"
         cy="39"
         r="8.333333"
         style="fill:currentColor;fill-rule:evenodd"
         class="ColorScheme-ButtonBackground"
         inkscape:label="background" />
      <path
         id="path3924"
         d="M 17,64 A 9.9999998,9.9999998 0 0 0 7,74 9.9999998,9.9999998 0 0 0 17,84 9.9999998,9.9999998 0 0 0 27,74 9.9999998,9.9999998 0 0 0 17,64 Z m 0,1 a 9,9 0 0 1 9,9 9,9 0 0 1 -9,9 9,9 0 0 1 -9,-9 9,9 0 0 1 9,-9 z"
         style="display:inline;opacity:0.2;fill:currentColor"
         class="ColorScheme-ButtonText"
         transform="matrix(0.83333333,0,0,0.83333333,1.8333333,-22.666667)"
         inkscape:label="border" />
    </g>
    <g
       id="vertical-slider-shadow"
       transform="translate(-1.9999999,-69.999999)">
      <rect
         id="rect3114-3"
         height="26"
         style="opacity:0.00100002;fill:#000000;fill-opacity:0.00392157"
         width="26"
         x="95"
         y="97"
         inkscape:label="airspace" />
      <circle
         style="display:inline;fill:url(#radialGradient1667);fill-opacity:1;fill-rule:evenodd"
         id="path1195"
         cx="108"
         cy="111.5"
         r="11.5"
         inkscape:label="shadow" />
    </g>
  </g>
  <g
     inkscape:groupmode="layer"
     id="layer3"
     inkscape:label="groove-highlight"
     style="display:inline">
    <g
       id="groove-highlight-top"
       transform="translate(-3,-2)">
      <path
         id="path1632-6"
         d="m 28,7 v 3 h 3 V 7 Z"
         style="fill:currentColor;fill-rule:evenodd"
         class="ColorScheme-ButtonBackground"
         sodipodi:nodetypes="ccccc" />
      <rect
         id="rect8453-2"
         height="2.5"
         style="opacity:0.5;fill:currentColor;fill-rule:evenodd"
         class="ColorScheme-Highlight"
         width="3"
         x="28"
         y="7.5" />
      <path
         id="path8-0"
         d="m 28,7 v 1 h 3 V 7 Z"
         style="fill:currentColor;fill-opacity:1"
         class="ColorScheme-Highlight"
         inkscape:connector-curvature="0" />
    </g>
    <g
       id="groove-highlight-topleft"
       transform="translate(-3,-2)">
      <path
         id="path1626-12"
         d="m 24,10 h 3 V 7 c -1.662,0 -3,1.338 -3,3 z"
         style="fill:currentColor;fill-rule:evenodd"
         class="ColorScheme-ButtonBackground" />
      <path
         id="path7466-23"
         d="m 27,7.5 c -1.380712,0 -2.5,1.1192881 -2.5,2.5 H 27 Z"
         style="opacity:0.5;fill:currentColor;fill-rule:evenodd"
         class="ColorScheme-Highlight"
         sodipodi:nodetypes="cccc" />
      <path
         id="path12-7"
         d="m 27,7 c -1.68216,0 -3,1.31784 -3,3 h 1 a 2,2 0 0 1 2,-2 z"
         style="fill:currentColor;fill-opacity:1"
         class="ColorScheme-Highlight" />
    </g>
    <g
       id="groove-highlight-center"
       transform="translate(-4,-25)">
      <path
         id="path1632-3"
         d="m 29,34 v 3 h 3 v -3 z"
         style="fill:currentColor;fill-rule:evenodd"
         class="ColorScheme-ButtonBackground"
         sodipodi:nodetypes="ccccc" />
      <path
         id="msc"
         d="m 29,34 v 3 h 3 v -3 z"
         style="opacity:0.5;fill:currentColor"
         class="ColorScheme-Highlight"
         inkscape:connector-curvature="0" />
    </g>
    <use
       x="0"
       y="0"
       xlink:href="#groove-highlight-topleft"
       id="groove-highlight-bottomleft"
       transform="rotate(-90,26.5,10.5)"
       inkscape:label="groove-highlight-bottomleft" />
    <use
       x="0"
       y="0"
       xlink:href="#groove-highlight-topleft"
       id="groove-highlight-topright"
       transform="rotate(90,26.5,10.5)"
       inkscape:label="groove-highlight-topright" />
    <use
       x="0"
       y="0"
       xlink:href="#groove-highlight-topleft"
       id="groove-highlight-bottomright"
       transform="rotate(180,26.5,10.5)"
       inkscape:label="groove-highlight-bottomright" />
    <use
       x="0"
       y="0"
       xlink:href="#groove-highlight-top"
       id="groove-highlight-left"
       transform="rotate(-90,26.5,10.5)"
       inkscape:label="groove-highlight-left" />
    <use
       x="0"
       y="0"
       xlink:href="#groove-highlight-top"
       id="groove-highlight-bottom"
       transform="matrix(1,0,0,-1,0,21)"
       inkscape:label="groove-highlight-bottom" />
    <use
       x="0"
       y="0"
       xlink:href="#groove-highlight-top"
       id="groove-highlight-right"
       transform="rotate(90,26.5,10.5)"
       inkscape:label="groove-highlight-right" />
  </g>
  <g
     inkscape:groupmode="layer"
     id="layer2"
     inkscape:label="groove">
    <g
       id="groove-top"
       transform="translate(-17,-2)">
      <path
         id="path1636-23"
         d="m 28,7 v 3 h 3 V 7 Z"
         style="opacity:0.525;fill:currentColor;fill-rule:evenodd"
         class="ColorScheme-ButtonBackground"
         sodipodi:nodetypes="ccccc"
         inkscape:label="background" />
      <path
         id="path70-0"
         d="m 28,7 v 1 h 3 V 7 Z"
         style="opacity:0.2;fill:currentColor"
         class="ColorScheme-ButtonText"
         inkscape:connector-curvature="0"
         inkscape:label="border" />
      <path
         id="path1632-1-7-0-6"
         d="m 28,8 v 2 h 3 V 8 Z"
         style="opacity:0.09;fill:currentColor;fill-rule:evenodd"
         class="ColorScheme-ButtonText"
         sodipodi:nodetypes="ccccc"
         inkscape:label="foreground" />
    </g>
    <g
       id="groove-topleft"
       transform="translate(-17,-2)">
      <path
         id="path1626-5"
         d="m 24,10 h 3 V 7 c -1.662,0 -3,1.338 -3,3 z"
         style="opacity:0.525;fill:currentColor;fill-rule:evenodd"
         class="ColorScheme-ButtonBackground"
         inkscape:label="background" />
      <path
         id="path74-6"
         d="m 27,7 c -1.68216,0 -3,1.31784 -3,3 h 1 a 2,2 0 0 1 2,-2 z"
         style="display:inline;opacity:0.2;fill:currentColor"
         class="ColorScheme-ButtonText"
         inkscape:label="border" />
      <path
         id="path1626-53-7"
         d="m 27,8 a 2,2 0 0 0 -2,2 h 2 z"
         style="opacity:0.09;fill:currentColor;fill-rule:evenodd"
         class="ColorScheme-ButtonText"
         inkscape:label="foreground" />
    </g>
    <g
       id="groove-center"
       transform="translate(-43)">
      <path
         id="path1636-92"
         d="m 54,9 v 3 h 3 V 9 Z"
         style="opacity:0.525;fill:currentColor;fill-rule:evenodd"
         class="ColorScheme-ButtonBackground"
         sodipodi:nodetypes="ccccc"
         inkscape:label="background" />
      <path
         id="path1632-9-1"
         d="m 54,9 v 3 h 3 V 9 Z"
         style="opacity:0.09;fill:currentColor;fill-rule:evenodd"
         class="ColorScheme-ButtonText"
         sodipodi:nodetypes="ccccc"
         inkscape:label="foreground" />
    </g>
    <use
       x="0"
       y="0"
       xlink:href="#groove-topleft"
       id="groove-bottomleft"
       transform="rotate(-90,12.5,10.5)"
       inkscape:label="groove-bottomleft" />
    <use
       x="0"
       y="0"
       xlink:href="#groove-topleft"
       id="groove-topright"
       transform="rotate(90,12.5,10.5)"
       inkscape:label="groove-topright" />
    <use
       x="0"
       y="0"
       xlink:href="#groove-topleft"
       id="groove-bottomright"
       transform="rotate(180,12.5,10.5)"
       inkscape:label="groove-bottomright" />
    <use
       x="0"
       y="0"
       xlink:href="#groove-top"
       id="groove-left"
       transform="rotate(-90,12.5,10.5)"
       inkscape:label="groove-left" />
    <use
       x="0"
       y="0"
       xlink:href="#groove-top"
       id="groove-bottom"
       transform="matrix(1,0,0,-1,0,21)"
       inkscape:label="groove-bottom" />
    <use
       x="0"
       y="0"
       xlink:href="#groove-top"
       id="groove-right"
       transform="rotate(90,12.5,10.5)"
       inkscape:label="groove-right" />
  </g>
</svg>
