<?xml version="1.0" encoding="UTF-8" standalone="no"?>
<svg
   id="svg2"
   version="1.1"
   viewBox="0 0 51 58.999999"
   sodipodi:docname="switch.svg"
   inkscape:version="1.2.1 (9c6d41e410, 2022-07-14)"
   width="51"
   height="59"
   xmlns:inkscape="http://www.inkscape.org/namespaces/inkscape"
   xmlns:sodipodi="http://sodipodi.sourceforge.net/DTD/sodipodi-0.dtd"
   xmlns="http://www.w3.org/2000/svg"
   xmlns:svg="http://www.w3.org/2000/svg">
  <defs
     id="defs57" />
  <sodipodi:namedview
     id="namedview55"
     pagecolor="#ffffff"
     bordercolor="#000000"
     borderopacity="0.25"
     inkscape:showpageshadow="2"
     inkscape:pageopacity="0.0"
     inkscape:pagecheckerboard="0"
     inkscape:deskcolor="#d1d1d1"
     showgrid="true"
     inkscape:zoom="12.718598"
     inkscape:cx="48.0792"
     inkscape:cy="35.341946"
     inkscape:window-width="1920"
     inkscape:window-height="1133"
     inkscape:window-x="0"
     inkscape:window-y="0"
     inkscape:window-maximized="1"
     inkscape:current-layer="svg2">
    <inkscape:grid
       type="xygrid"
       id="grid286"
       originx="0"
       originy="9.9999996e-08" />
  </sodipodi:namedview>
  <style
     id="current-color-scheme"
     type="text/css">.ColorScheme-Text {
            color:#232629;
            stop-color:#232629;
        }
        .ColorScheme-Background {
            color:#eff0f1;
            stop-color:#eff0f1;
        }
        .ColorScheme-Highlight {
            color:#3daee9;
            stop-color:#3daee9;
        }
        .ColorScheme-ButtonText {
            color:#232629;
            stop-color:#232629;
        }
        .ColorScheme-ButtonBackground {
            color:#eff0f1;
            stop-color:#eff0f1;
        }</style>
  <rect
     id="hint-stretch-borders"
     y="7.0100002"
     width="4"
     height="4"
     fill="#ff2a2a"
     x="0" />
  <g
     id="active-left">
    <g
       transform="matrix(0.53333333,0,0,0.53333333,14,-15.99)"
       id="g1088">
      <path
         id="path2278"
         fill="currentColor"
         class="ColorScheme-Highlight"
         d="M 30,45 C 30,36.628883 36.606391,30 45,30 V 45" />
      <path
         id="path2040"
         fill="currentColor"
         class="ColorScheme-Highlight"
         d="m 30,45 c 0,-8.371117 6.606391,-15 15,-15 v 1 c -7.750845,0 -14,6.202439 -14,14" />
      <path
         id="path758"
         fill="currentColor"
         class="ColorScheme-ButtonText"
         d="m 30,45 c 0,-8.371117 6.606391,-15 15,-15 v 1 c -7.750845,0 -14,6.202439 -14,14"
         fill-opacity="0.6" />
    </g>
    <g
       transform="matrix(0.53333333,0,0,-0.53333333,14,32)"
       id="g1092">
      <path
         id="path2289"
         fill="currentColor"
         class="ColorScheme-Highlight"
         d="M 30,45 C 30,36.628883 36.606391,30 45,30 V 45" />
      <path
         id="path2291"
         fill="currentColor"
         class="ColorScheme-Highlight"
         d="m 30,45 c 0,-8.371117 6.606391,-15 15,-15 v 1 c -7.750845,0 -14,6.202439 -14,14" />
      <path
         id="path768"
         fill="currentColor"
         class="ColorScheme-ButtonText"
         d="m 30,45 c 0,-8.371117 6.606391,-15 15,-15 v 1 c -7.750845,0 -14,6.202439 -14,14"
         fill-opacity="0.6" />
    </g>
  </g>
  <g
     id="active-right">
    <g
       transform="matrix(0,0.53333333,-0.53333333,0,67,-15.99)"
       id="g1097">
      <path
         id="path2283"
         fill="currentColor"
         class="ColorScheme-Highlight"
         d="M 30,45 C 30,36.628883 36.606391,30 45,30 V 45" />
      <path
         id="path2285"
         fill="currentColor"
         class="ColorScheme-Highlight"
         d="m 30,45 c 0,-8.371117 6.606391,-15 15,-15 v 1 c -7.750845,0 -14,6.202439 -14,14" />
      <path
         id="path762"
         fill="currentColor"
         class="ColorScheme-ButtonText"
         d="m 30,45 c 0,-8.371117 6.606391,-15 15,-15 v 1 c -7.750845,0 -14,6.202439 -14,14"
         fill-opacity="0.6" />
    </g>
    <g
       transform="matrix(0,-0.53333333,-0.53333333,0,67,32)"
       id="g1101">
      <path
         id="path2295"
         fill="currentColor"
         class="ColorScheme-Highlight"
         d="M 30,45 C 30,36.628883 36.606391,30 45,30 V 45" />
      <path
         id="path2297"
         fill="currentColor"
         class="ColorScheme-Highlight"
         d="m 30,45 c 0,-8.371117 6.606391,-15 15,-15 v 1 c -7.750845,0 -14,6.202439 -14,14" />
      <path
         id="path764"
         fill="currentColor"
         class="ColorScheme-ButtonText"
         d="m 30,45 c 0,-8.371117 6.606391,-15 15,-15 v 1 c -7.750845,0 -14,6.202439 -14,14"
         fill-opacity="0.6" />
    </g>
  </g>
  <g
     id="active-center">
    <g
       transform="matrix(1,0,0,0.53333333,-15,-15.99)"
       id="g1106">
      <path
         fill="currentColor"
         id="path2453"
         class="ColorScheme-Highlight"
         d="m 53,30 h 5 v 15 h -5 z" />
      <path
         fill="currentColor"
         id="path2455"
         class="ColorScheme-Highlight"
         d="m 53,31 h 5 v -1 h -5 z" />
      <path
         fill="currentColor"
         id="path760"
         class="ColorScheme-ButtonText"
         d="m 53,31 h 5 v -1 h -5 z"
         fill-opacity="0.6" />
    </g>
    <g
       transform="matrix(1,0,0,-0.53333333,-15,32)"
       id="g1110">
      <path
         fill="currentColor"
         id="path2644"
         class="ColorScheme-Highlight"
         d="m 53,30 h 5 v 15 h -5 z" />
      <path
         fill="currentColor"
         id="path2646"
         class="ColorScheme-Highlight"
         d="m 53,31 h 5 v -1 h -5 z" />
      <path
         fill="currentColor"
         id="path766"
         class="ColorScheme-ButtonText"
         d="m 53,31 h 5 v -1 h -5 z"
         fill-opacity="0.6" />
    </g>
  </g>
  <g
     id="inactive-left">
    <g
       transform="matrix(0.53333333,0,0,0.53333333,-10,-16)"
       id="g1115">
      <path
         fill="currentColor"
         id="path3759"
         class="ColorScheme-ButtonText"
         d="M 30,45 C 30,36.628883 36.606391,30 45,30 V 45"
         fill-opacity="0.09" />
      <path
         fill="currentColor"
         id="path3761"
         class="ColorScheme-ButtonText"
         d="m 30,45 c 0,-8.371117 6.606391,-15 15,-15 v 1 c -7.750845,0 -14,6.202439 -14,14"
         fill-opacity="0.24" />
    </g>
    <g
       transform="matrix(0.53333333,0,0,-0.53333333,-9.9999999,32)"
       id="g1119">
      <path
         fill="currentColor"
         id="path3771"
         class="ColorScheme-ButtonText"
         d="M 30,45 C 30,36.628883 36.606391,30 45,30 V 45"
         fill-opacity="0.09" />
      <path
         fill="currentColor"
         id="path3773"
         class="ColorScheme-ButtonText"
         d="m 30,45 c 0,-8.371117 6.606391,-15 15,-15 v 1 c -7.750845,0 -14,6.202439 -14,14"
         fill-opacity="0.24" />
    </g>
  </g>
  <g
     id="inactive-right">
    <g
       transform="matrix(0,0.53333333,-0.53333333,0,43,-16)"
       id="g1124">
      <path
         fill="currentColor"
         id="path3765"
         class="ColorScheme-ButtonText"
         d="M 30,45 C 30,36.628883 36.606391,30 45,30 V 45"
         fill-opacity="0.09" />
      <path
         fill="currentColor"
         id="path3767"
         class="ColorScheme-ButtonText"
         d="m 30,45 c 0,-8.371117 6.606391,-15 15,-15 v 1 c -7.750845,0 -14,6.202439 -14,14"
         fill-opacity="0.24" />
    </g>
    <g
       transform="matrix(0,-0.53333333,-0.53333333,0,43,32)"
       id="g1128">
      <path
         fill="currentColor"
         id="path3777"
         class="ColorScheme-ButtonText"
         d="M 30,45 C 30,36.628883 36.606391,30 45,30 V 45"
         fill-opacity="0.09" />
      <path
         fill="currentColor"
         id="path3779"
         class="ColorScheme-ButtonText"
         d="m 30,45 c 0,-8.371117 6.606391,-15 15,-15 v 1 c -7.750845,0 -14,6.202439 -14,14"
         fill-opacity="0.24" />
    </g>
  </g>
  <rect
     style="fill:#0000ff;stroke-width:145.989;stroke-linecap:round"
     id="hint-bar-size"
     width="38"
     height="16"
     x="7"
     y="18" />
  <g
     id="inactive-center">
    <g
       transform="matrix(1,0,0,0.53333333,-39,-16)"
       id="g1133">
      <path
         id="path3783"
         class="ColorScheme-ButtonText"
         d="m 53,30 h 5 v 15 h -5 z"
         fill-opacity="0.09"
         fill="currentColor" />
      <path
         fill="currentColor"
         id="path1207"
         class="ColorScheme-ButtonText"
         d="m 53,31 h 5 v -1 h -5 z"
         fill-opacity="0.24" />
    </g>
    <g
       transform="matrix(1,0,0,-0.53333333,-39,32)"
       id="g1137">
      <path
         fill="currentColor"
         id="path3789"
         class="ColorScheme-ButtonText"
         d="m 53,30 h 5 v 15 h -5 z"
         fill-opacity="0.09" />
      <path
         fill="currentColor"
         id="path3791"
         class="ColorScheme-ButtonText"
         d="m 53,31 h 5 v -1 h -5 z"
         fill-opacity="0.24" />
    </g>
  </g>
  <g
     id="handle"
     transform="translate(-67,22)">
    <path
       id="rect835-3-6"
       d="M 67,15 H 89 V 37 H 67 Z"
       fill="none"
       opacity="0.02" />
    <rect
       id="rect841-6-6-5-3-3"
       class="ColorScheme-Background"
       x="67"
       y="15"
       width="22"
       height="22"
       rx="11"
       fill="currentColor"
       fill-rule="evenodd"
       style="color:#eff0f1" />
    <path
       id="rect841-6"
       d="m 78,15 c -6.094,0 -11,4.906 -11,11 0,6.094 4.906,11 11,11 6.094,0 11,-4.906 11,-11 0,-6.094 -4.906,-11 -11,-11 z m 0,1 c 5.54,0 10,4.46 10,10 0,5.54 -4.46,10 -10,10 -5.54,0 -10,-4.46 -10,-10 0,-5.54 4.46,-10 10,-10 z"
       class="ColorScheme-ButtonText"
       fill="currentColor"
       fill-rule="evenodd"
       opacity="0.3"
       style="color:#232629" />
  </g>
  <g
     id="handle-hover"
     transform="translate(-35,-43)">
    <path
       id="rect835-3-6-5-1"
       d="m 62,80 h 22 v 22 H 62 Z"
       fill="none"
       opacity="0.02" />
    <rect
       id="rect841-6-6"
       class="ColorScheme-ButtonHover"
       x="62"
       y="80"
       width="22"
       height="22"
       rx="11"
       fill="currentColor"
       fill-rule="evenodd"
       style="color:#93cee9" />
    <rect
       id="rect841-6-6-5"
       class="ColorScheme-Background"
       x="63"
       y="81"
       width="20"
       height="20"
       rx="10"
       fill="currentColor"
       fill-rule="evenodd"
       style="color:#eff0f1" />
  </g>
</svg>
